<svg width="107" height="58" fill="none" xmlns="http://www.w3.org/2000/svg"><path d="M42.013 0H.573v11.591h41.44V0zM.572 56.707h11.532v-41.67H.572v41.67zM30.48 41.549h11.53V15.037H30.48V41.55zm-14.946-14.92h11.532V15.037H15.534V26.63zm0 15.039h11.532V30.076H15.534v11.592zm0 15.039h11.532V45.115H15.534v11.592zm66.436-9.004h2.384v8.998h3.16v-8.998h2.767v-2.58h-8.31v2.58zm-15.282 8.996h3.157v-11.59h-3.157V56.7zm25.082.018h3.159V45.123h-3.16v11.594zm-58.11-11.6h-3.157v11.596h7.777v-2.579h-4.62v-9.017zm25.076 7.099h2.2v2.036c-.204.205-.95.216-.95.216-2.084 0-3.73-1.07-3.73-3.54 0-2.47 2.283-3.502 3.73-3.502 2.101 0 3.416.5 3.416.5s.402-1.935.507-2.423c0 0-1.831-.679-3.922-.679-2.79 0-6.948 1.335-6.948 6.105 0 4.767 4.238 6.072 6.948 6.072 2.712 0 4.05-1.207 4.05-1.207l.003-3.578v-2.15h-5.304v2.15zM45.46 54.472c-1.633 0-2.956-1.586-2.956-3.545 0-1.955 1.323-3.503 2.954-3.503 1.632 0 2.956 1.548 2.956 3.503 0 1.959-1.324 3.545-2.954 3.545zm0-9.648c-3.354 0-6.074 2.726-6.074 6.09 0 3.362 2.72 6.089 6.074 6.089 3.353 0 6.073-2.727 6.073-6.09s-2.72-6.089-6.073-6.089zm58.474 9.579c-1.351 0-3.715-1.02-3.721-3.484.006-2.463 2.294-3.483 3.721-3.483 1.249 0 2.538.493 2.538.493s.397-1.877.509-2.414c0 0-1.612-.68-3.047-.68-2.784 0-6.924 1.32-6.94 6.075v.02c.016 4.75 4.156 6.072 6.94 6.072 1.435 0 3.047-.68 3.047-.68-.112-.538-.509-2.422-.509-2.422s-1.489.502-2.538.502zM75.14 48.372c0-1.011 1.492-.944 1.657-.944.888 0 2.623.5 2.623.5l.501-2.423s-1.736-.677-3.138-.677c-1.56 0-4.781.217-4.781 3.53 0 3.99 5.443 3.419 5.443 5.048 0 1.015-1.475 1.063-1.701 1.063-2.11 0-3.295-1-3.295-1l-.482 2.323s1.388 1.21 3.777 1.21c2.447 0 4.996-1.5 4.996-3.602 0-4.196-5.6-3.492-5.6-5.028z" fill="#fff"/></svg>