<svg width="70" height="28" fill="none" xmlns="http://www.w3.org/2000/svg"><path d="M10.772 27.432c5.4 0 9.144-3.456 9.144-8.244v-.072c0-4.824-3.78-6.876-7.848-7.344l7.416-7.668V.792H2.24v3.852h11.52l-7.236 7.74.756 2.772h2.052c3.744 0 6.192 1.44 6.192 4.14v.072c0 2.484-1.98 4.104-4.68 4.104-2.916 0-5.076-1.224-6.948-3.492L.764 22.86c2.268 2.736 5.436 4.572 10.008 4.572zM25.978 27h4.428v-8.532h5.328c5.724 0 10.44-2.988 10.44-8.892v-.108c0-5.184-3.888-8.676-9.936-8.676h-10.26V27zm4.428-12.492v-9.72h5.472c3.564 0 5.832 1.656 5.832 4.824v.072c0 2.844-2.232 4.824-5.832 4.824h-5.472zM51.291 27h18.288v-4.032h-13.86V.792H51.29V27z" fill="#FF0014"/></svg>