<svg width="64" height="64" fill="none" xmlns="http://www.w3.org/2000/svg"><path d="M58.375 52.75a5.634 5.634 0 0 0-5.303 3.75H45.25v3.75h7.822A5.634 5.634 0 0 0 58.375 64 5.631 5.631 0 0 0 64 58.375a5.631 5.631 0 0 0-5.625-5.625zm0 7.5a1.877 1.877 0 0 1-1.875-1.875c0-1.034.841-1.875 1.875-1.875s1.875.841 1.875 1.875a1.877 1.877 0 0 1-1.875 1.875zM37.75 33.875h-3.875v3.75h3.875V49H64V22.625H37.75v11.25zm11.25-7.5h3.75v3.75H49v-3.75zm-7.5 0h3.75v7.5H56.5v-7.5h3.75V45.25H41.5V26.375zM9.375 0C4.205 0 0 4.206 0 9.375a9.36 9.36 0 0 0 1.248 4.675l8.127 14.23 8.123-14.222a9.376 9.376 0 0 0 1.252-4.683C18.75 4.205 14.544 0 9.375 0zm4.871 12.19l-4.871 8.53-4.876-8.538a5.619 5.619 0 0 1-.749-2.807A5.631 5.631 0 0 1 9.375 3.75 5.631 5.631 0 0 1 15 9.375a5.63 5.63 0 0 1-.754 2.815zM3.75 37.625H7.5v-3.75H0V41.5h3.75v-3.875zM0 60.25h7.5V56.5H3.75v-3.75H0v7.5zm11.25-26.375h7.5v3.75h-7.5v-3.75zm11.25 0h7.625v3.75H22.5v-3.75zm0-22.625h7.625V15H22.5v-3.75zm11.375 0H41.5V15h-7.625v-3.75zM11.25 56.5h7.5v3.75h-7.5V56.5zm11.25 0h7.625v3.75H22.5V56.5zm11.375 0H41.5v3.75h-7.625V56.5zM0 45.25h3.75V49H0v-3.75z" fill="#FF0014"/><path d="M7.5 7.5h3.75v3.75H7.5V7.5zM45.25 15H49v3.875h3.75V11.25h-7.5V15z" fill="#FF0014"/></svg>