<svg width="64" height="64" fill="none" xmlns="http://www.w3.org/2000/svg"><path d="M4 61h5.015L60 3h-5.015L4 61zm-.8-43.152h3.087v-4.224h5.52v-2.608h-5.52v-2.08h6.128V6.2H3.2v11.648zm14.753 0h3.104V8.936h3.488V6.2h-10.08v2.736h3.488v8.912zm9.262 0h8.768v-2.736h-5.68V6.2h-3.088v11.648z" fill="#FF0014"/><path fill-rule="evenodd" clip-rule="evenodd" d="M3 6h9.616v3.136H6.488v1.68h5.52v3.008h-5.52v4.224H3V6zm.4.4v11.248h2.688v-4.224h5.52v-2.208h-5.52v-2.48h6.128V6.4H3.4zM14.265 6h10.48v3.136h-3.488v8.912h-3.504V9.136h-3.488V6zm.4.4v2.336h3.489v8.912h2.704V8.736h3.488V6.4h-9.68zm12.35-.4h3.489v8.912h5.68v3.136h-9.168V6zm.4.4v11.248h8.369v-2.336h-5.68V6.4h-2.688z" fill="#FF0014"/><path d="M28 57.778h2.997v-4.19h5.357V51h-5.357v-2.063h5.947v-2.715H28v11.556zM45.005 58c2.438 0 3.835-1.032 4.922-2.492l-2.205-1.699c-.73.842-1.428 1.397-2.624 1.397-1.677 0-2.81-1.412-2.81-3.206v-.032c0-1.73 1.133-3.174 2.81-3.174 1.103 0 1.864.54 2.547 1.349l2.205-1.873C48.84 46.952 47.396 46 45.13 46c-3.448 0-5.948 2.65-5.948 6v.032c0 3.428 2.578 5.968 5.823 5.968zm7.485-.222H61v-2.715h-5.513v-8.84H52.49v11.555z" fill="#FF0014"/><path fill-rule="evenodd" clip-rule="evenodd" d="M39.052 52c0-3.348 2.556-6 6.07-6 2.305 0 3.786.953 4.817 2.27l.115.148-2.468 2.053-.123-.143c-.655-.76-1.358-1.24-2.372-1.24-1.528 0-2.586 1.287-2.586 2.881V52c0 1.656 1.058 2.912 2.586 2.912.56 0 .994-.127 1.374-.346.384-.22.72-.54 1.076-.942l.118-.133 2.475 1.867-.117.154c-.548.72-1.181 1.345-1.993 1.788-.812.444-1.792.7-3.025.7-3.312 0-5.947-2.543-5.947-5.97V52zm6.07-5.616c-3.301 0-5.687 2.48-5.687 5.616v.03c0 3.212 2.46 5.586 5.564 5.586 1.177 0 2.093-.244 2.842-.653.694-.379 1.255-.906 1.752-1.531L47.71 54.01c-.328.356-.664.664-1.054.889-.44.253-.942.396-1.565.396-1.787 0-2.97-1.48-2.97-3.296v-.03c0-1.756 1.183-3.266 2.97-3.266 1.097 0 1.87.5 2.538 1.232l1.89-1.574c-.957-1.157-2.307-1.978-4.397-1.978zM28 46.215h9.224v3.012h-5.878v1.613h5.295v2.889h-5.295v4.056H28v-11.57zm.384.384v10.802h2.578v-4.057h5.295v-2.12h-5.295v-2.381h5.878v-2.244h-8.456zm23.822-.384h3.345v8.558H61v3.012h-8.794v-11.57zm.383.384v10.802h8.027v-2.244h-5.448V46.6h-2.579z" fill="#FF0014"/></svg>