<svg width="64" height="64" fill="none" xmlns="http://www.w3.org/2000/svg"><path d="M4 61h5.015L60 3h-5.015L4 61zm-.8-43.153h8.767v-2.736h-5.68V6.2H3.2v11.648zm12.565 0h3.104V8.935h3.488V6.2h-10.08v2.736h3.488v8.912zm9.262 0h8.768v-2.736h-5.68V6.2h-3.088v11.648z" fill="#FF0014"/><path fill-rule="evenodd" clip-rule="evenodd" d="M3 6h3.488v8.912h5.68v3.136H3V6zm.4.4v11.248h8.368v-2.336h-5.68V6.4H3.4zm8.678-.4h10.48v3.136H19.07v8.912h-3.504V9.136h-3.488V6zm.4.4v2.336h3.488v8.912h2.704V8.736h3.488V6.4h-9.68zm12.35-.4h3.488v8.912h5.68v3.136h-9.168V6zm.4.4v11.248h8.368v-2.336h-5.68V6.4h-2.688z" fill="#FF0014"/><path d="M28.2 58.072h8.767v-2.736h-5.68v-8.912H28.2v11.648zm12.565 0h3.104V49.16h3.488v-2.736h-10.08v2.736h3.488v8.912zm14.346.224c2.512 0 3.952-1.04 5.072-2.512l-2.272-1.712c-.752.848-1.472 1.408-2.704 1.408-1.728 0-2.896-1.424-2.896-3.232v-.032c0-1.744 1.168-3.2 2.896-3.2 1.136 0 1.92.544 2.624 1.36l2.272-1.888c-1.04-1.328-2.528-2.288-4.864-2.288-3.552 0-6.128 2.672-6.128 6.048v.032c0 3.456 2.656 6.016 6 6.016z" fill="#FF0014"/><path fill-rule="evenodd" clip-rule="evenodd" d="M48.912 52.248c0-3.486 2.665-6.248 6.328-6.248 2.403 0 3.947.993 5.022 2.365l.12.153-2.573 2.137-.128-.148c-.683-.792-1.416-1.291-2.473-1.291-1.593 0-2.696 1.34-2.696 3v.032c0 1.724 1.103 3.032 2.696 3.032.583 0 1.036-.132 1.433-.36.4-.23.75-.563 1.122-.98l.122-.139 2.58 1.944-.122.16c-.57.75-1.231 1.401-2.077 1.863-.847.462-1.869.728-3.154.728-3.453 0-6.2-2.648-6.2-6.216v-.032zM55.24 46.4c-3.441 0-5.928 2.582-5.928 5.848v.032c0 3.344 2.565 5.816 5.8 5.816 1.227 0 2.181-.254 2.962-.68.724-.394 1.31-.943 1.828-1.594l-1.964-1.48c-.341.371-.692.692-1.098.925-.46.265-.983.413-1.632.413-1.863 0-3.096-1.54-3.096-3.432v-.032c0-1.828 1.233-3.4 3.096-3.4 1.144 0 1.95.52 2.645 1.282l1.972-1.638c-1-1.205-2.406-2.06-4.585-2.06zM28 46.224h3.488v8.912h5.68v3.136H28V46.224zm.4.4v11.248h8.368v-2.336h-5.68v-8.912H28.4zm8.678-.4h10.48v3.136H44.07v8.912h-3.504V49.36h-3.488v-3.136zm.4.4v2.336h3.488v8.912h2.704V48.96h3.488v-2.336h-9.68z" fill="#FF0014"/></svg>