<svg width="64" height="64" fill="none" xmlns="http://www.w3.org/2000/svg"><g clip-path="url(#clip0)" fill="#FF0014"><path d="M61.808 17.276l-2.557-2.745-4.395 4.094h-6.91v-6.91l4.093-4.395-2.745-2.557-3.225 3.461-3.224-3.461L40.1 7.32l4.094 4.394v6.911h-6.911l-4.394-4.094-2.558 2.745 3.461 3.225-3.46 3.225 2.557 2.745 4.394-4.095h6.91v6.912L40.1 33.682l2.745 2.557 3.224-3.461 3.225 3.461 2.745-2.557-4.094-4.394v-6.912h6.911l4.395 4.095 2.557-2.745-3.462-3.225 3.462-3.225z"/><path d="M36.263 13.347l2.653-2.653 2.543 2.543-2.653 2.653-2.543-2.543zm0 14.307l2.543-2.543 2.653 2.653-2.544 2.543-2.652-2.653zm14.417.111l2.653-2.653 2.543 2.543-2.653 2.653-2.543-2.543zm0-14.527l2.544-2.543 2.652 2.653-2.543 2.543-2.652-2.653zM18.484 43.026v-6.86h-3.752v6.86c-2.883.819-5.002 3.474-5.002 6.616a6.886 6.886 0 0 0 6.878 6.878 6.886 6.886 0 0 0 6.878-6.878c0-3.142-2.119-5.797-5.002-6.616zm-1.876 9.742a3.13 3.13 0 0 1-3.126-3.126 3.13 3.13 0 0 1 3.126-3.126 3.13 3.13 0 0 1 3.126 3.126 3.13 3.13 0 0 1-3.126 3.126z"/><path d="M26.37 39.284V9.637c0-5.383-4.379-9.762-9.762-9.762-5.383 0-9.762 4.38-9.762 9.762v29.647a14.174 14.174 0 0 0-4.47 10.564c.053 3.71 1.538 7.207 4.18 9.849 2.643 2.642 6.14 4.125 9.85 4.177l.202.001c3.803 0 7.377-1.48 10.065-4.169a14.138 14.138 0 0 0 4.169-10.064c0-3.946-1.62-7.672-4.471-10.358zm-2.35 17.77a10.396 10.396 0 0 1-7.561 3.069c-5.617-.078-10.251-4.712-10.332-10.328a10.447 10.447 0 0 1 3.792-8.224l.678-.562V9.637a6.018 6.018 0 0 1 6.011-6.01 6.018 6.018 0 0 1 6.011 6.01V41.01l.678.562a10.46 10.46 0 0 1 3.793 8.07c0 2.8-1.09 5.433-3.07 7.413z"/></g><defs><clipPath id="clip0"><path fill="#fff" d="M0 0h64v64H0z"/></clipPath></defs></svg>