<svg width="64" height="64" fill="none" xmlns="http://www.w3.org/2000/svg"><path d="M32 26.375A5.631 5.631 0 0 0 26.375 32 5.631 5.631 0 0 0 32 37.625 5.631 5.631 0 0 0 37.625 32 5.631 5.631 0 0 0 32 26.375zm0 7.5A1.877 1.877 0 0 1 30.125 32c0-1.034.841-1.875 1.875-1.875s1.875.841 1.875 1.875A1.877 1.877 0 0 1 32 33.875z" fill="#FF0014"/><path d="M57.545 40.254a5.634 5.634 0 0 0-6.467.596l-3.527-2.036 1.875-3.248-4.351-2.512c.066-.72.066-1.383 0-2.108l4.351-2.512-1.875-3.248 3.527-2.036a5.632 5.632 0 0 0 6.467.596 5.631 5.631 0 0 0 2.06-7.683A5.625 5.625 0 1 0 49.2 19.904l-3.525 2.034L43.8 18.69l-4.394 2.537a12.993 12.993 0 0 0-1.782-1.035v-5.068h-3.75v-4.197a5.634 5.634 0 0 0 3.75-5.303A5.631 5.631 0 0 0 32 0a5.631 5.631 0 0 0-5.625 5.625 5.634 5.634 0 0 0 3.75 5.303v4.197h-3.75v5.068c-.62.297-1.215.642-1.783 1.035l-4.394-2.537-1.875 3.248-3.524-2.035a5.625 5.625 0 1 0-8.345 3.842 5.633 5.633 0 0 0 6.468-.596l3.526 2.036-1.875 3.248 4.351 2.512c-.066.72-.066 1.383 0 2.108l-4.351 2.512 1.875 3.248-3.527 2.036a5.634 5.634 0 0 0-6.467-.596 5.631 5.631 0 0 0-2.059 7.683A5.626 5.626 0 1 0 14.8 44.095l3.524-2.034 1.875 3.248 4.394-2.537c.568.392 1.163.738 1.783 1.035v5.068h3.75v4.197a5.634 5.634 0 0 0-3.75 5.303A5.631 5.631 0 0 0 32 64a5.631 5.631 0 0 0 5.625-5.625 5.634 5.634 0 0 0-3.75-5.303v-4.197h3.75v-5.068a13.052 13.052 0 0 0 1.782-1.035l4.395 2.537 1.874-3.248 3.524 2.035a5.625 5.625 0 1 0 8.345-3.842zM54.73 17a1.876 1.876 0 0 1 .94 3.499 1.877 1.877 0 0 1-2.561-.686c-.72-1.248.186-2.813 1.62-2.813zM32 3.75c1.033 0 1.875.841 1.875 1.875A1.877 1.877 0 0 1 32 7.5a1.877 1.877 0 0 1-1.875-1.875c0-1.034.84-1.875 1.875-1.875zM10.89 19.813a1.877 1.877 0 0 1-2.561.686 1.877 1.877 0 0 1-.686-2.561 1.877 1.877 0 0 1 2.56-.687 1.877 1.877 0 0 1 .687 2.561zm-.686 26.936a1.877 1.877 0 0 1-2.561-.687 1.877 1.877 0 0 1 .686-2.56 1.877 1.877 0 0 1 2.561.685 1.877 1.877 0 0 1-.686 2.562zM32 60.25a1.877 1.877 0 0 1-1.875-1.875c0-1.034.84-1.875 1.875-1.875 1.033 0 1.875.841 1.875 1.875A1.877 1.877 0 0 1 32 60.25zm10.429-20.064l-3.379-1.95-1.007.86c-1.783 1.521-3.369 1.802-4.169 2.14v3.889h-3.75v-3.888c-.794-.337-2.384-.62-4.168-2.142l-1.008-.86-3.378 1.951-1.875-3.247 3.346-1.932c-.17-1.02-.416-1.916-.416-3.007 0-1.09.245-1.983.416-3.007l-3.346-1.932 1.875-3.247 3.379 1.95c.694-.527 1.773-1.788 3.93-2.557l1.246-.444v-3.888h3.75v3.888l1.245.444c2.163.771 3.245 2.037 3.93 2.557l3.379-1.95 1.875 3.247-3.346 1.932c.17 1.02.417 1.917.417 3.007s-.246 1.983-.417 3.007l3.346 1.932-1.875 3.247zm13.928 5.877a1.877 1.877 0 0 1-2.562.686 1.877 1.877 0 0 1-.686-2.562 1.877 1.877 0 0 1 2.561-.686 1.877 1.877 0 0 1 .687 2.562z" fill="#FF0014"/></svg>