<svg width="166" height="90" fill="none" xmlns="http://www.w3.org/2000/svg"><path d="M64.648 0H0v18.247h64.648V0z" fill="#FF0014"/><path d="M0 89.263h17.99V23.67H0v65.593z" fill="#000"/><path d="M46.66 65.403h17.99V23.67H46.66v41.733z" fill="gold"/><path d="M23.34 41.916h17.99V23.67H23.34v18.246z" fill="#FF0014"/><path d="M23.34 65.59h17.99V47.344H23.34V65.59z" fill="gold"/><path d="M23.34 89.265h17.99V71.02H23.34v18.246zm103.64-14.172h3.718v14.164h4.932V75.093h4.315v-4.062H126.98v4.062zm-23.842 14.16h4.925V71.01h-4.925v18.243zm39.133.027h4.929V71.032h-4.929v18.25zM51.614 71.022h-4.925v18.254h12.134v-4.06h-7.209V71.022zm39.121 11.174h3.431v3.205c-.317.323-1.48.34-1.48.34-3.252 0-5.82-1.684-5.82-5.571 0-3.89 3.561-5.514 5.82-5.514 3.277 0 5.327.788 5.327.788s.629-3.047.792-3.814c0 0-2.857-1.07-6.119-1.07-4.351 0-10.838 2.102-10.838 9.61 0 7.505 6.61 9.558 10.838 9.558 4.231 0 6.318-1.9 6.318-1.9l.006-5.632v-3.385h-8.275v3.385zm-20.711 3.552c-2.548 0-4.611-2.498-4.611-5.581 0-3.077 2.063-5.514 4.609-5.514 2.545 0 4.611 2.437 4.611 5.514 0 3.083-2.066 5.58-4.609 5.58zm0-15.188c-5.233 0-9.476 4.292-9.476 9.586 0 5.294 4.243 9.585 9.476 9.585 5.231 0 9.474-4.291 9.474-9.585 0-5.294-4.243-9.585-9.474-9.585zm91.222 15.078c-2.107 0-5.795-1.607-5.804-5.485.009-3.877 3.579-5.484 5.804-5.484 1.948 0 3.96.776 3.96.776s.619-2.953.794-3.799c0 0-2.516-1.069-4.754-1.069-4.342 0-10.802 2.078-10.826 9.561v.033c.024 7.478 6.484 9.559 10.826 9.559 2.238 0 4.754-1.07 4.754-1.07-.175-.848-.794-3.814-.794-3.814s-2.323.792-3.96.792zm-44.923-9.496c0-1.591 2.328-1.485 2.585-1.485 1.386 0 4.092.788 4.092.788l.782-3.814s-2.709-1.067-4.895-1.067c-2.434 0-7.46.342-7.46 5.557 0 6.282 8.493 5.382 8.493 7.946 0 1.597-2.302 1.673-2.655 1.673-3.292 0-5.14-1.574-5.14-1.574l-.752 3.658s2.165 1.905 5.892 1.905c3.817 0 7.795-2.361 7.795-5.671 0-6.605-8.737-5.497-8.737-7.916z" fill="#000"/></svg>