<svg width="744" height="662" fill="none" xmlns="http://www.w3.org/2000/svg"><path d="M82.863 243C122.08 103.468 252.266 1 406.823 1c185.59 0 336.04 147.746 336.04 330s-150.45 330-336.04 330c-154.557 0-284.744-102.468-323.96-242" stroke="#6D6D6D" stroke-dasharray="1 2"/><g clip-path="url(#clip0)" fill="#C6CDDE"><path d="M149.059 357.395c-.002.016-.004.029-.004.044v5.057c0 .366-.02.543-.037.629-.097-.02-.255-.069-.39-.11-.247-.077-.553-.173-.937-.255l-23.656-13.867a.389.389 0 0 0-.579.258c-.116.577-.19 1.118-.25 1.554l-.034.246a13.864 13.864 0 0 1-.205-2.356.386.386 0 0 0-.199-.34l-7.907-4.424a.39.39 0 0 0-.58.341 5.58 5.58 0 0 1-.148 1.343c-.03-.204-.058-.432-.083-.638a24.879 24.879 0 0 0-.258-1.732.388.388 0 0 0-.198-.268c-3.703-1.99-7.079-3.191-10.989-4.583-.459-.163-.923-.327-1.395-.496a.35.35 0 0 0-.143-.024l-.317.008a.394.394 0 0 0-.367.296c-.133.529-.211 1.098-.28 1.598l-.032.239a43.046 43.046 0 0 1-.366-1.743c-.046-.24-.094-.479-.14-.711a.39.39 0 0 0-.264-.294l-6.955-2.212a.389.389 0 0 0-.507.372c0 .954-.113 1.77-.232 2.282-.134-.608-.259-1.6-.259-2.599a.389.389 0 0 0-.266-.37l-7.58-2.529a.386.386 0 0 0-.352.055.387.387 0 0 0-.162.315v32.213c-.238 6.884-1.024 13.892-1.785 20.67-.248 2.215-.505 4.503-.739 6.755l-1.57 5.66a.39.39 0 0 0 .744.233l1.728-4.899.51.338 19.562 17.976c.902.895.898.975.859 1.956-.01.246-.022.553-.022.931v3.471c0 .115.004.218.01.31l-.132-.045-.023-.007-24.972-6.642a.394.394 0 0 0-.479.282c-.081.328-.16.597-.242.828.059-.393.117-.724.174-.946a.377.377 0 0 0 .012-.097l-.009-15.488v-14.843a.403.403 0 0 0-.01-.094c-.117-.474-.242-1.368-.363-2.233-.376-2.688-.472-3.12-.968-3.12-.495 0-.592.432-.968 3.12-.12.865-.246 1.759-.362 2.233a.399.399 0 0 0-.012.094v14.843l-.008 15.488a.39.39 0 0 0 .012.097c.079.303.16.818.24 1.409-.214-.329-.39-.724-.53-1.284a.39.39 0 0 0-.478-.281l-24.981 6.634-.025.007c-.153.051-.31.105-.424.136-.005-.108-.005-.257-.005-.401v-3.473c-.008-1.733-.008-1.733 1.135-2.874l19.804-18.24 1.69 4.814a.39.39 0 0 0 .748-.211l-1.257-5.666c-1.151-9.53-2.514-21.254-2.842-27.439v-32.215a.388.388 0 0 0-.162-.315.387.387 0 0 0-.35-.055l-7.581 2.529a.388.388 0 0 0-.267.37c0 .999-.124 1.991-.259 2.599-.118-.512-.23-1.328-.23-2.282a.39.39 0 0 0-.508-.372l-6.955 2.212a.39.39 0 0 0-.264.294c-.047.232-.094.471-.14.711a43.39 43.39 0 0 1-.366 1.743 32.355 32.355 0 0 1-.033-.239c-.068-.5-.146-1.069-.28-1.598a.393.393 0 0 0-.367-.296l-.317-.008a.35.35 0 0 0-.142.024c-.472.169-.937.333-1.395.496-3.91 1.392-7.287 2.593-10.99 4.583a.39.39 0 0 0-.198.268c-.118.61-.192 1.206-.257 1.732a22.23 22.23 0 0 1-.084.638 5.58 5.58 0 0 1-.148-1.343.391.391 0 0 0-.192-.337.399.399 0 0 0-.387-.004l-7.907 4.424a.387.387 0 0 0-.199.34c0 .877-.094 1.747-.206 2.356l-.034-.246c-.06-.436-.133-.977-.25-1.554a.387.387 0 0 0-.222-.278.387.387 0 0 0-.356.02L2.307 362.76c-.384.082-.689.178-.937.255-.133.041-.291.09-.389.11-.018-.086-.037-.263-.037-.629v-5.057c0-.015-.002-.028-.003-.044-.152-1.353-.228-2.034-.024-2.578.207-.551.738-1.082 1.795-2.138l16.742-13.898a.391.391 0 0 0 .142-.3v-5.049a.396.396 0 0 0-.115-.276l-.838-.837v-5.764h5.542v5.766l-.831.837a.393.393 0 0 0-.113.274v1.26c0 .154.09.294.232.357a.386.386 0 0 0 .419-.069l16.757-15.16a.39.39 0 0 0 .128-.288v-5.693c0-.103-.04-.2-.114-.274l-.837-.838v-5.449h5.54v5.457l-.828.83a.387.387 0 0 0-.115.274v1.578a.39.39 0 0 0 .655.285l21.807-20.218a.388.388 0 0 0 .125-.284v-23.065c0-17.568 4.748-28.356 8.152-28.356 1.584 0 3.562 2.932 5.04 7.47 1.797 5.519 2.786 12.937 2.786 20.886V295.2c0 .107.046.21.125.284l21.805 20.216a.393.393 0 0 0 .421.073.392.392 0 0 0 .234-.359v-1.575c0-.103-.042-.2-.114-.274l-.83-.83v-5.543h5.542v5.535l-.838.838a.389.389 0 0 0-.114.274v5.689a.4.4 0 0 0 .13.292l16.757 15.16a.387.387 0 0 0 .651-.288v-1.26c0-.102-.04-.2-.112-.274l-.831-.837v-5.766h5.542v5.764l-.838.837a.396.396 0 0 0-.115.276v5.049c0 .115.052.226.141.3l16.743 13.898c1.057 1.056 1.588 1.587 1.795 2.138.202.544.126 1.225-.023 2.578zm-73.786 58.007c-.056-.415-.111-.856-.16-1.244-.139-1.114-.27-2.167-.41-2.737l.008-15.441v-14.798c.121-.518.24-1.366.366-2.265.056-.402.125-.897.196-1.345.07.448.14.943.197 1.345.125.899.243 1.747.365 2.265v14.8l.009 15.439c-.14.57-.272 1.623-.41 2.737-.05.388-.104.829-.161 1.244zm72.526-63.311l-16.616-13.793v-4.704l.838-.837a.398.398 0 0 0 .114-.276v-6.316a.389.389 0 0 0-.39-.389h-6.32a.388.388 0 0 0-.39.389v6.316c0 .103.041.202.113.274l.831.838v.221l-15.981-14.457v-5.356l.838-.837a.386.386 0 0 0 .114-.275v-6.086a.389.389 0 0 0-.389-.39h-6.321a.39.39 0 0 0-.39.39v6.094c0 .103.041.202.114.276l.83.828v.521l-21.026-19.493v-22.894c0-17.17-4.536-29.135-8.606-29.135-4.313 0-8.93 11.708-8.93 29.135v22.894l-21.03 19.495v-.523l.83-.828a.392.392 0 0 0 .114-.276v-6.008a.39.39 0 0 0-.39-.389h-6.32a.39.39 0 0 0-.39.389v6c0 .104.041.203.115.275l.837.837v5.357L24.02 333.814v-.221l.831-.838a.387.387 0 0 0 .113-.274v-6.316a.388.388 0 0 0-.39-.389h-6.32a.388.388 0 0 0-.39.389v6.316c0 .103.04.202.114.276l.838.837v4.704L2.2 352.091l-.027.024c-2.295 2.295-2.339 2.401-2.009 5.346v5.035c0 .689.053 1.078.344 1.293.298.218.65.109 1.095-.032.244-.076.547-.171.923-.245a.42.42 0 0 0 .12-.047l23.232-13.62c.058.346.102.668.142.965.142 1.034.231 1.665.775 1.644.404 0 .632-.411.816-1.466.113-.648.185-1.441.198-2.165l7.16-4.003c.08.911.348 1.953.994 1.953.537 0 .611-.602.76-1.801.056-.46.12-.974.214-1.497 3.588-1.908 6.896-3.086 10.718-4.447l1.275-.453c.084.401.14.824.193 1.206.137 1.009.22 1.619.75 1.619.557 0 .728-.741 1.185-3.08l.095-.481 6.24-1.985c.048 1.065.238 2.466.642 2.858a.5.5 0 0 0 .37.158c.403 0 .633-.41.82-1.466.113-.634.186-1.406.202-2.112l6.804-2.27v31.705c.328 6.199 1.69 17.929 2.844 27.47a.44.44 0 0 0-.139-.066.395.395 0 0 0-.359.092l-20.249 18.653c-1.345 1.343-1.384 1.441-1.375 3.438v3.471c0 .584 0 .908.276 1.106a.561.561 0 0 0 .343.109c.206 0 .46-.085.826-.209l24.598-6.531c.323 1.022.79 1.559 1.357 2.097.354 2.826.434 3.191.92 3.191.487 0 .567-.366.922-3.203.524-.547.842-1.04 1.14-2.091l24.583 6.537c.092.032.172.059.241.085.338.116.563.194.775.023.204-.164.177-.397.154-.602-.014-.122-.034-.289-.034-.512v-3.471c0-.362.011-.648.022-.9.045-1.134.014-1.444-1.1-2.55l-19.595-18.007a.525.525 0 0 0-.048-.037l-.952-.634a.383.383 0 0 0-.134-.057c.231-2.227.485-4.489.731-6.678.761-6.793 1.55-13.814 1.79-20.743v-31.686l6.804 2.27c.016.706.089 1.478.201 2.112.188 1.056.418 1.466.81 1.466a.514.514 0 0 0 .38-.158c.405-.392.594-1.793.642-2.858l6.241 1.985.094.481c.457 2.339.629 3.08 1.186 3.08.529 0 .612-.61.75-1.619.052-.382.109-.805.193-1.206l1.275.453c3.822 1.361 7.13 2.539 10.718 4.447.094.523.157 1.037.214 1.497.149 1.199.223 1.801.76 1.801.646 0 .913-1.042.995-1.953l7.159 4.003c.013.724.084 1.517.198 2.165.183 1.055.412 1.466.805 1.466.559.012.644-.61.785-1.644.041-.297.085-.619.143-.965l23.231 13.62a.44.44 0 0 0 .12.047c.375.074.679.169.925.245.443.141.796.25 1.094.032.291-.215.343-.604.343-1.293v-5.035c.329-2.945.286-3.051-2.009-5.346l-.026-.024z"/><path d="M75.163 255.706c-1.587 0-3.165 2.211-4.117 6.317h-.317c.635-5.683 2.847-8.846 4.434-8.846 1.578 0 3.472 3.163 4.425 8.846h-.635c-.952-4.106-2.53-6.317-3.79-6.317zm5.02 6.82a.78.78 0 0 0 .173-.632c-.98-5.857-2.97-9.496-5.193-9.496-1.139 0-2.295.957-3.256 2.694-.679 1.227-1.568 3.41-1.952 6.844a.777.777 0 0 0 .774.866h.317a.78.78 0 0 0 .76-.604c.915-3.947 2.345-5.714 3.357-5.714.534 0 2.04 1.439 3.03 5.714a.779.779 0 0 0 .76.604h.635a.783.783 0 0 0 .595-.276z"/></g><defs><clipPath id="clip0"><path fill="#fff" transform="translate(0 243)" d="M0 0h150v176H0z"/></clipPath></defs></svg>