<svg width="1241" height="1242" fill="none" xmlns="http://www.w3.org/2000/svg"><path d="M49.412 454C120.725 192.7 355.256 1 633.58 1 968.496 1 1240 278.583 1240 621s-271.504 620-606.42 620c-272.252 0-502.602-183.43-579.27-436" stroke="#6D6D6D" stroke-dasharray="1 2"/><g clip-path="url(#clip0)" fill="#C4C4C4"><path d="M79.57 712.879c-.006-.027-.006-.055-.006-.082V465.164c.003-2.456-.928-4.756-2.625-6.474a8.928 8.928 0 0 0-6.405-2.662l-58.802-.008c-5.068.008-9.036 4.024-9.036 9.144v247.633c0 .026-.004.052-.007.079l-1.636 10.62c.007 17.576 5.518 39.602 14.744 58.927 8.569 17.955 18.413 29.555 25.071 29.555 6.845 0 16.847-11.799 25.481-30.059 9.233-19.53 14.747-41.747 14.757-59.435l-1.535-9.605zM40.866 813c-3.594 0-7.992-2.972-12.716-8.59-4.501-5.346-9.085-12.796-13.26-21.546C5.593 763.397.044 741.187.044 723.456c0-.026.003-.052.007-.078l1.639-10.621V465.164c0-5.597 4.504-10.156 10.043-10.164l58.812.008c2.698 0 5.22 1.05 7.11 2.963 1.882 1.909 2.923 4.464 2.916 7.193v247.592l1.536 9.606a.31.31 0 0 1 .01.081C82.117 761.53 56.173 813 40.866 813z"/><path d="M74.757 714.569l-.006-245.654c0-5.992-1.825-8.116-6.968-8.116H14.378c-5.143 0-6.968 2.124-6.968 8.116l-.007 245.654c0 20.152 4.336 42.599 11.892 61.586 6.989 17.566 15.338 28.478 21.787 28.478 6.446 0 14.792-10.912 21.784-28.478 7.555-18.987 11.891-41.434 11.891-61.586zm-33.675 91.082c-14.328 0-34.686-47.107-34.686-91.082l.007-245.654c0-6.574 2.234-9.136 7.975-9.136h53.405c5.738 0 7.974 2.562 7.974 9.136l.007 245.654c0 43.975-20.358 91.082-34.682 91.082z"/><path d="M52.754 575.493h-3.357v16.24h3.357v-16.24zm1.01 17.26h-5.373v-18.28h5.373v18.28zm-27.669 2.583h-3.357v16.24h3.357v-16.24zm1.01 17.26h-5.378v-18.28h5.378v18.28zm18.987-17.26h-3.36v16.24h3.36v-16.24zm1.006 17.26h-5.373v-18.28h5.373v18.28zm12.325-17.26h-3.36v16.24h3.36v-16.24zm1.007 17.26h-5.377v-18.28h5.377v18.28zm-40.998 2.583h-3.36v16.241h3.36v-16.241zm1.007 17.26h-5.374v-18.28h5.374v18.28zm5.656-17.26h-3.357v16.241h3.357v-16.241zm1.01 17.26h-5.378v-18.28h5.378v18.28zm38.98-17.26h-3.357v16.241h3.357v-16.241zm1.007 17.26h-5.374v-18.28h5.373v18.28zm-27.666 2.582H36.07v16.24h3.357v-16.24zm1.007 17.26h-5.37v-18.28h5.37v18.28zm18.99-17.26h-3.36v16.24h3.36v-16.24zm1.007 17.26h-5.377v-18.28h5.377v18.28zm5.655-17.26h-3.357v16.24h3.357v-16.24zm1.007 17.26h-5.374v-18.28h5.373v18.28zm-47.66 2.581h-3.36v16.241h3.36v-16.241zm1.007 17.261h-5.374v-18.281h5.374v18.281zm12.324-17.261h-3.36v16.241h3.36v-16.241zm1.007 17.261h-5.377v-18.281h5.377v18.281zm5.656-17.261H36.07v16.241h3.357v-16.241zm1.007 17.261h-5.37v-18.281h5.37v18.281zm-27.666 2.582h-3.36v16.241h3.36v-16.241zm1.006 17.261H8.4v-18.281h5.374v18.281zm45.65-17.261h-3.36v16.241h3.36v-16.241zm1.007 17.261h-5.377v-18.281h5.377v18.281zm12.32-17.261h-3.36v16.241h3.36v-16.241zm1.008 17.261h-5.374v-18.281h5.374v18.281zm-40.995 2.582h-3.36v16.243h3.36v-16.243zm1.007 17.263h-5.377v-18.283h5.377v18.283zm5.656-17.263H36.07v16.243h3.357v-16.243zm1.007 17.263h-5.37v-18.283h5.37v18.283zm-21.001 7.459h-3.36v16.24h3.36v-16.24zm1.007 17.262h-5.374V718.25h5.374v18.282zm18.987-17.262H36.07v16.24h3.357v-16.24zm1.007 17.262h-5.37V718.25h5.37v18.282zm5.659-17.262h-3.36v16.24h3.36v-16.24zm1.006 17.262h-5.373V718.25h5.373v18.282zM26.095 575.493h-3.357v16.24h3.357v-16.24zm1.01 17.26h-5.378v-18.28h5.378v18.28zm5.658-17.26h-3.36v16.24h3.36v-16.24zm1.007 17.26h-5.377v-18.28h5.377v18.28zm5.656-17.26H36.07v16.24h3.357v-16.24zm1.007 17.26h-5.37v-18.28h5.37v18.28zm18.99-17.26h-3.36v16.24h3.36v-16.24zm1.007 17.26h-5.377v-18.28h5.377v18.28zm12.32-17.26h-3.36v16.24h3.36v-16.24zm1.008 17.26h-5.374v-18.28h5.374v18.28zm-60.991 2.583h-3.36v16.24h3.36v-16.24zm1.006 17.26H8.4v-18.28h5.374v18.28zm25.653-17.26H36.07v16.24h3.357v-16.24zm1.007 17.26h-5.37v-18.28h5.37v18.28zm12.321-17.26h-3.357v16.24h3.357v-16.24zm1.01 17.26h-5.373v-18.28h5.373v18.28zm-40.997 2.583h-3.36v16.241h3.36v-16.241zm1.006 17.26H8.4v-18.28h5.374v18.28zm18.99-17.26h-3.36v16.241h3.36v-16.241zm1.007 17.26h-5.377v-18.28h5.377v18.28zm25.653-17.26h-3.36v16.241h3.36v-16.241zm1.007 17.26h-5.377v-18.28h5.377v18.28zm-40.998 2.582h-3.36v16.24h3.36v-16.24zm1.007 17.26h-5.374v-18.28h5.374v18.28zm5.656-17.26h-3.357v16.24h3.357v-16.24zm1.01 17.26h-5.378v-18.28h5.378v18.28zm18.987-17.26h-3.36v16.24h3.36v-16.24zm1.006 17.26h-5.373v-18.28h5.373v18.28zm25.652-17.26h-3.36v16.24h3.36v-16.24zm1.008 17.26h-5.374v-18.28h5.374v18.28zm-60.991 2.581h-3.36v16.241h3.36v-16.241zm1.006 17.261H8.4v-18.281h5.374v18.281zm12.322-17.261h-3.357v16.241h3.357v-16.241zm1.01 17.261h-5.378v-18.281h5.378v18.281zm25.649-17.261h-3.357v16.241h3.357v-16.241zm1.01 17.261h-5.373v-18.281h5.373v18.281zm-21.001 2.582h-3.36v16.241h3.36v-16.241zm1.007 17.261h-5.377v-18.281h5.377v18.281zm32.315-17.261h-3.357v16.241h3.357v-16.241zm1.007 17.261h-5.374v-18.281h5.373v18.281zm-54.325 2.582h-3.36v16.243h3.36v-16.243zm1.006 17.263H8.4v-18.283h5.374v18.283zm12.322-17.263h-3.357v16.243h3.357v-16.243zm1.01 17.263h-5.378v-18.283h5.378v18.283zm18.987-17.263h-3.36v16.243h3.36v-16.243zm1.006 17.263h-5.373v-18.283h5.373v18.283zm5.656-17.263h-3.357v16.243h3.357v-16.243zm1.01 17.263h-5.373v-18.283h5.373v18.283zm5.659 7.459h-3.36v16.24h3.36v-16.24zm1.007 17.262h-5.377V718.25h5.377v18.282zm5.655-17.262h-3.357v16.24h3.357v-16.24zm1.007 17.262h-5.374V718.25h5.373v18.282zm-34.329 2.58h-3.36v16.241h3.36v-16.241zm1.007 17.263h-5.377v-18.282h5.377v18.282zM12.767 575.493h-3.36v16.24h3.36v-16.24zm1.006 17.26H8.4v-18.28h5.374v18.28zm5.659-17.26h-3.36v16.24h3.36v-16.24zm1.007 17.26h-5.374v-18.28h5.374v18.28zm-1.007 2.583h-3.36v16.24h3.36v-16.24zm1.007 17.26h-5.374v-18.28h5.374v18.28zm45.646-17.26h-3.357v16.24h3.357v-16.24zm1.007 17.26h-5.374v-18.28h5.373v18.28zm-27.666 2.583H36.07v16.241h3.357v-16.241zm1.007 17.26h-5.37v-18.28h5.37v18.28zm32.317-17.26h-3.36v16.241h3.36v-16.241zm1.008 17.26h-5.374v-18.28h5.374v18.28zm-40.995 2.582h-3.36v16.24h3.36v-16.24zm1.007 17.26h-5.377v-18.28h5.377v18.28zm32.315 2.581h-3.357v16.241h3.357v-16.241zm1.007 17.261h-5.374v-18.281h5.373v18.281zm-47.66 2.582h-3.36v16.241h3.36v-16.241zm1.007 17.261h-5.374v-18.281h5.374v18.281zm18.987-17.261H36.07v16.241h3.357v-16.241zm1.007 17.261h-5.37v-18.281h5.37v18.281zm5.659-17.261h-3.36v16.241h3.36v-16.241zm1.006 17.261h-5.373v-18.281h5.373v18.281zm5.656-17.261h-3.357v16.241h3.357v-16.241zm1.01 17.261h-5.373v-18.281h5.373v18.281zm-34.332 2.582h-3.36v16.243h3.36v-16.243zm1.007 17.263h-5.374v-18.283h5.374v18.283zm38.984-17.263h-3.36v16.243h3.36v-16.243zm1.007 17.263h-5.377v-18.283h5.377v18.283zm-27.667 7.459h-3.36v16.24h3.36v-16.24zm1.007 17.262h-5.377V718.25h5.377v18.282zm-14.338 2.58h-3.36v16.241h3.36v-16.241zm1.007 17.263h-5.374v-18.282h5.374v18.282zm5.656-17.263h-3.357v16.241h3.357v-16.241zm1.01 17.263h-5.378v-18.282h5.378v18.282zm22.292-1.022h3.357v-16.241h-3.357v16.241zm-1.006-17.26h5.373v18.282h-5.373v-18.282zm11.032 1.019h-3.36v16.241h3.36v-16.241zm1.007 17.263h-5.377v-18.282h5.377v18.282zM46.092 575.493h-3.36v16.24h3.36v-16.24zm1.006 17.26h-5.373v-18.28h5.373v18.28zm18.987-17.26h-3.357v16.24h3.357v-16.24zm1.007 17.26h-5.374v-18.28h5.373v18.28zm-34.329 2.583h-3.36v16.24h3.36v-16.24zm1.007 17.26h-5.377v-18.28h5.377v18.28zm38.98-17.26h-3.36v16.24h3.36v-16.24zm1.008 17.26h-5.374v-18.28h5.374v18.28zm-27.666 2.583h-3.36v16.241h3.36v-16.241zm1.006 17.26h-5.373v-18.28h5.373v18.28zm5.656-17.26h-3.357v16.241h3.357v-16.241zm1.01 17.26h-5.373v-18.28h5.373v18.28zm-40.997 2.582h-3.36v16.24h3.36v-16.24zm1.006 17.26H8.4v-18.28h5.374v18.28zm38.981-17.26h-3.357v16.24h3.357v-16.24zm1.01 17.26h-5.373v-18.28h5.373v18.28zm-7.672 2.581h-3.36v16.241h3.36v-16.241zm1.006 17.261h-5.373v-18.281h5.373v18.281zm12.325-17.261h-3.36v16.241h3.36v-16.241zm1.007 17.261h-5.377v-18.281h5.377v18.281zm12.32-17.261h-3.36v16.241h3.36v-16.241zm1.008 17.261h-5.374v-18.281h5.374v18.281zm-47.663 2.582h-3.357v16.241h3.357v-16.241zm1.01 17.261h-5.378v-18.281h5.378v18.281zm38.98 2.582h-3.357v16.243h3.357v-16.243zm1.007 17.263h-5.374v-18.283h5.373v18.283zm5.658-17.263h-3.36v16.243h3.36v-16.243zm1.008 17.263h-5.374v-18.283h5.374v18.283zm-47.663 7.459h-3.357v16.24h3.357v-16.24zm1.01 17.262h-5.378V718.25h5.378v18.282zm25.649-17.262h-3.357v16.24h3.357v-16.24zm1.01 17.262h-5.373V718.25h5.373v18.282zm-14.338 2.58H36.07v16.241h3.357v-16.241zm1.007 17.263h-5.37v-18.282h5.37v18.282zm5.659-17.263h-3.36v16.241h3.36v-16.241zm1.006 17.263h-5.373v-18.282h5.373v18.282zm18.987-17.263h-3.357v16.241h3.357v-16.241zm1.007 17.263h-5.374v-18.282h5.373v18.282zm3.298-257.646v22.875h2.36v-29.163H9.41v29.163h2.36v-22.875c0-.563.45-1.019 1.006-1.019h56.607c.557 0 1.007.456 1.007 1.019zm-1.007 1.02v-1.02H12.776v23.895H8.402v-31.202h65.355v31.202h-4.374v-22.875z"/><path d="M14.289 531.779h53.583V500.26H14.289v31.519zm-1.007.51V499.75c0-.28.224-.51.502-.51h54.593c.278 0 .502.23.502.51v32.539c0 .283-.224.51-.502.51H13.784a.504.504 0 0 1-.502-.51zm42.32-60.378H26.56v17.981h29.043v-17.981zm.502 19.001H26.057a.507.507 0 0 1-.505-.51v-19.001c0-.281.227-.51.505-.51h30.047c.278 0 .505.229.505.51v19.001c0 .283-.227.51-.505.51zm-4.749 43.164H30.588v12.92c0 .105-.03.207-.089.293l-.663.959 5.46.39h16.059v-14.562zm-29.487 27.656l-.625-1.023-3.587 5.205 4.212-4.182zm.78.658l-3.354 3.325 4.186-3.058-.832-.267zm5.061-5.021l-.629.625 1.766.742 4.233-3.093-5.37 1.726zm5.518-4.669l2.409 1.051.058-.021 4.34-3.169-6.807 2.139zm2.258-3.042l-1.87 1.851 5.893-1.851h-4.023zm-3.65 2.191l2.292-2.272-4.16-.296 1.869 2.568zm-5.59 5.543l.729-.721 1.034-5.771-3.147 4.564 1.384 1.928zm-.835 2.257l1.86-.472-.973-.408-.887.88zm5.697-7.079l-1.903-2.621-.983 5.485 2.886-2.864zm-1.8 3.215l4.862-1.562-2.285-.995-2.577 2.557zm-5.075.587v3.017l1.285-1.275-1.264-1.765-.021.023zm-1.007 4.016v-2.552l-1.354 1.96.736 1.204.618-.612zm3.33.023l-2.567.653-.526.517 1.038.332 2.055-1.502zM13.777 570.44c-.014-.018-.031-.036-.042-.054l-.02-.033c-.007-.015-.018-.033-.024-.051l-.014-.038c-.007-.015-.01-.034-.017-.051 0-.013-.004-.026-.004-.039-.003-.018-.007-.035-.007-.056v-.038c0-.018.004-.036.007-.056.004-.01.004-.023.004-.036l.02-.056.01-.033c.008-.02.021-.038.032-.059.003-.007.01-.017.013-.025 0-.003.004-.003.004-.005l15.843-22.974v-13.27c0-.28.223-.51.505-.51h21.77c.282 0 .505.23.505.51v15.582c0 .281-.224.51-.505.51h-8.865l-28.545 20.858c-.004.003-.007.003-.01.008-.011.008-.025.012-.039.02a.24.24 0 0 1-.048.026.157.157 0 0 1-.034.012.227.227 0 0 1-.055.016l-.034.007a.35.35 0 0 1-.059.005h-.034a.233.233 0 0 1-.059-.007c-.01 0-.024-.003-.034-.005-.02-.003-.041-.011-.062-.018-.007-.005-.017-.005-.027-.01-.024-.011-.048-.026-.076-.041 0-.003-.003-.003-.007-.005a.331.331 0 0 1-.069-.059c-.003 0-.003-.002-.003-.002l-.003-.003c-.007-.008-.01-.015-.018-.02z"/></g><defs><clipPath id="clip0"><path fill="#fff" transform="matrix(1 0 0 -1 0 813)" d="M0 0h82.16v358H0z"/></clipPath></defs></svg>