<?xml version="1.0" encoding="utf-8"?><svg viewBox="0 0 53 23" xmlns="http://www.w3.org/2000/svg" xmlns:xlink="http://www.w3.org/1999/xlink"><style>:root>svg{display:none}:root>svg:target{display:block}</style><svg fill="none" viewBox="0 0 16 16" id="about" xmlns="http://www.w3.org/2000/svg"><path d="M8 0C3.606 0 0 3.606 0 8s3.606 8 8 8 8-3.606 8-8-3.606-8-8-8zm.938 12.688H7.062V6.125h1.875v6.563zM8 5.188a.939.939 0 0 1 0-1.875.939.939 0 0 1 0 1.874z" fill="#C4C4C4" opacity=".8"/></svg><svg fill="none" viewBox="0 0 20 11" id="arrow-accordion" xmlns="http://www.w3.org/2000/svg"><path d="M1 1l9 9 9-9" stroke="red"/></svg><svg fill="none" viewBox="0 0 7 12" id="arrow-link" xmlns="http://www.w3.org/2000/svg"><path d="M.792 1.579l4.707 4.51L.792 10.6l.497.519 5.25-5.03-5.25-5.028-.497.518z" fill="#A4A4A4" stroke="#9E9E9E" stroke-width=".3"/></svg><svg fill="none" viewBox="0 0 7 12" id="arrow-link_red" xmlns="http://www.w3.org/2000/svg"><path d="M.793 1.579L5.5 6.089.793 10.6l.497.519 5.25-5.03-5.25-5.028-.497.518z" fill="#FF0014" stroke="#FF0014" stroke-width=".3"/></svg><svg fill="none" viewBox="0 0 30 12" id="arrow-next" xmlns="http://www.w3.org/2000/svg"><path d="M28.691 6h-28" stroke="#FF0014"/><path d="M23.691 1l5 5-5 5" stroke="red"/></svg><svg fill="none" viewBox="0 0 24 10" id="arrow-next_grey" xmlns="http://www.w3.org/2000/svg"><path d="M22.4 5H0M18.4 1l4 4-4 4" stroke="#CCD1D3"/></svg><svg fill="none" viewBox="0 0 53 23" id="arrow-slider" xmlns="http://www.w3.org/2000/svg"><path d="M10.951 1L1 11.5 10.951 22M52.002 11.5H10.953" stroke="#8F9294"/></svg><svg fill="none" viewBox="0 0 53 23" id="arrow-slider_hover" xmlns="http://www.w3.org/2000/svg"><path d="M10.951 1L1 11.5 10.951 22M52.002 11.5H10.953" stroke="#FF0014"/></svg><svg fill="none" viewBox="0 0 15 15" id="calendar" xmlns="http://www.w3.org/2000/svg"><g clip-path="url(#iclip0)" fill="#FF2132"><path d="M5.46 9.05H3.17v2.293h2.292V9.05zM8.63 12.22H6.338v2.293H8.63V12.22zM2.292 12.22H0v2.293h2.292V12.22zM8.63 9.05H6.338v2.293H8.63V9.05zM5.46 5.883H3.17v2.292h2.292V5.883zM2.292 9.05H0v2.293h2.292V9.05zM5.46 12.22H3.17v2.293h2.292V12.22zM2.292 5.883H0v2.292h2.292V5.883zM8.63 5.883H6.338v2.292H8.63V5.883zM14.968 5.883h-2.292v2.292h2.292V5.883zM11.573 1.507v1.051h-.877V1.507H4.272v1.051h-.877V1.507H0v3.499h14.968v-3.5h-3.395zM11.799 12.22H9.507v2.293h2.292V12.22zM14.968 9.05h-2.292v2.293h2.292V9.05zM14.968 12.22h-2.292v2.293h2.292V12.22zM11.799 5.883H9.507v2.292h2.292V5.883zM11.799 9.05H9.507v2.293h2.292V9.05z"/><path d="M4.272.455h-.877v1.052h.877V.455zM11.573.455h-.877v1.052h.877V.455z"/></g><defs><clipPath id="iclip0"><path fill="#fff" d="M0 0h14.968v14.968H0z"/></clipPath></defs></svg><svg fill="none" viewBox="0 0 16 16" id="contacts" xmlns="http://www.w3.org/2000/svg"><path d="M15.37 2.813H.63L8 8.591l7.37-5.78z" fill="#C4C4C4"/><path d="M8 9.784L0 3.51v9.693h16V3.51L8 9.784z" fill="#C4C4C4"/></svg><svg fill="none" viewBox="0 0 8 18" id="fb" xmlns="http://www.w3.org/2000/svg"><path d="M7.561 8.526H5.226v8.57H1.68v-8.57H0V5.52h1.68V3.587A3.36 3.36 0 0 1 5.26.007h2.62v2.924H5.973a.723.723 0 0 0-.756.84V5.52h2.647L7.56 8.526z" fill="#fff"/></svg><svg fill="none" viewBox="0 0 16 16" id="info" xmlns="http://www.w3.org/2000/svg"><g clip-path="url(#lclip0)" fill="#C4C4C4"><path d="M9.636 2.363a1.09 1.09 0 0 0-1.091 1.091v9.091c0-.602.488-1.09 1.09-1.09h4.183V2.362H9.636zM6.363 2.363H2.182v9.091h4.181c.603 0 1.091.489 1.091 1.091v-9.09a1.09 1.09 0 0 0-1.09-1.092z"/><path d="M14.91 3.455v9.091h-4.182a1.09 1.09 0 0 0-1.091 1.09H16V3.457h-1.09zM5.273 12.546H1.09v-9.09H0v10.18h6.364c0-.601-.489-1.09-1.091-1.09z"/></g><defs><clipPath id="lclip0"><path fill="#fff" d="M0 0h16v16H0z"/></clipPath></defs></svg><svg fill="none" viewBox="0 0 17 17" id="inst" xmlns="http://www.w3.org/2000/svg"><path d="M12.165 0H4.638A4.65 4.65 0 0 0 0 4.638v7.527a4.643 4.643 0 0 0 4.638 4.637h7.527a4.643 4.643 0 0 0 4.637-4.637V4.638C16.792 2.085 14.717 0 12.165 0zm3.138 12.165a3.149 3.149 0 0 1-3.148 3.148H4.638a3.149 3.149 0 0 1-3.148-3.148V4.638A3.149 3.149 0 0 1 4.638 1.49h7.527a3.149 3.149 0 0 1 3.148 3.148l-.01 7.527z" fill="#fff"/><path d="M15.353 12.185V4.608a3.17 3.17 0 0 0-3.168-3.168H4.608A3.17 3.17 0 0 0 1.44 4.608v7.577a3.17 3.17 0 0 0 3.168 3.168h7.577a3.17 3.17 0 0 0 3.168-3.168zm-6.951.785a4.569 4.569 0 1 1 4.568-4.568 4.581 4.581 0 0 1-4.568 4.568zm5.313-8.322a1.09 1.09 0 0 1-.775.318 1.1 1.1 0 0 1-1.102-1.092c0-.289.119-.577.327-.775a1.09 1.09 0 0 1 .775-.318c.288 0 .576.12.775.318.208.208.317.486.317.774.01.288-.109.566-.317.775z" fill="#fff"/><path d="M8.37 11.104c-1.5 0-2.731-1.221-2.731-2.73 0-1.5 1.231-2.731 2.73-2.731 1.5 0 2.732 1.231 2.732 2.73a2.73 2.73 0 0 1-2.731 2.731z" fill="#fff"/></svg><svg fill="none" viewBox="0 0 16 16" id="mail" xmlns="http://www.w3.org/2000/svg"><path d="M15.5 2H.5a.5.5 0 0 0-.5.5v11a.5.5 0 0 0 .5.5h15a.5.5 0 0 0 .5-.5v-11a.5.5 0 0 0-.5-.5zm-1.425 1L8 7.86 1.925 3h12.15zM15 13H1V3.54l6.688 5.35a.498.498 0 0 0 .625 0L15 3.54V13z" fill="#fff"/></svg><svg fill="none" viewBox="0 0 16 16" id="news" xmlns="http://www.w3.org/2000/svg"><path d="M6.116 3.426L3.64 8.998l3.363 3.363 5.572-2.476-6.46-6.46zM3.128 9.812L.634 12.305A2.15 2.15 0 0 0 0 13.835c0 .579.225 1.122.634 1.53a2.15 2.15 0 0 0 1.53.635 2.15 2.15 0 0 0 1.53-.634l1.167-1.167 1.8 1.8 1.327-1.327-4.86-4.86zM14.036 1.964A6.663 6.663 0 0 0 9.294 0v.938a5.775 5.775 0 0 1 5.769 5.768H16a6.663 6.663 0 0 0-1.964-4.742z" fill="#C4C4C4"/><path d="M9.294 1.875v.938a3.898 3.898 0 0 1 3.894 3.893h.937a4.837 4.837 0 0 0-4.831-4.831z" fill="#C4C4C4"/><path d="M11.313 6.706h.937A2.96 2.96 0 0 0 9.294 3.75v.938c1.113 0 2.019.905 2.019 2.018z" fill="#C4C4C4"/></svg><svg fill="none" viewBox="0 0 20 20" id="services" xmlns="http://www.w3.org/2000/svg"><g clip-path="url(#pclip0)" fill="#CCD1D3"><path d="M0 3.516h11.806v7.223H0V3.516zM17.483 7.723L16.47 5.317H12.98v2.406h4.504zM12.979 15.26h1.14a2.4 2.4 0 0 1 2.397-2.399 2.4 2.4 0 0 1 2.398 2.398H20v-3.396H18.21v-1.172h1.74a2.504 2.504 0 0 0-1.477-1.795h-5.494v6.363zM0 15.258h1.087a2.4 2.4 0 0 1 2.397-2.397 2.4 2.4 0 0 1 2.398 2.397h5.924v-3.347H0v3.348z"/><path d="M3.484 14.032c-.676 0-1.226.55-1.226 1.226 0 .676.55 1.226 1.226 1.226.676 0 1.225-.55 1.225-1.226 0-.676-.55-1.226-1.225-1.226zM16.517 14.032c-.676 0-1.226.55-1.226 1.226 0 .676.55 1.226 1.226 1.226.676 0 1.226-.55 1.226-1.226 0-.676-.55-1.226-1.226-1.226z"/></g><defs><clipPath id="pclip0"><path fill="#fff" d="M0 0h20v20H0z"/></clipPath></defs></svg><svg fill="none" viewBox="0 0 16 16" id="vacancies" xmlns="http://www.w3.org/2000/svg"><g opacity=".8" clip-path="url(#qclip0)" fill="#C4C4C4"><path d="M12.184 7.369a2.105 2.105 0 1 0 0-4.21 2.105 2.105 0 0 0 0 4.21zM4.804 8.966A4.805 4.805 0 0 0 0 13.77h9.609a4.805 4.805 0 0 0-4.805-4.804zM12.184 8.799a3.8 3.8 0 0 0-2.573.999 6.173 6.173 0 0 1 1.322 2.817H16a3.816 3.816 0 0 0-3.816-3.816zM4.804 7.534a2.65 2.65 0 1 0 0-5.302 2.65 2.65 0 0 0 0 5.302z"/></g><defs><clipPath id="qclip0"><path fill="#fff" d="M0 0h16v16H0z"/></clipPath></defs></svg><svg fill="none" viewBox="0 0 22 13" id="vk" xmlns="http://www.w3.org/2000/svg"><path d="M18.36 7.96a29.52 29.52 0 0 1 2.09 2.166 6.2 6.2 0 0 1 .75 1.117c.29.576 0 1.212-.475 1.246h-3.106a2.331 2.331 0 0 1-1.09-.187c-.343-.15-.649-.38-.892-.672-.433-.456-.832-.937-1.24-1.401a2.972 2.972 0 0 0-.558-.516.642.642 0 0 0-.581-.148.643.643 0 0 0-.274.146.671.671 0 0 0-.178.26c-.218.466-.33.978-.324 1.495 0 .757-.259.955-.991.989a7.755 7.755 0 0 1-4.447-.989A9.934 9.934 0 0 1 4.055 8.58 39.334 39.334 0 0 1 .108 1.34C-.142.774.042.481.65.481h3.039c.187.005.37.07.519.188.15.117.259.28.313.466A19.67 19.67 0 0 0 6.578 5.08c.211.331.476.622.783.86a.46.46 0 0 0 .719.01c.06-.07.1-.158.113-.25a2.81 2.81 0 0 0 .175-.86c.093-.965.077-1.937-.05-2.897a1.231 1.231 0 0 0-.31-.735 1.163 1.163 0 0 0-.689-.374c-.3-.06-.258-.172-.108-.343.106-.157.249-.284.414-.37.166-.085.35-.127.535-.12h3.514c.55.111.674.37.75.945V4.97c0 .223.107.86.49 1.031.383.172.517-.155.7-.352a12.543 12.543 0 0 0 1.982-3.138c.241-.498.44-1.014.64-1.53a.78.78 0 0 1 .316-.44.739.739 0 0 1 .517-.118h3.381c.1-.009.2-.009.3 0 .566.103.724.352.55.928a8.78 8.78 0 0 1-1.341 2.407c-.567.808-1.166 1.581-1.724 2.39-.558.807-.474 1.108.167 1.718l-.042.095z" fill="#fff"/></svg></svg>