<svg width="64" height="64" fill="none" xmlns="http://www.w3.org/2000/svg"><path d="M64 15H41.375v-3.75c0-4.136-3.364-7.5-7.5-7.5H3.75V0H0v64h3.75V41.25h18.875V45c0 4.136 3.364 7.5 7.5 7.5H64v-2.4l-7.32-16.35L64 17.4V15zM33.875 48.75h-3.75a3.754 3.754 0 0 1-3.75-3.75v-3.75h7.5a3.754 3.754 0 0 1 3.75 3.75 3.754 3.754 0 0 1-3.75 3.75zm3.75-10.241a7.45 7.45 0 0 0-3.75-1.009H3.75v-30h30.125a3.754 3.754 0 0 1 3.75 3.75v27.259zm14.946-4.759l6.716 15H40.366A7.45 7.45 0 0 0 41.375 45V18.75h17.912l-6.716 15z" fill="#FF0014"/></svg>