<svg width="64" height="64" fill="none" xmlns="http://www.w3.org/2000/svg"><path d="M59.353 31.01c-.13-.59-.3-1.17-.506-1.734L64 22.226l-.86-1.148a21.466 21.466 0 0 0-3.738-3.871 21.577 21.577 0 0 0-13.468-4.74h-4.23v-1.942a5.829 5.829 0 0 0-5.823-5.822c-1.49 0-2.85.563-3.88 1.487a5.798 5.798 0 0 0-3.882-1.487 5.829 5.829 0 0 0-5.822 5.822v1.941h-4.23a21.584 21.584 0 0 0-13.47 4.74A21.473 21.473 0 0 0 .86 21.079L0 22.227l5.153 7.05a13.622 13.622 0 0 0-.506 1.733L2.091 42.594a13.678 13.678 0 0 0 2.707 11.568 13.678 13.678 0 0 0 10.712 5.134h32.98c4.186 0 8.09-1.871 10.712-5.134a13.677 13.677 0 0 0 2.707-11.568L59.353 31.01zM35.881 8.584c1.07 0 1.941.87 1.941 1.941v1.941h-3.881v-1.948a1.943 1.943 0 0 1 1.94-1.934zm-9.703 1.941a1.941 1.941 0 0 1 3.881-.007v1.948h-3.88v-1.941zM4.862 22.302a17.535 17.535 0 0 1 2.166-2.07 17.684 17.684 0 0 1 11.038-3.885h27.868c4 0 7.92 1.38 11.038 3.885a17.518 17.518 0 0 1 2.166 2.07l-2.363 3.232a13.7 13.7 0 0 0-2.234-2.276 13.789 13.789 0 0 0-8.607-3.03H18.066a13.789 13.789 0 0 0-8.607 3.03 13.704 13.704 0 0 0-2.234 2.276l-2.363-3.232zM56.177 51.73a9.815 9.815 0 0 1-7.687 3.684H15.51a9.815 9.815 0 0 1-7.686-3.684 9.815 9.815 0 0 1-1.943-8.3l2.556-11.585a9.895 9.895 0 0 1 3.453-5.563 9.895 9.895 0 0 1 6.176-2.174h27.868c2.238 0 4.431.772 6.176 2.174a9.893 9.893 0 0 1 3.453 5.563l2.556 11.584a9.814 9.814 0 0 1-1.942 8.3z" fill="#FF0014"/></svg>