<svg width="64" height="64" fill="none" xmlns="http://www.w3.org/2000/svg"><g clip-path="url(#clip0)"><path d="M54.628 9.373C48.584 3.329 40.548 0 32.001 0 23.453 0 15.417 3.329 9.373 9.373 3.33 15.417.001 23.453.001 32c0 8.548 3.328 16.584 9.372 22.628C15.417 60.672 23.453 64 32.001 64c8.547 0 16.583-3.328 22.627-9.373 6.044-6.043 9.373-14.08 9.373-22.627 0-8.547-3.329-16.583-9.373-22.627zm-10.162-.16c.458-.449.924-.906 1.358-1.356a27.975 27.975 0 0 1 5.006 3.674l-.023.03c-.276-.026-.648-.148-1.04-.277-.76-.25-1.707-.559-2.803-.471-1.069.086-1.966.527-2.686.882-.334.164-.889.437-1.08.438-.194-.093-.598-.61-.76-.817.5-.604 1.276-1.365 2.028-2.103zM23.22 5.595c.497 1.515 1.064 2.946 1.62 4.307.455 1.119.973 2.386.867 3.425-.043.421-.117.627-.153.707-.186.06-.63.096-.933.122-.953.08-2.258.188-3.466 1.036-.237.166-.45.333-.655.493-.347.271-.706.551-.931.615-.223.062-.67.011-1.1-.038-.318-.036-.678-.077-1.058-.09-1.164-.039-4.009.456-5.366 2.229a3.38 3.38 0 0 0-.567 3.115c.248.812.77 1.365 1.198 1.757 1.868 1.713 4.428 2.925 7.024 3.327.362.056.707.098 1.04.139 1.801.22 2.309.367 2.773 1.203.14.254.267.588.4.942.168.443.357.945.633 1.45.889 1.631 2.422 2.588 3.998 2.497 1.173-.068 2.009-.659 2.62-1.09.213-.15.433-.307.563-.36.247-.104.84.005 1.563.486.704.47 1.187 1.016 1.36 1.539.124.378.043.809-.122.948l-3.822 3.264c-.983.84-2.811 2.401-2.868 4.759-.016.678.115 1.289.23 1.828.023.104.05.23.074.353-.358.088-.796.2-1.253.43-2.321 1.173-2.53 3.845-2.654 5.442-.037.467-.13.829-.224 1.076a1.546 1.546 0 0 1-.133-.342c-.09-.35-.135-.773-.183-1.222-.08-.731-.169-1.56-.477-2.415-.396-1.1-1.055-1.964-1.636-2.726-.505-.664-.942-1.237-1.067-1.767-.095-.398-.05-.961-.003-1.558.072-.904.154-1.93-.15-3.032-.43-1.569-1.441-2.63-2.333-3.566-.505-.53-.982-1.03-1.235-1.514-.254-.483-.236-1.001-.181-1.875.052-.837.116-1.878-.255-2.966-.403-1.18-1.316-1.833-1.928-2.272a31.382 31.382 0 0 1-4.475-3.894c-.679-.715-1.339-1.485-1.574-2.276a23.23 23.23 0 0 1-.16-.566c-.142-.517-.263-.84-.467-1.153 3.368-5.964 8.872-10.569 15.466-12.767zM32 59.826C16.658 59.826 4.176 47.343 4.176 32c0-2.956.465-5.806 1.323-8.48.445.637.948 1.204 1.431 1.711a35.593 35.593 0 0 0 5.079 4.42c.135.097.328.235.429.326.069.307.041.75.01 1.254-.066 1.068-.157 2.531.65 4.071.525 1.003 1.261 1.775 1.91 2.456.633.664 1.179 1.236 1.331 1.792.11.396.063.979.014 1.596-.068.85-.144 1.813.1 2.85.33 1.392 1.117 2.424 1.81 3.335.438.574.85 1.116 1.03 1.613.138.383.194.9.253 1.446.06.548.126 1.17.29 1.81.49 1.916 2.082 3.756 4.229 3.755.114 0 .23-.005.348-.015 2.223-.204 3.75-2.19 3.984-5.185.038-.485.138-1.763.385-2.045.076-.03.263-.076.401-.11.588-.144 1.477-.361 2.211-1.113 1.352-1.385.98-3.122.757-4.159-.067-.312-.143-.667-.14-.851.013-.495 1.025-1.36 1.407-1.685l3.814-3.258c1.485-1.256 2.04-3.44 1.383-5.436-.47-1.425-1.51-2.706-3.01-3.705-1.848-1.232-3.846-1.548-5.482-.866-.556.231-1.006.55-1.367.804a9.7 9.7 0 0 1-.37.254 1.327 1.327 0 0 1-.174-.249c-.138-.252-.261-.58-.392-.926-.172-.456-.368-.974-.656-1.494-1.546-2.786-4.072-3.095-5.915-3.32a29.1 29.1 0 0 1-.91-.121 9.745 9.745 0 0 1-4.343-1.86c.444-.16.987-.282 1.28-.271.21.007.459.035.721.065.753.086 1.69.193 2.7-.09 1.018-.286 1.77-.873 2.373-1.345.173-.134.335-.261.485-.366.283-.199.832-.245 1.414-.293 1.45-.121 4.465-.373 4.892-4.566.21-2.074-.547-3.931-1.156-5.424-.506-1.241-.998-2.473-1.426-3.749A27.935 27.935 0 0 1 32 4.174c3.454 0 6.763.635 9.817 1.79l-.274.27c-.928.91-1.887 1.85-2.547 2.705-.28.361-.747.966-.884 1.836-.234 1.478.65 2.613 1.027 3.097.56.72 1.499 1.926 3.049 2.313.346.086.68.123 1.001.123 1.168 0 2.162-.489 2.932-.868.444-.219.902-.445 1.176-.467.261-.021.722.13 1.168.277.652.214 1.39.456 2.26.488.053.002.105.002.157.002 1.08 0 2.04-.411 2.8-1.159a27.83 27.83 0 0 1 4.39 7.696c-.149.004-.3.006-.435.008a20.99 20.99 0 0 0-1.378.05c-1.166.09-2.079-.249-3.235-.678-.794-.294-1.694-.627-2.748-.837-2.843-.565-5.76.985-7.43 3.949-.486.863-2.812 5.306-.832 8.032.742 1.022 1.734 1.617 2.532 2.095 1.07.642 2.178 1.305 3.431 1.811.267.108.532.206.787.3.76.28 1.547.571 1.829.956.157.216.322.702.21 1.79-.076.73-.367 1.524-.676 2.365-.76 2.074-1.801 4.913.639 7.701.437.5.93.922 1.464 1.266-5.077 5.379-12.268 8.741-20.23 8.741zm21.908-12.755c-.715-.817-.62-1.447.139-3.515.365-.997.78-2.127.908-3.374.202-1.96-.122-3.492-.992-4.681-1.024-1.402-2.537-1.96-3.752-2.41a22.98 22.98 0 0 1-.671-.254c-.95-.384-1.872-.936-2.847-1.52-.5-.3-1.017-.61-1.27-.928-.149-.513.28-2.187 1.06-3.571.63-1.117 1.795-2.14 2.98-1.904.729.145 1.4.394 2.111.657 1.372.509 2.927 1.085 5.006.925.371-.028.747-.033 1.11-.037.516-.007 1.041-.014 1.564-.09.375 1.82.573 3.703.573 5.631 0 5.857-1.82 11.296-4.923 15.784a2.606 2.606 0 0 1-.996-.713z" fill="#FF0014"/></g><defs><clipPath id="clip0"><path fill="#fff" d="M0 0h64v64H0z"/></clipPath></defs></svg>