<svg width="64" height="64" fill="none" xmlns="http://www.w3.org/2000/svg"><g clip-path="url(#clip0)" fill="#FF0014"><path d="M52.33 34.995l4.248-4.182-2.018-5.609 2.018-5.608-4.248-4.182-.625-5.926-5.639-1.923L42.94 2.49l-5.918.715L31.999 0l-5.021 3.205-5.919-.715-3.127 5.075-5.639 1.923-.625 5.926-4.248 4.182 2.018 5.608-2.018 5.608 4.248 4.183.625 5.926 3.131 1.068-5.366 16.772 9.186-.505L26.432 64l4.555-14.237 1.012.646 1.012-.646L37.566 64l7.188-5.744 9.186.505-5.366-16.772 3.13-1.068.626-5.926zm-27.812 22.67l-4.05-3.235-5.175.285 3.402-10.633 2.364 3.836 5.918-.714.737.47-3.196 9.992zM43.53 54.43l-4.05 3.236-3.196-9.992.737-.47 5.918.714 2.364-3.836 3.402 10.633-5.175-.285zm4.694-16.287l-4.646 1.584-2.574 4.177-4.869-.588L32 45.956l-4.136-2.64-4.869.588-2.574-4.177-4.646-1.584-.514-4.88-3.495-3.44 1.662-4.619-1.662-4.618 3.495-3.44.514-4.88 4.646-1.584 2.574-4.177 4.869.587L32 4.452l4.136 2.64 4.87-.587 2.573 4.177 4.646 1.584.515 4.88 3.495 3.44-1.662 4.619 1.661 4.618-3.494 3.44-.515 4.88z"/><path d="M32 10.6c-8.053 0-14.605 6.552-14.605 14.605 0 8.054 6.552 14.606 14.605 14.606s14.605-6.552 14.605-14.606C46.605 17.152 40.054 10.6 32 10.6zm0 25.457c-5.984 0-10.852-4.868-10.852-10.852S26.016 14.353 32 14.353s10.852 4.868 10.852 10.852S37.984 36.057 32 36.057z"/></g><defs><clipPath id="clip0"><path fill="#fff" d="M0 0h64v64H0z"/></clipPath></defs></svg>