<svg width="75" height="37" fill="none" xmlns="http://www.w3.org/2000/svg"><path d="M11.48 36.48c3.312 0 5.952-1.008 7.92-2.976 2.064-1.968 3.264-5.088 3.264-9.168V1.056H17.96v23.28c0 5.232-2.736 7.92-6.432 7.92-3.456 0-5.616-1.68-7.728-4.752L.584 30.48c2.304 3.456 5.616 6 10.896 6zM33.406 36h4.656V1.056h-4.656V36zm24.92 0h4.608V5.328h11.568V1.056H46.758v4.272h11.568V36z" fill="#FF0014"/><path d="M19.4 33.504l-.138-.145-.003.004.141.141zm3.264-32.448h.2v-.2h-.2v.2zm-4.704 0v-.2h-.2v.2h.2zM3.8 27.504l.165-.113-.131-.19-.17.156.136.147zM.584 30.48l-.136-.147-.125.116.095.142.166-.111zm10.896 6.2c3.355 0 6.05-1.023 8.061-3.035l-.282-.282c-1.925 1.924-4.51 2.917-7.779 2.917v.4zm8.058-3.031c2.115-2.017 3.326-5.196 3.326-9.313h-.4c0 4.043-1.189 7.104-3.202 9.023l.276.29zm3.326-9.313V1.056h-.4v23.28h.4zm-.2-23.48H17.96v.4h4.704v-.4zm-4.904.2v23.28h.4V1.056h-.4zm0 23.28c0 2.583-.675 4.511-1.781 5.791-1.104 1.277-2.654 1.929-4.451 1.929v.4c1.9 0 3.565-.692 4.753-2.067 1.186-1.372 1.879-3.404 1.879-6.053h-.4zm-6.232 7.72c-1.692 0-3.058-.41-4.259-1.192-1.205-.784-2.255-1.948-3.304-3.473l-.33.226c1.063 1.547 2.149 2.758 3.416 3.583 1.27.826 2.713 1.256 4.477 1.256v-.4zm-7.864-4.699L.448 30.333l.272.294 3.216-2.976-.272-.294zM.418 30.591c2.332 3.498 5.7 6.089 11.062 6.089v-.4c-5.199 0-8.454-2.497-10.73-5.91l-.332.22zM33.406 36h-.2v.2h.2V36zm4.656 0v.2h.2V36h-.2zm0-34.944h.2v-.2h-.2v.2zm-4.656 0v-.2h-.2v.2h.2zm0 35.144h4.656v-.4h-4.656v.4zm4.856-.2V1.056h-.4V36h.4zm-.2-35.144h-4.656v.4h4.656v-.4zm-4.856.2V36h.4V1.056h-.4zM58.326 36h-.2v.2h.2V36zm4.608 0v.2h.2V36h-.2zm0-30.672v-.2h-.2v.2h.2zm11.568 0v.2h.2v-.2h-.2zm0-4.272h.2v-.2h-.2v.2zm-27.744 0v-.2h-.2v.2h.2zm0 4.272h-.2v.2h.2v-.2zm11.568 0h.2v-.2h-.2v.2zm0 30.872h4.608v-.4h-4.608v.4zm4.808-.2V5.328h-.4V36h.4zm-.2-30.472h11.568v-.4H62.934v.4zm11.768-.2V1.056h-.4v4.272h.4zm-.2-4.472H46.758v.4h27.744v-.4zm-27.944.2v4.272h.4V1.056h-.4zm.2 4.472h11.568v-.4H46.758v.4zm11.368-.2V36h.4V5.328h-.4z" fill="#FF0014"/></svg>