<svg width="64" height="64" fill="none" xmlns="http://www.w3.org/2000/svg"><path d="M12.024 12.024C17.36 6.69 24.454 3.75 32 3.75a28.19 28.19 0 0 1 16.041 4.996l-3.622.371.383 3.73 9.75-1-1-9.75-3.73.383.324 3.162A31.94 31.94 0 0 0 32 0C23.453 0 15.417 3.329 9.373 9.373 3.329 15.417 0 23.453 0 32a31.845 31.845 0 0 0 5.445 17.862l3.11-2.096-.127-.193A28.107 28.107 0 0 1 3.75 32c0-7.546 2.939-14.64 8.274-19.976zm46.53 2.115l-3.11 2.095c.043.064.085.13.128.193a28.108 28.108 0 0 1 4.677 15.574c0 7.545-2.938 14.64-8.274 19.975-5.336 5.336-12.43 8.275-19.976 8.275-5.77 0-11.35-1.756-16.041-4.996l3.622-.372-.383-3.73-9.75 1 1 9.75 3.73-.383-.323-3.161A31.94 31.94 0 0 0 31.998 64c8.548 0 16.584-3.33 22.628-9.373 6.044-6.044 9.372-14.08 9.372-22.627a31.844 31.844 0 0 0-5.445-17.862z" fill="#FF0014"/><path d="M15.622 35.935l2.427-2.244c1.84-1.692 2.189-2.832 2.189-4.083 0-2.39-2.042-3.917-5.002-3.917-2.538 0-4.359 1.067-5.334 2.685l2.704 1.508c.515-.827 1.36-1.25 2.299-1.25 1.103 0 1.655.496 1.655 1.324 0 .533-.147 1.122-1.177 2.078l-4.819 4.506v2.28h10.023v-2.887h-4.965zm16.535.423h1.912v-2.887h-1.913v-2.188h-3.438v2.188h-2.612l5.241-7.522h-3.77l-5.774 8.037v2.372h6.804v2.464h3.55v-2.464zm5.221 4.305l6.069-17.323h-3.108L34.27 40.663h3.108zm9.16-9.84v-1.986h3.383l-4.34 9.985h3.973l4.542-10.592v-2.28H43.43v4.873h3.108z" fill="#FF0014"/></svg>