<svg width="64" height="64" fill="none" xmlns="http://www.w3.org/2000/svg"><g clip-path="url(#clip0)" fill="#FF0014"><path d="M57.581 64H6.416V0h51.165v64zm-47.413-3.752H53.83V3.752H10.17v56.496z"/><path d="M18.725 23.003l-4.855-7.032 3.087-2.132 1.755 2.542 3.87-5.652 3.095 2.119-6.952 10.155zm0 15.01l-4.855-7.032 3.087-2.132 1.755 2.542 3.87-5.653 3.095 2.12-6.952 10.155zm0 15.008l-4.855-7.032 3.087-2.132 1.755 2.541 3.87-5.652 3.095 2.12-6.952 10.155zm29.86-39.158H29.367v3.752h19.218v-3.752zm0 15.008H29.367v3.752h19.218V28.87zm0 15.008H29.367v3.752h19.218v-3.752z"/></g><defs><clipPath id="clip0"><path fill="#fff" d="M0 0h64v64H0z"/></clipPath></defs></svg>