<svg width="64" height="64" fill="none" xmlns="http://www.w3.org/2000/svg"><g clip-path="url(#clip0)"><path d="M60.25 32.998v-4.873C60.25 12.617 47.577 0 32 0S3.75 12.617 3.75 28.125v4.873A11.224 11.224 0 0 0 0 41.375c0 6.24 5.053 11.375 11.25 11.375H15V28.125c0-9.305 7.626-16.875 17-16.875 9.374 0 17 7.57 17 16.875V52.75h3.75v3.75H41.375v-3.75h-15V64h15v-3.75H56.5v-8.152C60.797 50.55 64 46.35 64 41.375c0-3.324-1.45-6.316-3.75-8.377zM37.625 60.25h-7.5V56.5h7.5v3.75zM11.25 49c-4.136 0-7.5-3.42-7.5-7.625 0-4.136 3.364-7.5 7.5-7.5V49zM32 7.5c-11.374 0-20.75 9.232-20.75 20.625v2c-1.314 0-2.577.227-3.75.644v-2.644C7.5 14.685 18.49 3.75 32 3.75s24.5 10.935 24.5 24.375v2.644a11.198 11.198 0 0 0-3.75-.644v-2C52.75 16.75 43.393 7.5 32 7.5zM52.75 49V33.875c4.136 0 7.5 3.364 7.5 7.5 0 4.205-3.364 7.625-7.5 7.625z" fill="#FF0014"/></g><defs><clipPath id="clip0"><path fill="#fff" d="M0 0h64v64H0z"/></clipPath></defs></svg>