<svg width="898" height="211" fill="none" xmlns="http://www.w3.org/2000/svg"><path fill-rule="evenodd" clip-rule="evenodd" d="M863.961 64.799H832.32c-.923 0-1.678.75-1.678 1.667v29.605c.001 1.113.421 1.65 1.244 1.637l28.211 5.854 3.864.802c.903.186 1.522 1.209 1.524 2.126l.002 1.767h.002v2.065l.012 10.838c-.008.659.253 1.001.811.993l15.901-.036a1.679 1.679 0 0 0 1.679-1.666v-14.39l-7.706-28.758v-.112l-2.968-10.725c-.244-.884-.756-1.667-1.678-1.667h-7.579zm-108.975 84.516H1V1h753.986v148.315z" fill="#F1F3F6" stroke="#000" stroke-miterlimit="22.926"/><path fill-rule="evenodd" clip-rule="evenodd" d="M751.747 146.095H4.24V4.22h747.507v141.875zm30.695-115.369h71.511c6.107 0 14.678 5.433 17.03 11.032l7.041 16.758-2.074.4 13.403 46.313h1.798c1.395.005 2.09.605 2.046 1.836v35.826c0 1.701-1.4 3.051-3.11 3.051h-32.366c-3.208-6.107-12.115-9.192-19.748-9.192h-55.531V30.726z" fill="#F1F3F6" stroke="#000" stroke-miterlimit="22.926"/><path fill-rule="evenodd" clip-rule="evenodd" d="M827.866 136.827V62.669a1.85 1.85 0 0 1 1.85-1.839h43.253c1.017 0 1.57.869 1.85 1.839l12.588 43.667v37.768a1.85 1.85 0 0 1-1.851 1.838h-28.009" fill="#F1F3F6"/><path d="M827.866 136.827V62.669a1.85 1.85 0 0 1 1.85-1.839h43.253c1.017 0 1.57.869 1.85 1.839l12.588 43.667v37.768a1.85 1.85 0 0 1-1.851 1.838h-28.009" stroke="#000" stroke-miterlimit="22.926"/><path fill-rule="evenodd" clip-rule="evenodd" d="M857.719 145.942c4.806 8.152 7.387 21.546 7.76 39.897l-7.76-39.897z" fill="#F1F3F6"/><path d="M857.719 145.942c4.806 8.152 7.387 21.546 7.76 39.897" stroke="#000" stroke-miterlimit="22.926"/><path fill-rule="evenodd" clip-rule="evenodd" d="M861.019 185.846c.099-4.606-.312-10.939-1.234-18.997-3.336-15.757-12.539-23.163-27.612-22.217-32.804.103-49.73.154-49.73.154v-8.037" fill="#F1F3F6"/><path d="M861.019 185.846c.099-4.606-.312-10.939-1.234-18.997-3.336-15.757-12.539-23.163-27.612-22.217-32.804.103-49.73.154-49.73.154v-8.037" stroke="#000" stroke-miterlimit="22.926"/><path fill-rule="evenodd" clip-rule="evenodd" d="M890.154 150.87h2.016c2.443 0 4.442 1.986 4.442 4.412v1.174h-3.547v8.428h3.547v16.653c0 2.428-1.999 4.415-4.442 4.415h-2.016V150.87z" fill="#F1F3F6" stroke="#000" stroke-miterlimit="22.926"/><path fill-rule="evenodd" clip-rule="evenodd" d="M895.604 164.781h-2.721v-8.427h2.721v8.427z" fill="#F1F3F6" stroke="#000" stroke-miterlimit="22.926"/><path fill-rule="evenodd" clip-rule="evenodd" d="M857.723 145.943l32.432-.007v39.911l-24.672-.007" fill="#F1F3F6"/><path d="M857.723 145.943l32.432-.007v39.911l-24.672-.007" stroke="#000" stroke-miterlimit="22.926"/><path fill-rule="evenodd" clip-rule="evenodd" d="M890.155 185.847h-24.739v-2.548h24.739v2.548zm0-19.955h-26.23l.368 2.624h25.862v-2.624z" fill="#F1F3F6" stroke="#000" stroke-miterlimit="22.926"/><path fill-rule="evenodd" clip-rule="evenodd" d="M816.487 144.682c-11.388 5.177-17.609 21.981-18.665 50.417a61.822 61.822 0 0 1-3.856-.153" fill="#F1F3F6"/><path d="M816.487 144.682c-11.388 5.177-17.609 21.981-18.665 50.417a61.822 61.822 0 0 1-3.856-.153" stroke="#000" stroke-miterlimit="22.926"/><path fill-rule="evenodd" clip-rule="evenodd" d="M805.096 144.684c-8.321 8.986-12.049 25.763-11.132 50.261l11.132-50.261z" fill="#F1F3F6"/><path d="M805.096 144.684c-8.321 8.986-12.049 25.763-11.132 50.261" stroke="#000" stroke-miterlimit="22.926"/><path fill-rule="evenodd" clip-rule="evenodd" d="M624.978 210.113c-16.142 0-29.308-13.077-29.308-29.11s13.166-29.112 29.308-29.112 29.307 13.079 29.307 29.112c0 16.033-13.165 29.11-29.307 29.11z" fill="#F1F3F6" stroke="#000" stroke-miterlimit="22.926"/><path fill-rule="evenodd" clip-rule="evenodd" d="M624.984 198.469c-9.685 0-17.586-7.846-17.586-17.466 0-9.619 7.901-17.468 17.586-17.468 9.684 0 17.583 7.849 17.583 17.468 0 9.62-7.899 17.466-17.583 17.466z" fill="#F1F3F6" stroke="#000" stroke-miterlimit="22.926"/><path fill-rule="evenodd" clip-rule="evenodd" d="M624.987 186.364c-2.974 0-5.399-2.407-5.399-5.361 0-2.954 2.425-5.364 5.399-5.364 2.971 0 5.399 2.41 5.399 5.364 0 2.954-2.428 5.361-5.399 5.361z" fill="#F1F3F6" stroke="#000" stroke-miterlimit="22.926"/><path fill-rule="evenodd" clip-rule="evenodd" d="M624.982 196.63c-8.666 0-15.736-7.021-15.736-15.627 0-8.609 7.07-15.63 15.736-15.63 8.667 0 15.734 7.021 15.734 15.63 0 8.606-7.067 15.627-15.734 15.627zm-325.571 13.483c-16.141 0-29.307-13.077-29.307-29.11s13.166-29.112 29.307-29.112c16.143 0 29.309 13.079 29.309 29.112 0 16.033-13.166 29.11-29.309 29.11z" fill="#F1F3F6" stroke="#000" stroke-miterlimit="22.926"/><path fill-rule="evenodd" clip-rule="evenodd" d="M299.412 198.468c-9.685 0-17.585-7.846-17.585-17.466 0-9.619 7.9-17.468 17.585-17.468 9.687 0 17.586 7.849 17.586 17.468 0 9.62-7.899 17.466-17.586 17.466z" fill="#F1F3F6" stroke="#000" stroke-miterlimit="22.926"/><path fill-rule="evenodd" clip-rule="evenodd" d="M299.413 186.364c-2.974 0-5.399-2.407-5.399-5.361 0-2.954 2.425-5.364 5.399-5.364s5.399 2.41 5.399 5.364c0 2.954-2.425 5.361-5.399 5.361z" fill="#F1F3F6" stroke="#000" stroke-miterlimit="22.926"/><path fill-rule="evenodd" clip-rule="evenodd" d="M299.409 196.63c-8.666 0-15.733-7.021-15.733-15.627 0-8.609 7.067-15.63 15.733-15.63 8.667 0 15.734 7.021 15.734 15.63 0 8.606-7.067 15.627-15.734 15.627zm-62.252 13.483c-16.143 0-29.311-13.077-29.311-29.11s13.168-29.112 29.311-29.112c16.136 0 29.305 13.079 29.305 29.112 0 16.033-13.169 29.11-29.305 29.11z" fill="#F1F3F6" stroke="#000" stroke-miterlimit="22.926"/><path fill-rule="evenodd" clip-rule="evenodd" d="M237.161 198.468c-9.691 0-17.588-7.846-17.588-17.466 0-9.619 7.897-17.468 17.588-17.468 9.684 0 17.581 7.849 17.581 17.468 0 9.62-7.897 17.466-17.581 17.466z" fill="#F1F3F6" stroke="#000" stroke-miterlimit="22.926"/><path fill-rule="evenodd" clip-rule="evenodd" d="M237.161 186.364c-2.974 0-5.404-2.407-5.404-5.361 0-2.954 2.43-5.364 5.404-5.364 2.968 0 5.398 2.41 5.398 5.364 0 2.954-2.43 5.361-5.398 5.361z" fill="#F1F3F6" stroke="#000" stroke-miterlimit="22.926"/><path fill-rule="evenodd" clip-rule="evenodd" d="M237.158 196.63c-8.665 0-15.738-7.021-15.738-15.627 0-8.609 7.073-15.63 15.738-15.63s15.731 7.021 15.731 15.63c0 8.606-7.066 15.627-15.731 15.627zm-62.129 13.483c-16.143 0-29.311-13.077-29.311-29.11s13.168-29.112 29.311-29.112 29.304 13.079 29.304 29.112c0 16.033-13.161 29.11-29.304 29.11z" fill="#F1F3F6" stroke="#000" stroke-miterlimit="22.926"/><path fill-rule="evenodd" clip-rule="evenodd" d="M175.027 198.468c-9.684 0-17.588-7.846-17.588-17.466 0-9.619 7.904-17.468 17.588-17.468 9.685 0 17.581 7.849 17.581 17.468 0 9.62-7.896 17.466-17.581 17.466z" fill="#F1F3F6" stroke="#000" stroke-miterlimit="22.926"/><path fill-rule="evenodd" clip-rule="evenodd" d="M175.026 186.364c-2.975 0-5.405-2.407-5.405-5.361 0-2.954 2.43-5.364 5.405-5.364 2.967 0 5.397 2.41 5.397 5.364 0 2.954-2.43 5.361-5.397 5.361z" fill="#F1F3F6" stroke="#000" stroke-miterlimit="22.926"/><path fill-rule="evenodd" clip-rule="evenodd" d="M175.026 196.63c-8.665 0-15.738-7.021-15.738-15.627 0-8.609 7.073-15.63 15.738-15.63s15.731 7.021 15.731 15.63c0 8.606-7.066 15.627-15.731 15.627z" fill="#F1F3F6" stroke="#000" stroke-miterlimit="22.926"/><path fill-rule="evenodd" clip-rule="evenodd" d="M614.833 149.269c-13.5 4.281-23.324 16.904-23.324 31.734h2.159c0-17.179 14.018-31.107 31.316-31.107 17.294 0 31.313 13.928 31.313 31.107h2.159c0-14.864-9.819-27.448-23.362-31.704" fill="#F1F3F6"/><path d="M614.833 149.269c-13.5 4.281-23.324 16.904-23.324 31.734h2.159c0-17.179 14.018-31.107 31.316-31.107 17.294 0 31.313 13.928 31.313 31.107h2.159c0-14.864-9.819-27.448-23.362-31.704" stroke="#000" stroke-miterlimit="22.926"/><path fill-rule="evenodd" clip-rule="evenodd" d="M143.695 159.629H20.188v-10.315h588.323l-60.468 10.315H330.691" fill="#F1F3F6"/><path d="M143.695 159.629H20.188v-10.315h588.323l-60.468 10.315H330.691" stroke="#000" stroke-miterlimit="22.926"/><path fill-rule="evenodd" clip-rule="evenodd" d="M797.882 193.643h5.926-5.926zm1.615-40.294H659.878v40.294h134.044" fill="#F1F3F6"/><path d="M799.497 153.349H659.878v40.294h134.044m3.96 0h5.926-5.926z" stroke="#000" stroke-miterlimit="22.926"/><path fill-rule="evenodd" clip-rule="evenodd" d="M653.837 186.135h6.042v-32.786h-16.311" fill="#F1F3F6"/><path d="M653.837 186.135h6.042v-32.786h-16.311" stroke="#000" stroke-miterlimit="22.926"/><path fill-rule="evenodd" clip-rule="evenodd" d="M782.441 153.348h-22.996V85.243h22.996v68.105zM543.417 187.59h-7.251v-27.961h7.251v27.961z" fill="#F1F3F6" stroke="#000" stroke-miterlimit="22.926"/><path fill-rule="evenodd" clip-rule="evenodd" d="M543.565 187.59h-7.558l-3.702 3.143v.842h14.963v-.842l-3.703-3.143z" fill="#F1F3F6" stroke="#000" stroke-miterlimit="22.926"/><path fill-rule="evenodd" clip-rule="evenodd" d="M546.245 159.63v17.485l-2.833 7.356" fill="#F1F3F6"/><path d="M546.245 159.63v17.485l-2.833 7.356" stroke="#000" stroke-miterlimit="22.926"/><path fill-rule="evenodd" clip-rule="evenodd" d="M533.331 159.63v17.485l2.833 7.356" fill="#F1F3F6"/><path d="M533.331 159.63v17.485l2.833 7.356" stroke="#000" stroke-miterlimit="22.926"/><path fill-rule="evenodd" clip-rule="evenodd" d="M150.28 149.314c-4.538 5.85-8.294 18.564-11.262 38.144l11.262-38.144z" fill="#F1F3F6"/><path d="M150.28 149.314c-4.538 5.85-8.294 18.564-11.262 38.144" stroke="#000" stroke-miterlimit="22.926"/><path fill-rule="evenodd" clip-rule="evenodd" d="M148.431 149.314c-5.328 9.324-9.028 22.039-11.109 38.144h1.697" fill="#F1F3F6"/><path d="M148.431 149.314c-5.328 9.324-9.028 22.039-11.109 38.144h1.697" stroke="#000" stroke-miterlimit="22.926"/><path fill-rule="evenodd" clip-rule="evenodd" d="M139.108 186.717c2.15-.366 4.559-.549 7.108-.506l-7.108.506z" fill="#F1F3F6"/><path d="M139.108 186.717c2.15-.366 4.559-.549 7.108-.506" stroke="#000" stroke-miterlimit="22.926"/><path fill-rule="evenodd" clip-rule="evenodd" d="M20.126 174.128h-1.62v-24.814h1.62v24.814z" fill="#F1F3F6" stroke="#000" stroke-miterlimit="22.926"/><path fill-rule="evenodd" clip-rule="evenodd" d="M18.509 174.128h-3.472v-7.968h3.472v7.968zm-1.78-21.947h-2.723v9.613h2.723c.977 0 1.78-.802 1.78-1.783v-6.05c0-.978-.803-1.78-1.78-1.78z" fill="#F1F3F6" stroke="#000" stroke-miterlimit="22.926"/><path fill-rule="evenodd" clip-rule="evenodd" d="M324.107 149.314c4.543 5.85 8.295 18.564 11.262 38.144l-11.262-38.144z" fill="#F1F3F6"/><path d="M324.107 149.314c4.543 5.85 8.295 18.564 11.262 38.144" stroke="#000" stroke-miterlimit="22.926"/><path fill-rule="evenodd" clip-rule="evenodd" d="M325.961 149.314c5.322 9.324 9.024 22.039 11.106 38.144h-1.696" fill="#F1F3F6"/><path d="M325.961 149.314c5.322 9.324 9.024 22.039 11.106 38.144h-1.696" stroke="#000" stroke-miterlimit="22.926"/><path fill-rule="evenodd" clip-rule="evenodd" d="M335.369 186.755a39.63 39.63 0 0 0-7.161-.544l7.161.544z" fill="#F1F3F6"/><path d="M335.369 186.755a39.63 39.63 0 0 0-7.161-.544" stroke="#000" stroke-miterlimit="22.926"/><path fill-rule="evenodd" clip-rule="evenodd" d="M208.337 186.309l-4.489.007 4.489-.007zm62.392 0l-4.788-.003 4.788.003z" fill="#F1F3F6"/><path d="M270.729 186.309l-4.788-.003m-57.604.003l-4.489.007 4.489-.007z" stroke="#000" stroke-miterlimit="22.926"/><path fill-rule="evenodd" clip-rule="evenodd" d="M595.689 180.028h-2.008 2.008zm60.591 0h-2.008 2.008z" fill="#F1F3F6"/><path d="M656.28 180.028h-2.008m-58.583 0h-2.008 2.008z" stroke="#000" stroke-miterlimit="22.926"/><path fill-rule="evenodd" clip-rule="evenodd" d="M717.037 149.314h-65.316l5.925 4.034h52.727l6.664-4.034z" fill="#F1F3F6" stroke="#000" stroke-miterlimit="22.926"/><path d="M875.948 58.916h-93.507" stroke="#000" stroke-miterlimit="22.926"/><path fill-rule="evenodd" clip-rule="evenodd" d="M595.292 165.946v-1.831c0-1.212-1.002-2.206-2.223-2.206h-4.78v13.79l3.71.007" fill="#F1F3F6"/><path d="M595.292 165.946v-1.831c0-1.212-1.002-2.206-2.223-2.206h-4.78v13.79l3.71.007" stroke="#000" stroke-miterlimit="22.926"/><path fill-rule="evenodd" clip-rule="evenodd" d="M589.981 175.754h-1.696v-13.791h1.696v13.791zm-573.722-13.96h-2.254v-9.612h2.254v9.612zm876.939-35.309h.483a2.94 2.94 0 0 1 2.931 2.931v7.789a2.94 2.94 0 0 1-2.931 2.932h-.483v-13.652zm-69.7-30.552l-38.097-7.937v-2.053l33.167 6.978c2.275.502 3.918 1.508 4.93 3.012zm0-6.329l-38.097-7.937v-2.053l33.167 6.977c2.275.503 3.918 1.51 4.93 3.013zm0-6.329l-38.097-7.937v-2.053l33.167 6.978c2.275.503 3.918 1.506 4.93 3.012zm0-6.328l-38.097-7.938v-2.053l33.167 6.977c2.275.504 3.918 1.507 4.93 3.013zm0-6.33l-38.097-7.937v-2.053l33.167 6.978c2.275.502 3.918 1.505 4.93 3.012z" fill="#F1F3F6" stroke="#000" stroke-miterlimit="22.926"/><path d="M683.683 4.22v141.582M615.613 4.22v141.582M547.537 4.22v141.582M479.475 4.22v141.582M411.403 4.22v141.582M343.339 4.22v141.582M275.27 4.22v141.582M207.201 4.22v141.582M139.131 4.22v141.582M71.061 4.22v141.582" stroke="#000" stroke-miterlimit="22.926"/><path fill-rule="evenodd" clip-rule="evenodd" d="M860.097 66.442H832.32c-.01 0-.025.014-.025.024v29.651l27.802 5.767V66.442zm7.045 43.88l.011 10.189 15.057-.035c.011 0 .028-.013.028-.025v-10.129h-15.096zm4.297-43.88h-7.478v36.244l.337.069c1.558.324 2.641 1.782 2.815 3.306h15.068l-5.995-22.196v-6.561l7.706 28.757h-1.711 1.711v14.39c0 .916-.755 1.664-1.679 1.666l-15.901.036c-.558.008-.819-.334-.811-.993l-.012-10.838v-2.065h-.002l-.002-1.767c-.002-.917-.621-1.94-1.524-2.126l-3.864-.802-28.211-5.854c-.823.012-1.243-.524-1.244-1.637V66.466c0-.916.755-1.667 1.678-1.667h39.22c.922 0 1.434.783 1.678 1.667l2.968 10.725v6.674l-4.565-16.972a1.896 1.896 0 0 0-.182-.45z" fill="#F1F3F6"/><path fill-rule="evenodd" clip-rule="evenodd" d="M860.097 66.442H832.32c-.01 0-.025.014-.025.024v29.651l27.802 5.767V66.442zm7.045 43.88l.011 10.189 15.057-.035c.011 0 .028-.013.028-.025v-10.129h-15.096zm4.297-43.88h-7.478v36.244l.337.069c1.558.324 2.641 1.782 2.815 3.306h15.068l-5.995-22.196v-6.561l7.706 28.757h-1.711 1.711v14.39c0 .916-.755 1.664-1.679 1.666l-15.901.036c-.558.008-.819-.334-.811-.993l-.012-10.838v-2.065h-.002l-.002-1.767c-.002-.917-.621-1.94-1.524-2.126l-3.864-.802-28.211-5.854c-.823.012-1.243-.524-1.244-1.637V66.466c0-.916.755-1.667 1.678-1.667h39.22c.922 0 1.434.783 1.678 1.667l2.968 10.725v6.674l-4.565-16.972a1.896 1.896 0 0 0-.182-.45z" fill="#F1F3F6" stroke="#000" stroke-miterlimit="22.926"/><path fill-rule="evenodd" clip-rule="evenodd" d="M876.413 87.751h1.543a3.712 3.712 0 0 1 3.702 3.7v18.187c0 2.035-1.666 3.7-3.702 3.7h-1.543V87.751z" fill="#F1F3F6"/><path fill-rule="evenodd" clip-rule="evenodd" d="M876.413 87.751h1.543a3.712 3.712 0 0 1 3.702 3.7v18.187c0 2.035-1.666 3.7-3.702 3.7h-1.543V87.751z" fill="#F1F3F6" stroke="#000" stroke-miterlimit="22.926"/><path fill-rule="evenodd" clip-rule="evenodd" d="M876.186 71.843h1.609a3.874 3.874 0 0 1 3.863 3.86v6.048a3.872 3.872 0 0 1-3.863 3.86h-1.609V71.843z" fill="#F1F3F6"/><path fill-rule="evenodd" clip-rule="evenodd" d="M876.186 71.843h1.609a3.874 3.874 0 0 1 3.863 3.86v6.048a3.872 3.872 0 0 1-3.863 3.86h-1.609V71.843zm-36.527 32.781h-5.497c-.818 0-1.488.666-1.488 1.478v2.135h8.472v-2.135c0-.812-.669-1.478-1.487-1.478z" fill="#F1F3F6" stroke="#000" stroke-miterlimit="22.926"/><path fill-rule="evenodd" clip-rule="evenodd" d="M841.146 109.962h-8.472v-1.726h8.472v1.726z" fill="#F1F3F6" stroke="#000" stroke-miterlimit="22.926"/><path fill-rule="evenodd" clip-rule="evenodd" d="M774.858 12.434h-13.002a.207.207 0 0 0-.208.206v.976c0 .115.093.209.208.209h13.002v-1.391z" fill="#F1F3F6"/><path fill-rule="evenodd" clip-rule="evenodd" d="M774.858 12.434h-13.002a.207.207 0 0 0-.208.206v.976c0 .115.093.209.208.209h13.002v-1.391z" fill="#F1F3F6" stroke="#000" stroke-miterlimit="22.926"/><path fill-rule="evenodd" clip-rule="evenodd" d="M774.858 15.898h-13.002a.21.21 0 0 0-.208.209v.975c0 .115.093.207.208.207h13.002v-1.392z" fill="#F1F3F6"/><path fill-rule="evenodd" clip-rule="evenodd" d="M774.858 15.898h-13.002a.21.21 0 0 0-.208.209v.975c0 .115.093.207.208.207h13.002v-1.392z" fill="#F1F3F6" stroke="#000" stroke-miterlimit="22.926"/><path fill-rule="evenodd" clip-rule="evenodd" d="M774.858 19.282h-13.002a.209.209 0 0 0-.208.21v.974c0 .113.093.207.208.207h13.002v-1.39z" fill="#F1F3F6"/><path fill-rule="evenodd" clip-rule="evenodd" d="M774.858 19.282h-13.002a.209.209 0 0 0-.208.21v.974c0 .113.093.207.208.207h13.002v-1.39zm-6.119 17.221h-8.315a1.23 1.23 0 0 0-1.226 1.226V56.75a1.23 1.23 0 0 0 1.226 1.225h8.315a1.23 1.23 0 0 0 1.226-1.225V37.73a1.23 1.23 0 0 0-1.226-1.226z" fill="#F1F3F6" stroke="#000" stroke-miterlimit="22.926"/><path fill-rule="evenodd" clip-rule="evenodd" d="M766.989 38.85h-4.819a.437.437 0 0 0-.435.436v1.216c0 .239.195.436.435.436h4.819a.438.438 0 0 0 .435-.436v-1.216a.437.437 0 0 0-.435-.436z" fill="#F1F3F6" stroke="#000" stroke-miterlimit="22.926"/><path fill-rule="evenodd" clip-rule="evenodd" d="M755.438 7.707h17.236a2.19 2.19 0 0 1 2.184 2.183v53.496h-19.42V7.707z" fill="#F1F3F6" stroke="#000" stroke-miterlimit="22.926"/><path fill-rule="evenodd" clip-rule="evenodd" d="M865.416 185.847a7.554 7.554 0 0 1-4.397 0h4.397z" fill="#F1F3F6"/><path d="M865.416 185.847a7.554 7.554 0 0 1-4.397 0" stroke="#000" stroke-miterlimit="22.926"/><path fill-rule="evenodd" clip-rule="evenodd" d="M861.031 185.302c-.97-.429-1.595-.679-1.874-.755l1.874.755z" fill="#F1F3F6"/><path d="M861.031 185.302c-.97-.429-1.595-.679-1.874-.755" stroke="#000" stroke-miterlimit="22.926"/><path fill-rule="evenodd" clip-rule="evenodd" d="M830.06 210.113c-16.142 0-29.308-13.077-29.308-29.11s13.166-29.112 29.308-29.112c16.143 0 29.308 13.079 29.308 29.112 0 16.033-13.165 29.11-29.308 29.11z" fill="#F1F3F6" stroke="#000" stroke-miterlimit="22.926"/><path fill-rule="evenodd" clip-rule="evenodd" d="M830.064 196.63c-8.666 0-15.734-7.021-15.734-15.627 0-8.609 7.068-15.63 15.734-15.63s15.734 7.021 15.734 15.63c0 8.606-7.068 15.627-15.734 15.627z" fill="#F1F3F6" stroke="#000" stroke-miterlimit="22.926"/><path fill-rule="evenodd" clip-rule="evenodd" d="M830.063 192.953c-6.627 0-12.031-5.368-12.031-11.951 0-6.581 5.404-11.95 12.031-11.95 6.627 0 12.032 5.369 12.032 11.95 0 6.583-5.405 11.951-12.032 11.951z" fill="#F1F3F6" stroke="#000" stroke-miterlimit="22.926"/><path fill-rule="evenodd" clip-rule="evenodd" d="M830.06 184.22c-1.784 0-3.24-1.444-3.24-3.217 0-1.771 1.456-3.219 3.24-3.219 1.784 0 3.24 1.448 3.24 3.219 0 1.773-1.456 3.217-3.24 3.217z" fill="#F1F3F6" stroke="#000" stroke-miterlimit="22.926"/><path fill-rule="evenodd" clip-rule="evenodd" d="M830.061 197.166V184.22v12.946zm0-19.383v-12.946 12.946z" fill="#F1F3F6"/><path d="M830.061 177.783v-12.946m0 32.329V184.22v12.946z" stroke="#000" stroke-miterlimit="22.926"/><path fill-rule="evenodd" clip-rule="evenodd" d="M813.886 181.002h12.956-12.956zm19.397 0h12.956-12.956z" fill="#F1F3F6"/><path d="M833.283 181.002h12.956m-32.353 0h12.956-12.956z" stroke="#000" stroke-miterlimit="22.926"/><path fill-rule="evenodd" clip-rule="evenodd" d="M624.979 210.113c-16.142 0-29.308-13.077-29.308-29.11s13.166-29.112 29.308-29.112c16.143 0 29.308 13.079 29.308 29.112 0 16.033-13.165 29.11-29.308 29.11z" fill="#F1F3F6" stroke="#000" stroke-miterlimit="22.926"/><path fill-rule="evenodd" clip-rule="evenodd" d="M624.981 196.629c-8.666 0-15.734-7.021-15.734-15.627 0-8.609 7.068-15.63 15.734-15.63s15.734 7.021 15.734 15.63c0 8.606-7.068 15.627-15.734 15.627z" fill="#F1F3F6" stroke="#000" stroke-miterlimit="22.926"/><path fill-rule="evenodd" clip-rule="evenodd" d="M624.98 192.954c-6.627 0-12.031-5.369-12.031-11.951 0-6.582 5.404-11.951 12.031-11.951 6.627 0 12.032 5.369 12.032 11.951 0 6.582-5.405 11.951-12.032 11.951z" fill="#F1F3F6" stroke="#000" stroke-miterlimit="22.926"/><path fill-rule="evenodd" clip-rule="evenodd" d="M624.981 184.22c-1.784 0-3.24-1.445-3.24-3.217 0-1.771 1.456-3.219 3.24-3.219 1.784 0 3.24 1.448 3.24 3.219 0 1.772-1.456 3.217-3.24 3.217z" fill="#F1F3F6" stroke="#000" stroke-miterlimit="22.926"/><path fill-rule="evenodd" clip-rule="evenodd" d="M624.982 197.166V184.22v12.946zm0-19.383v-12.946 12.946z" fill="#F1F3F6"/><path d="M624.982 177.783v-12.946m0 32.329V184.22v12.946z" stroke="#000" stroke-miterlimit="22.926"/><path fill-rule="evenodd" clip-rule="evenodd" d="M608.802 181.001h12.956-12.956zm19.397 0h12.956-12.956z" fill="#F1F3F6"/><path d="M628.199 181.001h12.956m-32.353 0h12.956-12.956z" stroke="#000" stroke-miterlimit="22.926"/><path fill-rule="evenodd" clip-rule="evenodd" d="M299.414 210.113c-16.142 0-29.309-13.077-29.309-29.11s13.167-29.112 29.309-29.112c16.142 0 29.308 13.079 29.308 29.112 0 16.033-13.166 29.11-29.308 29.11z" fill="#F1F3F6" stroke="#000" stroke-miterlimit="22.926"/><path fill-rule="evenodd" clip-rule="evenodd" d="M299.415 196.629c-8.666 0-15.734-7.021-15.734-15.627 0-8.609 7.068-15.63 15.734-15.63 8.665 0 15.733 7.021 15.733 15.63 0 8.606-7.068 15.627-15.733 15.627z" fill="#F1F3F6" stroke="#000" stroke-miterlimit="22.926"/><path fill-rule="evenodd" clip-rule="evenodd" d="M299.416 192.954c-6.627 0-12.032-5.369-12.032-11.951 0-6.582 5.405-11.951 12.032-11.951 6.626 0 12.031 5.369 12.031 11.951 0 6.582-5.405 11.951-12.031 11.951z" fill="#F1F3F6" stroke="#000" stroke-miterlimit="22.926"/><path fill-rule="evenodd" clip-rule="evenodd" d="M299.415 184.22c-1.784 0-3.24-1.445-3.24-3.217 0-1.771 1.456-3.219 3.24-3.219 1.784 0 3.239 1.448 3.239 3.219 0 1.772-1.455 3.217-3.239 3.217z" fill="#F1F3F6" stroke="#000" stroke-miterlimit="22.926"/><path fill-rule="evenodd" clip-rule="evenodd" d="M299.418 197.166V184.22v12.946zm0-19.383v-12.946 12.946z" fill="#F1F3F6"/><path d="M299.418 177.783v-12.946m0 32.329V184.22v12.946z" stroke="#000" stroke-miterlimit="22.926"/><path fill-rule="evenodd" clip-rule="evenodd" d="M283.242 181.001h12.956-12.956zm19.397 0h12.956-12.956z" fill="#F1F3F6"/><path d="M302.639 181.001h12.956m-32.353 0h12.956-12.956z" stroke="#000" stroke-miterlimit="22.926"/><path fill-rule="evenodd" clip-rule="evenodd" d="M237.157 210.113c-16.142 0-29.309-13.077-29.309-29.11s13.167-29.112 29.309-29.112c16.142 0 29.308 13.079 29.308 29.112 0 16.033-13.166 29.11-29.308 29.11z" fill="#F1F3F6" stroke="#000" stroke-miterlimit="22.926"/><path fill-rule="evenodd" clip-rule="evenodd" d="M237.156 196.629c-8.666 0-15.734-7.021-15.734-15.627 0-8.609 7.068-15.63 15.734-15.63s15.734 7.021 15.734 15.63c0 8.606-7.068 15.627-15.734 15.627z" fill="#F1F3F6" stroke="#000" stroke-miterlimit="22.926"/><path fill-rule="evenodd" clip-rule="evenodd" d="M237.155 192.954c-6.627 0-12.032-5.369-12.032-11.951 0-6.582 5.405-11.951 12.032-11.951s12.032 5.369 12.032 11.951c0 6.582-5.405 11.951-12.032 11.951z" fill="#F1F3F6" stroke="#000" stroke-miterlimit="22.926"/><path fill-rule="evenodd" clip-rule="evenodd" d="M237.16 184.22c-1.784 0-3.24-1.445-3.24-3.217 0-1.771 1.456-3.219 3.24-3.219 1.784 0 3.239 1.448 3.239 3.219 0 1.772-1.455 3.217-3.239 3.217z" fill="#F1F3F6" stroke="#000" stroke-miterlimit="22.926"/><path fill-rule="evenodd" clip-rule="evenodd" d="M237.153 197.166V184.22v12.946zm0-19.383v-12.946 12.946z" fill="#F1F3F6"/><path d="M237.153 177.783v-12.946m0 32.329V184.22v12.946z" stroke="#000" stroke-miterlimit="22.926"/><path fill-rule="evenodd" clip-rule="evenodd" d="M220.979 181.001h12.956-12.956zm19.397 0h12.956-12.956z" fill="#F1F3F6"/><path d="M240.376 181.001h12.956m-32.353 0h12.956-12.956z" stroke="#000" stroke-miterlimit="22.926"/><path fill-rule="evenodd" clip-rule="evenodd" d="M175.025 210.113c-16.142 0-29.308-13.077-29.308-29.11s13.166-29.112 29.308-29.112 29.308 13.079 29.308 29.112c0 16.033-13.166 29.11-29.308 29.11z" fill="#F1F3F6" stroke="#000" stroke-miterlimit="22.926"/><path fill-rule="evenodd" clip-rule="evenodd" d="M175.023 196.629c-8.666 0-15.734-7.021-15.734-15.627 0-8.609 7.068-15.63 15.734-15.63s15.734 7.021 15.734 15.63c0 8.606-7.068 15.627-15.734 15.627z" fill="#F1F3F6" stroke="#000" stroke-miterlimit="22.926"/><path fill-rule="evenodd" clip-rule="evenodd" d="M175.026 192.954c-6.627 0-12.032-5.369-12.032-11.951 0-6.582 5.405-11.951 12.032-11.951s12.032 5.369 12.032 11.951c0 6.582-5.405 11.951-12.032 11.951z" fill="#F1F3F6" stroke="#000" stroke-miterlimit="22.926"/><path fill-rule="evenodd" clip-rule="evenodd" d="M175.021 184.22c-1.784 0-3.24-1.445-3.24-3.217 0-1.771 1.456-3.219 3.24-3.219 1.784 0 3.24 1.448 3.24 3.219 0 1.772-1.456 3.217-3.24 3.217z" fill="#F1F3F6" stroke="#000" stroke-miterlimit="22.926"/><path fill-rule="evenodd" clip-rule="evenodd" d="M175.023 197.166V184.22v12.946zm0-19.383v-12.946 12.946z" fill="#F1F3F6"/><path d="M175.023 177.783v-12.946m0 32.329V184.22v12.946z" stroke="#000" stroke-miterlimit="22.926"/><path fill-rule="evenodd" clip-rule="evenodd" d="M158.847 181.001h12.956-12.956zm19.397 0H191.2h-12.956z" fill="#F1F3F6"/><path d="M178.244 181.001H191.2m-32.353 0h12.956-12.956z" stroke="#000" stroke-miterlimit="22.926"/></svg>