<svg width="64" height="58" fill="none" xmlns="http://www.w3.org/2000/svg"><path d="M38.215 32.004l.433.103.434-.103a15.677 15.677 0 0 0 8.64-5.51 15.679 15.679 0 0 0 3.362-9.68V6.71L38.648.187 26.212 6.712v10.103a15.68 15.68 0 0 0 3.363 9.68 15.679 15.679 0 0 0 8.64 5.51zM29.962 8.979l8.686-4.557 8.686 4.557v7.835a11.82 11.82 0 0 1-8.686 11.43 11.82 11.82 0 0 1-8.686-11.43V8.979z" fill="#FF0014"/><path d="M44.73 14.693l-2.65-2.652-4.434 4.433-2.441-2.41-2.634 2.67 5.093 5.026 7.067-7.067zm17.485 17.943a6.09 6.09 0 0 0-8.41-.203L45.67 39.82a6.102 6.102 0 0 0-5.596-3.683h-10.24a13.16 13.16 0 0 0-16.63-1.767 5.383 5.383 0 0 0-5.247-4.212H0v27.654h7.958a5.38 5.38 0 0 0 4.818-2.995l8.86 2.995h23.415l17.084-16.477A6.051 6.051 0 0 0 64 37.002a6.052 6.052 0 0 0-1.785-4.366zm-52.632 19.8c0 .897-.729 1.626-1.625 1.626H3.75V33.907h4.208c.896 0 1.625.73 1.625 1.625v16.904zm49.95-13.8L43.536 54.06H22.253l-8.92-3.014v-11.85a9.416 9.416 0 0 1 14.26.037l.56.653h11.922a2.346 2.346 0 0 1 2.344 2.343 2.346 2.346 0 0 1-2.344 2.344H29.377v3.75h10.698a6.099 6.099 0 0 0 5.386-3.248l10.864-9.867a2.344 2.344 0 0 1 3.238.078 2.33 2.33 0 0 1 .687 1.68 2.328 2.328 0 0 1-.718 1.669z" fill="#FF0014"/></svg>