<svg width="64" height="64" fill="none" xmlns="http://www.w3.org/2000/svg"><g clip-path="url(#clip0)"><path d="M57.13 60.25V25.881H44.881V14.944h5.342v2.5h10.841V4.762h-7.091v-2.5H44.88V0h-3.75v25.881h-3.254v11.204H22.373v11.203H6.87V60.25H2.78V64h58.44v-3.75h-4.09zM53.973 8.511h3.341v5.183h-3.341V8.51zm-3.75-2.5v5.183H44.88V6.01h5.342zm-8.596 23.62H53.38v30.62H41.627V29.63zM26.123 40.834h11.754V60.25H26.123V40.834zM10.62 52.038h11.754v8.212H10.62v-8.212z" fill="#FF0014"/></g><defs><clipPath id="clip0"><path fill="#fff" d="M0 0h64v64H0z"/></clipPath></defs></svg>