<svg width="64" height="64" fill="none" xmlns="http://www.w3.org/2000/svg"><g clip-path="url(#clip0)" fill="#FF0014"><path d="M62.125 26.375c0-2.007-.81-3.897-2.28-5.323a7.642 7.642 0 0 0-5.345-2.177c-4.136 0-7.5 3.364-7.5 7.5s3.364 7.5 7.5 7.5c2 0 3.899-.773 5.346-2.177 1.47-1.426 2.279-3.317 2.279-5.323zm-7.625 3.75a3.754 3.754 0 0 1-3.75-3.75 3.754 3.754 0 0 1 3.75-3.75c2.1 0 3.875 1.717 3.875 3.75s-1.775 3.75-3.875 3.75zm-9.346 9.995c.34 3.462 1.153 4.74 1.87 5.867.869 1.364 1.853 2.91 1.853 12.263v1.875H60.25V58.25c0-9.352.984-10.899 1.852-12.263.718-1.127 1.53-2.405 1.87-5.868.329-3.342-2.265-6.244-5.596-6.244H50.75c-3.33 0-5.924 2.903-5.596 6.244zm13.223-2.495c1.137 0 1.974 1.01 1.865 2.128-.253 2.572-.716 3.3-1.302 4.22-1.331 2.092-2.3 4.265-2.425 12.402h-3.902c-.126-8.137-1.094-10.31-2.425-12.401-.586-.922-1.05-1.65-1.302-4.221-.11-1.117.727-2.128 1.865-2.128h7.626zm-18.876-11.25c0-4.136-3.364-7.5-7.5-7.5-4.135 0-7.5 3.364-7.5 7.5s3.364 7.5 7.5 7.5 7.5-3.364 7.5-7.5zm-7.5 3.75a3.754 3.754 0 0 1-3.75-3.75 3.754 3.754 0 0 1 3.75-3.75 3.754 3.754 0 0 1 3.75 3.75 3.754 3.754 0 0 1-3.75 3.75zm5.624 28.125c0-9.352.984-10.899 1.852-12.263.717-1.127 1.53-2.405 1.87-5.868.328-3.342-2.266-6.244-5.596-6.244H28.25c-3.331 0-5.925 2.903-5.597 6.244.34 3.463 1.153 4.74 1.87 5.868.868 1.364 1.852 2.91 1.852 12.263v1.875h11.25V58.25zm-.01-18.497c-.253 2.572-.715 3.3-1.302 4.22-1.33 2.092-2.299 4.265-2.424 12.402H30.11c-.125-8.137-1.094-10.31-2.424-12.401-.587-.922-1.05-1.65-1.302-4.221-.11-1.117.726-2.128 1.864-2.128h7.502c1.136 0 1.974 1.01 1.864 2.128zM50.75 11.375c0-4.136-3.364-7.5-7.5-7.5-4.135 0-7.5 3.364-7.5 7.5s3.365 7.5 7.5 7.5c4.136 0 7.5-3.364 7.5-7.5zm-7.5 3.75a3.754 3.754 0 0 1-3.75-3.75 3.754 3.754 0 0 1 3.75-3.75 3.754 3.754 0 0 1 3.75 3.75 3.754 3.754 0 0 1-3.75 3.75zm-30.002-3.75c0 4.136 3.365 7.5 7.5 7.5 4.136 0 7.5-3.364 7.5-7.5s-3.364-7.5-7.5-7.5c-4.135 0-7.5 3.364-7.5 7.5zm11.25 0a3.754 3.754 0 0 1-3.75 3.75 3.754 3.754 0 0 1-3.75-3.75 3.754 3.754 0 0 1 3.75-3.75 3.754 3.754 0 0 1 3.75 3.75zm-7.5 15c0-4.136-3.364-7.5-7.5-7.5-4.135 0-7.5 3.364-7.5 7.5s3.365 7.5 7.5 7.5c4.136 0 7.5-3.364 7.5-7.5zm-7.5 3.75a3.754 3.754 0 0 1-3.75-3.75 3.754 3.754 0 0 1 3.75-3.75 3.754 3.754 0 0 1 3.75 3.75 3.754 3.754 0 0 1-3.75 3.75zM.028 40.12c.342 3.484 1.187 4.766 1.932 5.898.898 1.363 1.915 2.908 1.915 12.232v1.875h11.25V58.25c0-9.352.984-10.899 1.852-12.263.717-1.127 1.53-2.405 1.87-5.868a5.732 5.732 0 0 0-1.45-4.404 5.608 5.608 0 0 0-4.146-1.84H5.625c-3.331 0-5.925 2.903-5.597 6.244zm13.223-2.495c1.136 0 1.974 1.01 1.864 2.128-.252 2.572-.715 3.3-1.302 4.221-1.33 2.091-2.299 4.264-2.424 12.4H7.61c-.13-8.14-1.137-10.32-2.52-12.419-.603-.916-1.08-1.64-1.331-4.202-.11-1.117.726-2.128 1.864-2.128h7.627z"/></g><defs><clipPath id="clip0"><path fill="#fff" d="M0 0h64v64H0z"/></clipPath></defs></svg>