<svg width="64" height="64" fill="none" xmlns="http://www.w3.org/2000/svg"><g clip-path="url(#clip0)" fill="#FF0014"><path d="M14.998 24.498c4.136 0 7.5-3.365 7.5-7.501s-3.364-7.5-7.5-7.5-7.501 3.364-7.501 7.5 3.364 7.5 7.5 7.5zm0-11.252a3.755 3.755 0 0 1 3.75 3.751 3.755 3.755 0 0 1-3.75 3.75 3.755 3.755 0 0 1-3.751-3.75 3.755 3.755 0 0 1 3.75-3.75zm3.75 34.654a16.781 16.781 0 0 0 9.377 2.851h7.75c3.467 0 6.693-1.051 9.377-2.85v6.6H64l-2.846-21.953a9.378 9.378 0 0 0-9.281-8.05h-.996c-5.17 0-9.376 4.206-9.376 9.376a5.632 5.632 0 0 1-5.625 5.626h-7.751a5.632 5.632 0 0 1-5.626-5.626c0-5.17-4.206-9.376-9.376-9.376h-.996a9.378 9.378 0 0 0-9.282 8.05L0 54.502h18.748V47.9zm17.128-4.65c5.17 0 9.376-4.206 9.376-9.376a5.632 5.632 0 0 1 5.625-5.626h.996c2.778 0 5.169 2.071 5.567 4.82l2.292 17.683h-10.73V44.47a16.796 16.796 0 0 0 3.75-10.595h-3.75c0 7.238-5.889 13.127-13.127 13.127h-2v-3.75h2zm-20.878 1.22v6.281H4.268L6.56 33.068c.398-2.749 2.79-4.82 5.567-4.82h.996a5.632 5.632 0 0 1 5.625 5.626c0 5.17 4.206 9.376 9.377 9.376h2V47h-2c-7.238 0-13.127-5.888-13.127-13.126h-3.75c0 4.01 1.405 7.698 3.75 10.597zm34.005-19.972c4.136 0 7.501-3.365 7.501-7.501s-3.365-7.5-7.5-7.5c-4.137 0-7.502 3.364-7.502 7.5s3.365 7.5 7.501 7.5zm0-11.252a3.755 3.755 0 0 1 3.75 3.751 3.755 3.755 0 0 1-3.75 3.75 3.755 3.755 0 0 1-3.75-3.75 3.755 3.755 0 0 1 3.75-3.75z"/></g><defs><clipPath id="clip0"><path fill="#fff" d="M0 0h64v64H0z"/></clipPath></defs></svg>