<svg width="64" height="64" fill="none" xmlns="http://www.w3.org/2000/svg"><g clip-path="url(#clip0)" fill="#3FACDC"><path d="M30.525 11.927a1.703 1.703 0 0 0-1.112 1.39l-.044.372a8.917 8.917 0 0 1-4.313 7.355c-4.266 2.556-6.815 6.564-6.815 10.71.097 7.506 6.157 13.566 13.662 13.663 7.146 0 12.96-6.123 12.96-13.66 0-2.134-.499-4.24-1.457-6.148a1.736 1.736 0 0 0-1.654-.945c-.688.046-1.281.5-1.505 1.152a16.004 16.004 0 0 1-3.5 5.887c-2.252 2.255-3.718 1.775-4.091 1.4-.374-.373-.852-1.84 1.399-4.091a10.079 10.079 0 0 0 3.035-7.395c-.051-2.3-.929-5.79-4.816-9.344a1.71 1.71 0 0 0-1.75-.346zm4.435 9.737a7.975 7.975 0 0 1-2.406 5.841c-3.364 3.363-2.387 6.118-1.4 7.104.987.986 3.741 1.964 7.104-1.399a17.199 17.199 0 0 0 3.654-5.75c.543 1.368.822 2.826.821 4.297 0 6.358-4.858 11.531-10.83 11.531-6.301-.159-11.372-5.23-11.531-11.53 0-3.993 2.981-7.207 5.78-8.884a10.744 10.744 0 0 0 5.274-8.46 10.765 10.765 0 0 1 3.534 7.25z"/><path d="M32.085 0A59.894 59.894 0 0 0 7.11 5.44a1.064 1.064 0 0 0-.583.949V28.28a34.306 34.306 0 0 0 13.377 27.121l10.518 8.037a2.74 2.74 0 0 0 3.323 0l10.518-8.035A34.309 34.309 0 0 0 57.641 28.28V6.39c0-.401-.225-.768-.583-.95A59.892 59.892 0 0 0 32.085 0zM55.51 28.281A32.167 32.167 0 0 1 42.973 53.71l-10.52 8.036a.607.607 0 0 1-.737 0l-10.52-8.036A32.166 32.166 0 0 1 8.659 28.28V7.064A59.689 59.689 0 0 1 32.085 2.13 59.69 59.69 0 0 1 55.51 7.064v21.217z"/><path d="M11.427 8.609c-.388.17-.638.552-.639.975V28.28a29.985 29.985 0 0 0 11.691 23.705l7.944 6.07a2.74 2.74 0 0 0 3.323 0l7.946-6.07a29.986 29.986 0 0 0 11.69-23.705V9.584c0-.422-.248-.804-.634-.975a52.997 52.997 0 0 0-20.663-4.32 52.99 52.99 0 0 0-20.658 4.32zm39.825 19.672a27.844 27.844 0 0 1-10.853 22.01l-7.946 6.07a.61.61 0 0 1-.737 0l-7.945-6.07a27.848 27.848 0 0 1-10.854-22.01V10.284a50.932 50.932 0 0 1 19.168-3.865 50.93 50.93 0 0 1 19.167 3.865v17.997z"/></g><defs><clipPath id="clip0"><path fill="#fff" d="M0 0h64v64H0z"/></clipPath></defs></svg>