<svg width="64" height="64" fill="none" xmlns="http://www.w3.org/2000/svg"><path d="M60.47 19.916h-8.071a1.17 1.17 0 0 0-.322.046l-19.532 5.605a1.168 1.168 0 1 0 .645 2.245l19.373-5.56h7.907c.658 0 1.194.536 1.194 1.195v3.321H52.4c-.207 0-.41.055-.588.159l-32.97 19.22V31.93l10.492-3.011a1.168 1.168 0 0 0-.644-2.245L18.842 29.5v-6.62l15.707-8.253a3.843 3.843 0 0 0 1.823-4.673 3.84 3.84 0 0 0-4.39-2.457c-5.745 1.21-19.879 4.16-27.017 5.393A5.972 5.972 0 0 0 0 18.79v7.2a1.168 1.168 0 0 0 2.336 0v-2.647h14.17V54.25H2.336V30.04a1.168 1.168 0 0 0-2.336 0v25.378c0 .645.523 1.168 1.168 1.168h16.506c.645 0 1.168-.523 1.168-1.168V48.85l33.873-19.746h.54v2.57c0 .644.523 1.167 1.168 1.167h7.008c.645 0 1.168-.523 1.168-1.168v-2.57h.233c.645 0 1.168-.522 1.168-1.167v-4.49a3.534 3.534 0 0 0-3.53-3.53zm-43.084 1.09H2.336V18.79a3.64 3.64 0 0 1 3.026-3.597c7.177-1.24 21.344-4.196 27.101-5.41a1.494 1.494 0 0 1 1.71.957 1.497 1.497 0 0 1-.71 1.82l-16.077 8.447zm42.877 9.5H55.59v-1.402h4.672v1.401zm1.505 8.947l-3.014-3.014a1.168 1.168 0 0 0-1.652 0l-3.014 3.014a5.437 5.437 0 0 0 0 7.68 5.414 5.414 0 0 0 3.84 1.588c1.39 0 2.781-.529 3.84-1.588a5.437 5.437 0 0 0 0-7.68zm-1.652 6.029a3.098 3.098 0 0 1-4.376 0 3.098 3.098 0 0 1 0-4.377l2.188-2.188 2.188 2.188a3.098 3.098 0 0 1 0 4.377z" fill="#3FACDC"/></svg>