<svg width="64" height="64" fill="none" xmlns="http://www.w3.org/2000/svg"><g clip-path="url(#clip0)" fill="#3FACDC"><path d="M63.634 23.866l-16-16a1.25 1.25 0 0 0-.884-.366H40a1.25 1.25 0 1 0 0 2.5h6.232l13.5 13.5H33.768L20.268 10h8.482a1.25 1.25 0 1 0 0-2.5h-11.5c-.32 0-.64.122-.884.366l-16 16A1.25 1.25 0 0 0 0 24.75v30.5c0 .69.56 1.25 1.25 1.25h61.5c.69 0 1.25-.56 1.25-1.25v-30.5c0-.331-.132-.65-.366-.884zM20.475 41.711c2.071-2.072 4.803-2.04 6.108-1.877.163 1.307.194 4.038-1.877 6.108-2.067 2.068-4.81 2.059-6.133 1.904-.15-1.32-.158-4.075 1.902-6.135zm-4.355 2.775c-1.228.13-3.656.102-5.493-1.734-1.838-1.839-1.848-4.256-1.71-5.468 1.214-.139 3.63-.127 5.468 1.71 1.837 1.837 1.865 4.267 1.735 5.492zM32 54H18.5v-3.652c.324.03.696.052 1.105.052 1.926 0 4.653-.474 6.87-2.69 3.795-3.796 2.45-9.05 2.39-9.273a1.25 1.25 0 0 0-.885-.886c-.222-.059-5.477-1.404-9.273 2.392-.19.19-.366.383-.53.579a8.284 8.284 0 0 0-2.024-3.296c-3.536-3.536-8.43-2.283-8.636-2.228a1.25 1.25 0 0 0-.886.886c-.055.206-1.307 5.1 2.228 8.635 2.065 2.065 4.605 2.507 6.399 2.507.265 0 .513-.01.742-.026v7H2.5V25.268l14.75-14.75L32 25.268V54zm29.5 0h-27V26h27v28z"/><path d="M43.427 43.591c.32 0 .64-.122.883-.366l8.749-8.748a1.25 1.25 0 0 0-1.768-1.768l-8.748 8.748a1.25 1.25 0 0 0 .884 2.134zm1.882 3.381a1.25 1.25 0 1 0 1.768 1.768l7.725-7.726a1.25 1.25 0 0 0-1.768-1.767l-7.725 7.725zM34.375 10c.329 0 .651-.134.884-.366a1.26 1.26 0 0 0 .366-.884 1.26 1.26 0 0 0-.366-.884 1.26 1.26 0 0 0-.884-.366 1.26 1.26 0 0 0-.884.366 1.26 1.26 0 0 0-.366.884c0 .329.134.651.366.884.233.232.555.366.884.366z"/></g><defs><clipPath id="clip0"><path fill="#fff" d="M0 0h64v64H0z"/></clipPath></defs></svg>