<svg width="64" height="64" fill="none" xmlns="http://www.w3.org/2000/svg"><g clip-path="url(#clip0)"><path d="M41.124 28.468l-.278-3.763a1.045 1.045 0 0 0-.973-.96l-3.818-.274-2.896-2.467a1.064 1.064 0 0 0-1.377 0l-2.896 2.467-3.819.274a1.045 1.045 0 0 0-.973.96l-.278 3.763-2.503 2.854c-.342.39-.342.967 0 1.357l2.503 2.854.278 3.763c.038.513.452.922.973.959l3.819.274 2.896 2.467a1.059 1.059 0 0 0 1.377 0l2.895-2.467 3.819-.274c.52-.037.935-.446.973-.96l.278-3.762 2.503-2.854c.342-.39.342-.968 0-1.357l-2.503-2.854zm-1.821 5.968a1.03 1.03 0 0 0-.253.603l-.237 3.212-3.26.233c-.225.017-.44.105-.612.25l-2.47 2.106-2.472-2.106a1.062 1.062 0 0 0-.612-.25l-3.26-.233-.236-3.212a1.031 1.031 0 0 0-.254-.603L23.501 32l2.136-2.436a1.03 1.03 0 0 0 .254-.603l.237-3.212 3.259-.233c.226-.017.44-.104.612-.25l2.471-2.106 2.471 2.106c.172.146.387.233.613.25l3.258.233.238 3.212c.016.223.105.434.253.603L41.439 32l-2.136 2.436zM14.226 49.98a1.027 1.027 0 0 1 0 1.468l-3.227 3.18a1.057 1.057 0 0 1-.745.303c-.269 0-.538-.1-.744-.303a1.027 1.027 0 0 1 0-1.468l3.227-3.18a1.064 1.064 0 0 1 1.489 0zm36.488-35.96a1.027 1.027 0 0 1 0-1.467l3.227-3.18a1.064 1.064 0 0 1 1.488 0 1.027 1.027 0 0 1 0 1.467l-3.226 3.18a1.056 1.056 0 0 1-.744.304c-.27 0-.54-.102-.745-.304zM5.616 33.038H1.053A1.045 1.045 0 0 1 0 32c0-.573.471-1.037 1.053-1.037h4.563c.581 0 1.053.464 1.053 1.037s-.472 1.038-1.053 1.038zM64 32c0 .558-.458 1.01-1.024 1.01H58.54A1.016 1.016 0 0 1 57.515 32c0-.557.458-1.009 1.024-1.009h4.437c.566 0 1.024.452 1.024 1.01zm-8.17 0l5.292-5.216a1.027 1.027 0 0 0 0-1.467 1.064 1.064 0 0 0-1.489 0l-5.537 5.457-5.454-5.375v-7.603h7.83c.582 0 1.053-.465 1.053-1.038s-.47-1.037-1.053-1.037h-7.484V8.345c0-.573-.47-1.037-1.053-1.037-.581 0-1.052.464-1.052 1.037v7.717h-7.715l-5.454-5.375L39.25 5.23a1.027 1.027 0 0 0 0-1.467 1.064 1.064 0 0 0-1.49 0l-5.29 5.215-5.293-5.215a1.064 1.064 0 0 0-1.488 0 1.027 1.027 0 0 0 0 1.467l5.537 5.457-5.455 5.375h-7.714V8.345c0-.573-.47-1.037-1.052-1.037-.582 0-1.053.464-1.053 1.037v7.376H8.468c-.582 0-1.053.464-1.053 1.037s.47 1.038 1.053 1.038h7.83v7.602l-5.454 5.376-5.538-5.457a1.064 1.064 0 0 0-1.488 0 1.027 1.027 0 0 0 0 1.467L9.11 32l-5.292 5.216a1.027 1.027 0 0 0 0 1.467 1.059 1.059 0 0 0 1.488 0l5.538-5.457 5.454 5.375v7.603h-7.83c-.582 0-1.053.465-1.053 1.038s.47 1.037 1.053 1.037h7.484v7.376c0 .573.47 1.038 1.053 1.038.581 0 1.052-.465 1.052-1.038v-7.717h7.715l5.454 5.375-5.537 5.457a1.027 1.027 0 0 0 0 1.467 1.063 1.063 0 0 0 1.489 0l5.292-5.215 5.292 5.215c.206.203.475.304.745.304.269 0 .538-.101.744-.304a1.027 1.027 0 0 0 0-1.467l-5.537-5.457 5.454-5.375h7.715v7.717c0 .573.47 1.038 1.053 1.038.581 0 1.053-.465 1.053-1.038v-7.376h7.484c.581 0 1.052-.464 1.052-1.037s-.47-1.038-1.052-1.038h-7.831v-7.603l5.455-5.375 5.537 5.457a1.059 1.059 0 0 0 1.488 0 1.027 1.027 0 0 0 0-1.467L55.83 32zm-8.76 5.216a1.019 1.019 0 0 0-.297.623 1.02 1.02 0 0 0-.237.648v7.376h-7.484c-.25 0-.477.09-.657.233-.231.024-.456.12-.633.294l-5.292 5.215-5.292-5.215a1.05 1.05 0 0 0-.632-.294 1.052 1.052 0 0 0-.658-.233h-7.485v-7.376c0-.246-.09-.47-.236-.648a1.021 1.021 0 0 0-.298-.623L12.577 32l5.292-5.216a1.02 1.02 0 0 0 .298-.623 1.02 1.02 0 0 0 .236-.648v-7.376h7.485c.25 0 .477-.09.658-.233a1.05 1.05 0 0 0 .632-.293l5.292-5.216 5.292 5.216c.177.174.402.269.633.293.18.144.407.233.657.233h7.484v7.376c0 .247.091.47.237.648.024.227.12.449.297.623L52.363 32l-5.293 5.216zM9.51 10.84a1.027 1.027 0 0 1 0-1.468 1.064 1.064 0 0 1 1.489 0l3.227 3.18a1.027 1.027 0 0 1 0 1.468 1.058 1.058 0 0 1-.745.304c-.27 0-.538-.102-.744-.304L9.51 10.84zm45.92 42.32a1.027 1.027 0 0 1 0 1.468 1.057 1.057 0 0 1-.745.303c-.27 0-.539-.1-.745-.303l-3.226-3.18a1.027 1.027 0 0 1 0-1.468 1.064 1.064 0 0 1 1.489 0l3.226 3.18zM31.416 5.535V1.037A1.046 1.046 0 0 1 32.47 0c.581 0 1.053.464 1.053 1.037v4.498c0 .573-.472 1.037-1.053 1.037a1.045 1.045 0 0 1-1.053-1.037zm2.106 52.93v4.498c0 .573-.472 1.037-1.053 1.037a1.045 1.045 0 0 1-1.053-1.037v-4.497c0-.574.471-1.038 1.053-1.038.581 0 1.053.465 1.053 1.038z" fill="#3FACDC"/></g><defs><clipPath id="clip0"><path fill="#fff" d="M0 0h64v64H0z"/></clipPath></defs></svg>