<svg width="64" height="64" fill="none" xmlns="http://www.w3.org/2000/svg"><g clip-path="url(#clip0)" fill="#3FACDC"><path d="M1.25 59.5h61.5a1.25 1.25 0 0 0 0-2.5H52v-8.75h8.634a1.25 1.25 0 0 0 1.056-1.92L55.776 37h2.794a1.25 1.25 0 0 0 1.056-1.92l-5.914-9.33h2.795a1.25 1.25 0 0 0 1.056-1.92l-1.743-2.75a1.25 1.25 0 1 0-2.112 1.338l.528.833H51.44a1.25 1.25 0 0 0-1.056 1.92l5.914 9.33h-2.794a1.25 1.25 0 0 0-1.056 1.92l5.914 9.33h-9.664l-7.922-12.5h2.794a1.25 1.25 0 0 0 1.056-1.92L38.712 22h2.795a1.25 1.25 0 0 0 1.056-1.919l-.395-.623L47 11.835l.686 1.083a1.25 1.25 0 0 0 2.112-1.339l-1.742-2.748a1.25 1.25 0 0 0-2.112 0l-5.256 8.292L33.056 5.08a1.25 1.25 0 0 0-2.112 0l-7.633 12.042-5.255-8.292a1.25 1.25 0 0 0-2.112 0l-9.507 15a1.25 1.25 0 0 0 1.056 1.919h2.795l-5.914 9.33A1.25 1.25 0 0 0 5.43 37h2.794L2.31 46.33a1.25 1.25 0 0 0 1.056 1.92H12V57H1.25a1.25 1.25 0 0 0 0 2.5zm25.753-11.25L27 57h-5v-8.75h5.003zm2.497 0h5V57h-5.003l.003-8.75zM42 57h-5v-8.75h5V57zm7.5 0h-5v-8.75h5V57zM32 8.085L39.236 19.5H36.44a1.25 1.25 0 0 0-1.056 1.92l5.914 9.33h-2.794a1.25 1.25 0 0 0-1.056 1.92l8.29 13.08H18.262l7.922-12.5H32a1.25 1.25 0 0 0 0-2.5h-9.298l5.914-9.33a1.25 1.25 0 0 0-1.056-1.92h-2.796L32 8.085zM11.552 36.419a1.25 1.25 0 0 0-1.056-1.919H7.702l5.914-9.33a1.25 1.25 0 0 0-1.056-1.92H9.765L17 11.835l4.832 7.623-.395.623A1.25 1.25 0 0 0 22.492 22h2.796l-5.914 9.33a1.25 1.25 0 0 0 1.056 1.92h2.794l-7.922 12.5H5.638l5.914-9.33zM19.5 48.25V57h-5v-8.75h5z"/><path d="M51.75 18.25a1.25 1.25 0 1 0 0-2.5 1.25 1.25 0 0 0 0 2.5z"/></g><defs><clipPath id="clip0"><path fill="#fff" d="M0 0h64v64H0z"/></clipPath></defs></svg>