<svg width="40" height="40" fill="none" xmlns="http://www.w3.org/2000/svg"><g clip-path="url(#clip0)" fill="#3FACDC"><path d="M4.167 0H.833A.834.834 0 0 0 0 .833v3.334C0 4.627.373 5 .833 5h3.334C4.627 5 5 4.627 5 4.167V.833A.834.834 0 0 0 4.167 0zm-.834 3.333H1.667V1.667h1.666v1.666zM39.167 0h-3.334A.834.834 0 0 0 35 .833v3.334c0 .46.373.833.833.833h3.334c.46 0 .833-.373.833-.833V.833A.834.834 0 0 0 39.167 0zm-.834 3.333h-1.666V1.667h1.666v1.666zM4.167 35H.833a.834.834 0 0 0-.833.833v3.334c0 .46.373.833.833.833h3.334c.46 0 .833-.373.833-.833v-3.334A.834.834 0 0 0 4.167 35zm-.834 3.333H1.667v-1.666h1.666v1.666zM39.166 35h-3.334a.834.834 0 0 0-.833.833v3.334c0 .46.373.833.833.833h3.334c.46 0 .833-.373.833-.833v-3.334a.834.834 0 0 0-.833-.833zm-.833 3.333h-1.667v-1.666h1.667v1.666z"/><path d="M2.501 3.333a.834.834 0 0 0-.833.834v31.666a.834.834 0 0 0 1.667 0V4.168a.834.834 0 0 0-.834-.833zm33.335-1.666H4.169a.834.834 0 0 0 0 1.666h31.666a.834.834 0 0 0 0-1.667zm1.665 1.666a.834.834 0 0 0-.833.834v31.666a.834.834 0 0 0 1.667 0V4.168a.834.834 0 0 0-.834-.833zm-1.665 33.333H4.169a.834.834 0 0 0 0 1.667h31.666a.834.834 0 0 0 0-1.666z"/></g><defs><clipPath id="clip0"><path fill="#fff" d="M0 0h40v40H0z"/></clipPath></defs></svg>