<svg width="32" height="32" fill="none" xmlns="http://www.w3.org/2000/svg"><path d="M30.235 9.958H26.2a.585.585 0 0 0-.162.023l-9.765 2.803a.584.584 0 0 0 .322 1.122l9.687-2.78h3.953c.33 0 .597.268.597.598v1.66H26.2a.583.583 0 0 0-.294.08l-16.484 9.61v-7.109l5.246-1.505a.584.584 0 1 0-.322-1.123L9.42 14.75v-3.31l7.854-4.126a1.922 1.922 0 0 0 .911-2.337 1.92 1.92 0 0 0-2.195-1.228c-2.873.605-9.94 2.08-13.508 2.696A2.986 2.986 0 0 0 0 9.395v3.6a.584.584 0 1 0 1.168 0V11.67h7.085v15.454H1.168V15.019a.584.584 0 1 0-1.168 0v12.69c0 .322.261.584.584.584h8.253a.584.584 0 0 0 .584-.584v-3.284l16.936-9.873h.27v1.285c0 .322.262.584.585.584h3.503a.584.584 0 0 0 .584-.584v-1.285h.117a.584.584 0 0 0 .584-.584v-2.244c0-.974-.792-1.766-1.765-1.766zm-21.542.546H1.168v-1.11c0-.89.636-1.647 1.513-1.798 3.588-.62 10.672-2.098 13.55-2.705.363-.076.73.13.855.479a.748.748 0 0 1-.355.91l-8.038 4.224zm21.438 4.749h-2.335v-.7h2.335v.7zm.753 4.474l-1.507-1.507a.584.584 0 0 0-.825 0l-1.508 1.507a2.718 2.718 0 0 0 0 3.84c.53.53 1.225.794 1.92.794.696 0 1.391-.265 1.92-.794a2.718 2.718 0 0 0 0-3.84zm-.826 3.014a1.55 1.55 0 0 1-2.188 0 1.55 1.55 0 0 1 0-2.188l1.094-1.094 1.095 1.094a1.55 1.55 0 0 1 0 2.188z" fill="#3FACDC"/></svg>