<svg width="32" height="32" fill="none" xmlns="http://www.w3.org/2000/svg"><g clip-path="url(#clip0)" fill="#3FACDC"><path d="M17.389 15.738a.469.469 0 0 0-.388-.206h-1.312l.745-1.863a.469.469 0 1 0-.87-.348l-1.003 2.505a.469.469 0 0 0 .436.643h1.311l-.745 1.862a.469.469 0 1 0 .87.349l1.003-2.506a.469.469 0 0 0-.047-.436z"/><path d="M29.415 2.685A8.931 8.931 0 0 0 23.166.001c-2.36-.04-4.612.876-6.342 2.578a9.368 9.368 0 0 0-2.796 6.632v1.811h-1.536c-.81 0-1.47.66-1.47 1.47v7.015c0 .81.66 1.47 1.47 1.47h1.536v2.037a5.054 5.054 0 0 1-1.652 3.729 4.999 4.999 0 0 1-3.878 1.29c-2.554-.24-4.555-2.516-4.555-5.18a.469.469 0 1 0-.938 0c0 1.511.545 2.97 1.535 4.106a5.85 5.85 0 0 0 4.454 2.035 5.91 5.91 0 0 0 4.013-1.558 5.994 5.994 0 0 0 1.958-4.422v-2.036h2.069v1.81a8.424 8.424 0 0 1-2.516 5.965c-1.55 1.524-3.562 2.343-5.67 2.308a7.998 7.998 0 0 1-5.596-2.404 7.999 7.999 0 0 1-2.315-5.643V16.5c0-.018.015-.032.032-.032h2.004c.018 0 .033.014.033.032v4.321a.469.469 0 1 0 .937 0V16.5a.97.97 0 0 0-.97-.97H2.44v-2.537a.469.469 0 1 0-.937 0v2.537H.969a.97.97 0 0 0-.97.97v6.513c0 2.37.918 4.608 2.585 6.3A8.93 8.93 0 0 0 8.98 32c2.307 0 4.502-.913 6.196-2.579a9.368 9.368 0 0 0 2.796-6.633v-1.81h1.535c.811 0 1.471-.66 1.471-1.471v-7.014c0-.811-.66-1.47-1.47-1.47H17.97V8.985c0-1.414.602-2.773 1.652-3.729a5 5 0 0 1 3.878-1.29c2.554.24 4.555 2.516 4.555 5.18a.469.469 0 0 0 .937 0 6.25 6.25 0 0 0-1.534-4.106 5.85 5.85 0 0 0-3.87-2.008 5.925 5.925 0 0 0-4.597 1.531 5.994 5.994 0 0 0-1.958 4.422v2.036h-2.069v-1.81c0-2.219.917-4.393 2.516-5.965C19.03 1.723 21.043.904 23.15.939a7.999 7.999 0 0 1 5.595 2.404 8 8 0 0 1 2.316 5.643v6.513a.032.032 0 0 1-.033.032h-2.004a.032.032 0 0 1-.032-.032v-4.321a.469.469 0 0 0-.937 0v4.32c0 .536.435.97.97.97h.533v2.538a.469.469 0 0 0 .937 0v-2.537h.533a.97.97 0 0 0 .97-.97V8.986a8.93 8.93 0 0 0-2.584-6.3zm-9.909 9.275c.294 0 .534.239.534.533v7.014c0 .294-.24.533-.534.533h-7.014a.534.534 0 0 1-.533-.533v-7.014c0-.294.24-.533.533-.533h7.014zM1.39 11.282L.889 10.28a.469.469 0 1 0-.839.419l.501 1.002a.469.469 0 1 0 .839-.42z"/><path d="M3.686 10.07a.469.469 0 0 0-.63.21l-.5 1.002a.469.469 0 1 0 .838.419l.501-1.002a.469.469 0 0 0-.21-.629zM31.95 21.301l-.5-1.002a.468.468 0 1 0-.84.42l.502 1.002a.469.469 0 0 0 .838-.42zm-2.712-1.211a.469.469 0 0 0-.63.21l-.5 1.001a.469.469 0 1 0 .838.42l.501-1.003a.469.469 0 0 0-.21-.628z"/></g><defs><clipPath id="clip0"><path fill="#fff" d="M0 0h32v32H0z"/></clipPath></defs></svg>