<svg width="40" height="40" fill="none" xmlns="http://www.w3.org/2000/svg"><g clip-path="url(#clip0)" fill="#3FACDC"><path d="M39.31 37.241a.69.69 0 0 0-.689.69v.69h-.69a.69.69 0 1 0 0 1.378h1.38a.69.69 0 0 0 .69-.689v-1.38a.69.69 0 0 0-.69-.689zm-4.639 1.38h-3.26a.69.69 0 1 0 0 1.38h3.26a.69.69 0 0 0 0-1.38zm-6.518 0h-3.26a.69.69 0 0 0 0 1.38h3.26a.69.69 0 0 0 0-1.38zm-19.566 0h-3.26a.69.69 0 1 0 0 1.38h3.26a.69.69 0 1 0 0-1.38zm6.523 0h-3.26a.69.69 0 0 0 0 1.38h3.26a.69.69 0 1 0 0-1.38zm6.52 0h-3.26a.69.69 0 0 0 0 1.38h3.26a.69.69 0 0 0 0-1.38zM2.069 38.62h-.69v-.69a.69.69 0 0 0-1.379 0v1.38c0 .381.309.69.69.69h1.379a.69.69 0 1 0 0-1.38zM.69 30.72a.69.69 0 0 0-.69.69v3.26a.69.69 0 1 0 1.38 0v-3.26a.69.69 0 0 0-.69-.69zm0-6.52a.69.69 0 0 0-.69.69v3.26a.69.69 0 1 0 1.38 0v-3.26a.69.69 0 0 0-.69-.69zm0-6.52a.69.69 0 0 0-.69.69v3.26a.69.69 0 1 0 1.38 0v-3.26a.69.69 0 0 0-.69-.69zm0-13.04a.69.69 0 0 0-.69.69v3.26a.69.69 0 1 0 1.38 0V5.33a.69.69 0 0 0-.69-.69zm0 6.52a.69.69 0 0 0-.69.69v3.26a.69.69 0 0 0 1.38 0v-3.26a.69.69 0 0 0-.69-.69zM2.069.001H.689A.69.69 0 0 0 0 .691V2.07a.69.69 0 1 0 1.38 0v-.69h.689a.69.69 0 0 0 0-1.379zM15.108 0h-3.26a.69.69 0 1 0 0 1.38h3.26a.69.69 0 1 0 0-1.38zM8.59 0H5.33a.69.69 0 1 0 0 1.38h3.26a.69.69 0 1 0 0-1.38zm13.038 0h-3.26a.69.69 0 1 0 0 1.38h3.26a.69.69 0 1 0 0-1.38zm13.04 0h-3.26a.69.69 0 0 0 0 1.38h3.26a.69.69 0 0 0 0-1.38zM28.15 0h-3.26a.69.69 0 1 0 0 1.38h3.26a.69.69 0 1 0 0-1.38zm11.16 0h-1.38a.69.69 0 1 0 0 1.38h.69v.689a.69.69 0 1 0 1.38 0V.689A.69.69 0 0 0 39.31 0zm-.001 11.16a.69.69 0 0 0-.69.69v3.26a.69.69 0 0 0 1.38 0v-3.26a.69.69 0 0 0-.69-.69zm0-6.52a.69.69 0 0 0-.69.69v3.26a.69.69 0 0 0 1.38 0V5.33a.69.69 0 0 0-.69-.69zm0 26.082a.69.69 0 0 0-.69.69v3.26a.69.69 0 0 0 1.38 0v-3.26a.69.69 0 0 0-.69-.69zm0-6.522a.69.69 0 0 0-.69.69v3.26a.69.69 0 0 0 1.38 0v-3.26a.69.69 0 0 0-.69-.69zm0-6.52a.69.69 0 0 0-.69.69v3.26a.69.69 0 0 0 1.38 0v-3.26a.69.69 0 0 0-.69-.69z"/><path d="M20 19.31H.69A.69.69 0 0 0 0 20v19.31c0 .382.309.69.69.69H20a.69.69 0 0 0 .69-.69V20a.69.69 0 0 0-.69-.69zm-.69 19.31H1.38V20.69h17.93v17.93z"/></g><defs><clipPath id="clip0"><path fill="#fff" d="M0 0h40v40H0z"/></clipPath></defs></svg>