<svg width="32" height="32" fill="none" xmlns="http://www.w3.org/2000/svg"><g clip-path="url(#clip0)"><path d="M31.273 11.636h-5.091V2.909h2.182a.728.728 0 0 0 0-1.455h-2.91a.7.7 0 0 0-.332.092c-.012.006-.025.003-.035.01L.359 16.1a.729.729 0 0 0-.257.997.724.724 0 0 0 .995.256l.358-.211v6.13H.727A.727.727 0 0 0 0 24v5.818c0 .401.326.727.727.727h30.546a.728.728 0 0 0 .727-.727V12.363a.728.728 0 0 0-.727-.727zM20.363 6.02l4.364-2.567v8.183H24a.728.728 0 0 0-.727.727v2.182h-2.91V6.02zm-5.818 3.422l4.364-2.567v7.67h-.727a.728.728 0 0 0-.727.727v2.182h-2.91V9.442zm-5.818 3.423l4.364-2.567v7.156h-.727a.728.728 0 0 0-.728.727v2.182H8.727v-7.498zM2.91 16.288l4.364-2.568v6.643h-.728a.728.728 0 0 0-.727.727v2.182H2.91v-6.984zM30.546 29.09H1.455v-4.363h5.09A.728.728 0 0 0 7.273 24v-2.182h5.09a.728.728 0 0 0 .728-.728v-2.18h5.09a.728.728 0 0 0 .728-.728V16H24a.728.728 0 0 0 .727-.727V13.09h5.819v16z" fill="#3FACDC"/></g><defs><clipPath id="clip0"><path fill="#fff" d="M0 0h32v32H0z"/></clipPath></defs></svg>