<svg width="38" height="38" fill="none" xmlns="http://www.w3.org/2000/svg"><g clip-path="url(#clip0)" fill="#3FACDC"><path d="M31.657 6.203c.307 0 .556-.25.556-.557V2.082A2.085 2.085 0 0 0 30.131 0H7.868a2.084 2.084 0 0 0-2.082 2.082v31.515c0 1.148.934 2.082 2.082 2.082h.389v1.014c0 .72.586 1.307 1.307 1.307h1.58c.72 0 1.306-.586 1.306-1.307v-1.014h13.1v1.014c0 .72.586 1.307 1.307 1.307h1.579c.72 0 1.307-.586 1.307-1.307v-1.014h.389a2.084 2.084 0 0 0 2.082-2.082V8.248a.557.557 0 0 0-1.114 0v4.533H15.255a.557.557 0 1 0 0 1.113H31.1v19.703a.97.97 0 0 1-.969.969H7.868a.97.97 0 0 1-.969-.97V13.895h5.754a.557.557 0 0 0 0-1.113H6.9v-10.7a.97.97 0 0 1 .97-.969h22.26a.97.97 0 0 1 .969.97v3.563c0 .307.25.557.557.557zm-20.32 30.49a.194.194 0 0 1-.194.194H9.564a.194.194 0 0 1-.194-.194v-1.014h1.967v1.014zm17.292 0a.194.194 0 0 1-.194.194h-1.579a.194.194 0 0 1-.194-.194v-1.014h1.967v1.014z"/><path d="M8.313 4.351v5.192c0 .87.707 1.577 1.576 1.577.87 0 1.577-.707 1.577-1.577V4.351c0-.87-.708-1.577-1.577-1.577-.87 0-1.576.708-1.576 1.577zm2.04 0v5.192a.464.464 0 0 1-.927 0V4.351a.464.464 0 0 1 .926 0zm-2.04 12.427v5.192c0 .87.707 1.577 1.576 1.577.87 0 1.577-.707 1.577-1.577v-5.192a1.577 1.577 0 0 0-3.153 0zm2.04 0v5.192a.464.464 0 0 1-.927 0v-5.192a.464.464 0 0 1 .926 0z"/></g><defs><clipPath id="clip0"><path fill="#fff" d="M0 0h38v38H0z"/></clipPath></defs></svg>