<svg width="32" height="32" fill="none" xmlns="http://www.w3.org/2000/svg"><g clip-path="url(#clip0)"><path d="M31.948 21.56a.648.648 0 0 0 .021-.423l-2.636-8.567V4.666A3.337 3.337 0 0 0 26 1.333H6a3.337 3.337 0 0 0-3.333 3.333v7.904L.03 21.137a.65.65 0 0 0 .021.424A1.976 1.976 0 0 0 0 22v8c0 .368.299.666.667.666h2.666A.667.667 0 0 0 4 30v-2h24v2c0 .368.299.666.667.666h2.666A.667.667 0 0 0 32 30v-8c0-.152-.02-.298-.052-.44zM4 4.667c0-1.102.897-2 2-2h20c1.103 0 2 .898 2 2V12h-1.812l-.621-2.486A2 2 0 0 0 23.625 8h-4.292c-1.102 0-2 .897-2 2v2h-2.666v-2c0-1.102-.898-2-2-2H8.375c-.92 0-1.718.625-1.942 1.516L5.812 12H4V4.666zm20.819 8.41a.666.666 0 0 1-.527.257h-4.959a.668.668 0 0 1-.666-.667V10c0-.368.3-.667.666-.667h4.294c.306 0 .572.207.646.504l.667 2.667c.05.2.007.409-.121.573zM13.335 10v2.66l-.002.006v.003a.667.667 0 0 1-.665.664H7.71a.664.664 0 0 1-.648-.83l.667-2.666a.667.667 0 0 1 .648-.504h4.292c.367 0 .667.299.667.667zm-9.51 3.333h2.007c.07.2.163.392.297.565.384.488.959.768 1.579.768h4.959c.868 0 1.601-.56 1.877-1.333h2.912a1.996 1.996 0 0 0 1.877 1.333h4.959c.62 0 1.193-.28 1.577-.768.135-.172.227-.365.298-.565h2.008l2.058 6.69C30.156 20.015 30.08 20 30 20H2c-.08 0-.156.014-.232.024l2.057-6.691zm-1.158 16H1.333V28h1.334v1.333zm28 0h-1.334V28h1.334v1.333zm0-2.667H1.333V22c0-.368.3-.667.667-.667h28c.367 0 .667.299.667.667v4.666z" fill="#3FACDC"/></g><defs><clipPath id="clip0"><path fill="#fff" d="M0 0h32v32H0z"/></clipPath></defs></svg>