<svg width="32" height="32" fill="none" xmlns="http://www.w3.org/2000/svg"><g clip-path="url(#clip0)" fill="#3FACDC"><path d="M27.65 3.25L17.235.18a4.361 4.361 0 0 0-2.473 0L4.346 3.25A1.831 1.831 0 0 0 3.04 4.997v8.626c0 3.992 1.188 7.836 3.437 11.117a19.672 19.672 0 0 0 8.833 7.125 1.823 1.823 0 0 0 1.377 0 19.67 19.67 0 0 0 8.833-7.125 19.579 19.579 0 0 0 3.436-11.117V4.997a1.83 1.83 0 0 0-1.306-1.746zm-.15 10.373c0 3.697-1.1 7.256-3.182 10.293a18.22 18.22 0 0 1-8.18 6.599.368.368 0 0 1-.28 0 18.22 18.22 0 0 1-8.18-6.6 18.129 18.129 0 0 1-3.181-10.292V4.997c0-.16.107-.304.261-.349l10.416-3.072a2.91 2.91 0 0 1 1.648 0l10.416 3.072a.366.366 0 0 1 .261.35v8.625z"/><path d="M24.073 6.472l-7.763-2.29a1.09 1.09 0 0 0-.618 0L7.93 6.472a1.1 1.1 0 0 0-.784 1.048v6.103c0 3.225.975 6.318 2.82 8.945a15.682 15.682 0 0 0 5.53 4.864 1.09 1.09 0 0 0 1.011 0 15.684 15.684 0 0 0 5.529-4.864 15.481 15.481 0 0 0 2.82-8.945V7.52a1.1 1.1 0 0 0-.783-1.048zm-.673 7.15c0 2.924-.884 5.728-2.556 8.108A14.228 14.228 0 0 1 16 26.05a14.229 14.229 0 0 1-4.842-4.32 14.032 14.032 0 0 1-2.556-8.107v-5.83L16 5.61l7.4 2.182v5.83z"/></g><defs><clipPath id="clip0"><path fill="#fff" d="M0 0h32v32H0z"/></clipPath></defs></svg>