<svg width="32" height="32" fill="none" xmlns="http://www.w3.org/2000/svg"><path d="M30 15.94H2c-1.103 0-2 .898-2 2 0 1.103.897 2 2 2h28c1.103 0 2-.897 2-2 0-1.102-.897-2-2-2zm0 2.667H2a.668.668 0 0 1 0-1.333h28a.668.668 0 0 1 0 1.333z" fill="#3FACDC"/><path d="M30.184 18.633a.664.664 0 0 0-.824.459l-1.837 6.432a3.349 3.349 0 0 1-3.205 2.417H7.684a3.35 3.35 0 0 1-3.205-2.417L2.642 19.09a.665.665 0 1 0-1.281.365l1.837 6.433a4.685 4.685 0 0 0 4.486 3.385h16.633a4.687 4.687 0 0 0 4.488-3.385l1.837-6.432a.666.666 0 0 0-.457-.824z" fill="#3FACDC"/><path d="M7.685 25.276a.672.672 0 0 1-.641-.484l-.866-3.032a.665.665 0 1 0-1.281.365l.865 3.032a2.006 2.006 0 0 0 1.923 1.45.666.666 0 1 0 0-1.331zm1.28 2.734a.67.67 0 0 0-.895.298l-1.333 2.667a.668.668 0 0 0 1.194.596l1.333-2.667a.668.668 0 0 0-.299-.894zm16.298 2.967l-1.333-2.666a.667.667 0 1 0-1.193.596l1.333 2.666a.667.667 0 0 0 1.193-.596zM26.78.06c-.68 0-1.32.265-1.802.746l-2.116 2.116a.667.667 0 0 0 .943.943L25.92 1.75c.228-.229.533-.356.865-.356.67 0 1.213.544 1.213 1.214v14a.667.667 0 1 0 1.335-.002v-14A2.55 2.55 0 0 0 26.779.06z" fill="#3FACDC"/><path d="M24.474 3.59l-1.333-1.333a.655.655 0 0 0-.58-.187l-3.333.547a.664.664 0 0 0-.37 1.121l4 4.12a.659.659 0 0 0 .667.176.664.664 0 0 0 .466-.508l.666-3.333a.668.668 0 0 0-.183-.603zM22.93 6.02l-2.228-2.295 1.737-.284.84.839-.349 1.74zm-7.126 2.116a.667.667 0 0 0-.943 0L13.528 9.47a.667.667 0 0 0 .943.942l1.333-1.333a.667.667 0 0 0 0-.943zm2.666 2.667a.667.667 0 0 0-.943 0l-1.334 1.334a.667.667 0 0 0 .943.942l1.334-1.333a.667.667 0 0 0 0-.943zm1.334-4a.667.667 0 0 0-.943 0l-1.333 1.334a.667.667 0 0 0 .943.942l1.333-1.333a.667.667 0 0 0 0-.943z" fill="#3FACDC"/></svg>