<svg width="32" height="32" fill="none" xmlns="http://www.w3.org/2000/svg"><path d="M20.267 20.32v-4.854c0-.882-.718-1.6-1.6-1.6H3.733c-.882 0-1.6.718-1.6 1.6v4.854A2.672 2.672 0 0 0 0 22.933v8.533c0 .295.239.534.533.534h2.134a.533.533 0 0 0 .533-.534v-1.6h16v1.6c0 .295.239.534.533.534h2.134a.533.533 0 0 0 .533-.534v-8.533a2.672 2.672 0 0 0-2.133-2.613zM3.2 15.466c0-.294.24-.533.533-.533h14.934c.293 0 .533.24.533.533v4.8h-1.067v-2.133c0-.882-.717-1.6-1.6-1.6h-3.2c-.882 0-1.6.718-1.6 1.6v2.133h-1.066v-2.133c0-.882-.718-1.6-1.6-1.6h-3.2c-.882 0-1.6.718-1.6 1.6v2.133H3.2v-4.8zm13.867 2.667v2.133H12.8v-2.133c0-.294.24-.534.533-.534h3.2c.294 0 .534.24.534.534zm-7.467 0v2.133H5.333v-2.133c0-.294.24-.534.534-.534h3.2c.294 0 .533.24.533.534zm11.733 12.8h-1.066v-1.6a.534.534 0 0 0-.534-.534H2.667a.534.534 0 0 0-.534.534v1.6H1.067v-4.267h20.266v4.267zm0-5.334H1.067v-2.666c0-.882.718-1.6 1.6-1.6h17.066c.883 0 1.6.718 1.6 1.6v2.666zm10.134-5.332H24a.533.533 0 0 0-.533.533v8h1.067v-3.2h6.4v3.2H32v-8a.533.533 0 0 0-.533-.533zm-.534 4.266h-6.4v-3.2h6.4v3.2z" fill="#3FACDC"/><path d="M28.8 22.4h-2.134v1.067H28.8V22.4zm1.574-6.57l-1.067-3.2a.533.533 0 0 0-.506-.363h-2.133a.533.533 0 0 0-.507.364l-1.066 3.2a.533.533 0 0 0 .506.702h1.6v1.6h-1.067V19.2h3.2v-1.067h-1.066v-1.6h1.6a.532.532 0 0 0 .506-.702zm-4.033-.363l.711-2.134h1.365l.71 2.134h-2.786z" fill="#3FACDC"/><path d="M31.685 6.98L16.218.046a.536.536 0 0 0-.436 0L.315 6.98A.534.534 0 0 0 0 7.467v6.4h1.067V7.812L16 1.118l14.933 6.694v6.055H32v-6.4c0-.21-.123-.4-.315-.487z" fill="#3FACDC"/><path d="M19.681 7.378l-1.052.177A2.67 2.67 0 0 1 16 10.666 2.67 2.67 0 0 1 13.334 8a2.67 2.67 0 0 1 3.557-2.515l.355-1.006A3.737 3.737 0 0 0 12.267 8 3.737 3.737 0 0 0 16 11.734a3.737 3.737 0 0 0 3.681-4.355z" fill="#3FACDC"/><path d="M19.357 4.423L16 7.779l-.69-.69-.753.755 1.066 1.066a.532.532 0 0 0 .754 0l3.734-3.733-.754-.754z" fill="#3FACDC"/></svg>