<svg width="32" height="32" fill="none" xmlns="http://www.w3.org/2000/svg"><g clip-path="url(#clip0)" fill="#3FACDC"><path d="M2.28 14.714a.749.749 0 0 0-.22.645l.224 1.528a.752.752 0 0 0 .394.554l1.184 8.1a.736.736 0 0 0-.22.645l.224 1.528a.752.752 0 0 0 .394.554l.301 2.06c.14.953.971 1.672 1.935 1.672h8.41a.469.469 0 1 0 0-.938h-1.039l-.094-2.707h4.455l-.095 2.707h-1.039a.469.469 0 0 0 0 .938h8.411c.964 0 1.796-.72 1.935-1.673l.3-2.059a.753.753 0 0 0 .395-.554l.223-1.528a.749.749 0 0 0-.219-.645l1.184-8.1a.753.753 0 0 0 .394-.554l.223-1.528a.75.75 0 0 0-.219-.645l.35-2.398a1.275 1.275 0 0 0-1.262-1.46h-9.172l-.782-2.48a3.459 3.459 0 0 1 .333-2.795c.13-.218.237-.451.318-.692a.469.469 0 1 0-.888-.301c-.06.18-.14.353-.236.516a4.397 4.397 0 0 0-.42 3.555l.692 2.197h-5.307l.686-2.175c.381-1.21.236-2.504-.399-3.552a2.762 2.762 0 0 1 4.948-2.41.469.469 0 1 0 .875-.337 3.702 3.702 0 0 0-3.312-2.38 3.698 3.698 0 0 0-3.313 5.612c.495.818.607 1.832.307 2.785l-.775 2.457H3.192a1.275 1.275 0 0 0-1.263 1.46l.35 2.398zm26.701.724l-.168 1.153H3.188l-.168-1.153h25.96zm-5.74 9.89h-3.969l.273-7.8h4.448l-.752 7.8zm-15.233-7.8h4.448l.273 7.8h-3.97l-.75-7.8zm5.386 0h5.213l-.273 7.8h-4.667l-.273-7.8zm-6.328 0l.752 7.8h-3.04l-1.14-7.8h3.428zM5.49 30.192l-.269-1.837h2.89l.26 2.707H6.496c-.502 0-.935-.374-1.007-.87zm7.44.87H9.312l-.26-2.707h3.783l.094 2.707zm-8.16-3.644l-.168-1.153H27.4l-.168 1.153H4.77zm14.397.937h3.784l-.261 2.707h-3.617l.094-2.707zm7.346 1.837c-.072.496-.505.87-1.007.87h-1.874l.26-2.707h2.89l-.269 1.837zm.711-4.864h-3.04l.752-7.8h3.428l-1.14 7.8zm1.842-13.417a.335.335 0 0 1 .079.27l-.34 2.32h-3.578l.261-2.707h3.322c.135 0 .218.073.256.117zm-4.78 2.59H19.65l.095-2.707h4.8l-.262 2.707zm-5.477-2.707l-.095 2.707h-5.426l-.094-2.707h5.615zm-6.553 0l.095 2.707H7.717l-.261-2.707h4.799zm-9.319.117a.334.334 0 0 1 .256-.117h3.322l.26 2.707H3.197l-.339-2.32a.335.335 0 0 1 .079-.27z"/><path d="M14.24 3.673c0 .971.79 1.761 1.76 1.761.971 0 1.761-.79 1.761-1.76 0-.972-.79-1.762-1.76-1.762-.972 0-1.762.79-1.762 1.761zm2.584 0a.824.824 0 0 1-1.647 0 .824.824 0 0 1 1.647 0z"/></g><defs><clipPath id="clip0"><path fill="#fff" d="M0 0h32v32H0z"/></clipPath></defs></svg>