<svg width="32" height="28" fill="none" xmlns="http://www.w3.org/2000/svg"><path d="M11.875 14.375a.625.625 0 1 0 0-1.25.625.625 0 0 0 0 1.25zM8.125 12.5a.625.625 0 1 0 0-1.25.625.625 0 0 0 0 1.25zm0 3.75a.625.625 0 1 0 0-1.25.625.625 0 0 0 0 1.25zm-3.75-5.625a.625.625 0 1 0 0-1.25.625.625 0 0 0 0 1.25zm0 3.75a.625.625 0 1 0 0-1.25.625.625 0 0 0 0 1.25zm0 3.75a.625.625 0 1 0 0-1.25.625.625 0 0 0 0 1.25zm-3.75-3.75a.625.625 0 1 0 0-1.25.625.625 0 0 0 0 1.25z" fill="#3FACDC"/><path d="M.458 27.477a.625.625 0 0 0 .703-.28c3.358-5.596 9.497-9.072 16.022-9.072h.067v8.125H16a.625.625 0 1 0 0 1.25h3.75a.625.625 0 1 0 0-1.25H18.5v-8.125h4.75v3.125a.625.625 0 0 0 1.067.442l7.5-7.5a.625.625 0 0 0 0-.884l-7.5-7.5a.625.625 0 0 0-1.067.442v3.125H18.5V1.25h1.25a.625.625 0 1 0 0-1.25H16a.625.625 0 1 0 0 1.25h1.25v8.125h-.067C10.658 9.375 4.518 5.9 1.161.303A.625.625 0 0 0 0 .625v10.313a.625.625 0 1 0 1.25 0V2.67a19.938 19.938 0 0 0 15.933 7.955h.067v6.25h-.067A19.938 19.938 0 0 0 1.25 24.83v-8.267a.625.625 0 1 0-1.25 0v10.312c0 .28.187.527.458.602zM18.5 10.625h5.375c.345 0 .625-.28.625-.625V7.759l5.991 5.991-5.991 5.991V17.5a.625.625 0 0 0-.625-.625H18.5v-6.25z" fill="#3FACDC"/></svg>