<svg width="40" height="40" fill="none" xmlns="http://www.w3.org/2000/svg"><g clip-path="url(#clip0)" fill="#3FACDC"><path d="M20 33.334c-7.352 0-13.334-5.982-13.334-13.334 0-7.352 5.982-13.333 13.334-13.333 7.352 0 13.333 5.981 13.333 13.333S27.352 33.334 20 33.334zM20 8C13.383 8 8 13.384 8 20c0 6.617 5.383 12 12 12 6.616 0 12-5.383 12-12 0-6.616-5.384-12-12-12zm0 32a.667.667 0 0 1-.666-.667v-4a.667.667 0 0 1 1.333 0v4A.667.667 0 0 1 20 40zm0-34.667a.667.667 0 0 1-.666-.666v-4a.667.667 0 0 1 1.333 0v4a.667.667 0 0 1-.667.666zM4.667 20.667h-4a.667.667 0 0 1 0-1.334h4a.667.667 0 0 1 0 1.334zm34.666 0h-4a.667.667 0 0 1 0-1.334h4a.667.667 0 0 1 0 1.334z"/><path d="M16.666 30a.664.664 0 0 1-.649-.817l1.812-7.85h-3.162a.667.667 0 0 1-.505-1.103l8.667-10a.667.667 0 0 1 1.153.587l-1.81 7.85h3.161a.667.667 0 0 1 .504 1.102l-8.666 10a.664.664 0 0 1-.505.23zm-.54-10h2.54a.666.666 0 0 1 .65.816l-1.397 6.054L23.873 20h-2.54a.668.668 0 0 1-.65-.817l1.398-6.053L16.127 20zM33.67 34.337a.666.666 0 0 1-.47-.195l-2.829-2.828a.666.666 0 1 1 .943-.943l2.828 2.828a.666.666 0 0 1-.472 1.138zM9.158 9.824a.665.665 0 0 1-.472-.196L5.858 6.8a.666.666 0 1 1 .942-.942l2.83 2.828a.665.665 0 0 1-.471 1.138zM6.33 34.337a.667.667 0 0 1-.472-1.138l2.828-2.828a.666.666 0 1 1 .943.943L6.8 34.142c-.13.13-.3.195-.47.195zM30.842 9.824a.666.666 0 0 1-.471-1.138L33.2 5.858a.666.666 0 1 1 .943.942l-2.828 2.828a.666.666 0 0 1-.472.196z"/></g><defs><clipPath id="clip0"><path fill="#fff" d="M0 0h40v40H0z"/></clipPath></defs></svg>