<svg width="32" height="32" fill="none" xmlns="http://www.w3.org/2000/svg"><g clip-path="url(#clip0)" fill="#3FACDC"><path d="M31.456 2.806a.545.545 0 0 0 .546-.545V.545A.545.545 0 0 0 31.456 0H6.791a.545.545 0 0 0-.545.545V25.21c0 .301.244.545.545.545h24.665a.545.545 0 0 0 .546-.545V4.078a.545.545 0 0 0-1.09 0v9.338h-2.165a.545.545 0 1 0 0 1.09h2.164v10.16H15.34v-2.638a.545.545 0 1 0-1.09 0v2.637H7.335V1.09h6.913v17.014a.545.545 0 1 0 1.09 0v-3.598h9.702a.545.545 0 0 0 0-1.09h-9.702V1.09H30.91v1.171c0 .301.244.545.545.545zm-26.851.34L2.807.257a.545.545 0 0 0-.926 0L.083 3.146a.545.545 0 0 0 .463.833h1.253v2.279a.545.545 0 0 0 1.09 0v-2.28h1.254a.545.545 0 0 0 .462-.832zm-3.078-.257l.817-1.313.817 1.313H1.527zM4.62 22.057a.545.545 0 0 0-.477-.28H2.889V7.71a.545.545 0 0 0-1.09 0v14.065H.546a.545.545 0 0 0-.463.833l1.798 2.889a.545.545 0 0 0 .926 0l1.798-2.889a.545.545 0 0 0 .014-.552zm-2.276 2.122l-.817-1.313h1.634l-.817 1.313zm29.401 5.014l-2.89-1.798a.545.545 0 0 0-.832.463v1.253H10.225v-1.253a.545.545 0 0 0-.833-.463l-2.889 1.798a.545.545 0 0 0 0 .926l2.889 1.798a.545.545 0 0 0 .833-.462V30.2h17.798v1.254a.545.545 0 0 0 .833.462l2.889-1.798a.545.545 0 0 0 0-.926zm-22.61 1.28l-1.313-.817 1.313-.817v1.634zm19.978 0V28.84l1.312.817-1.312.817z"/></g><defs><clipPath id="clip0"><path fill="#fff" d="M0 0h32v32H0z"/></clipPath></defs></svg>