<svg width="32" height="32" fill="none" xmlns="http://www.w3.org/2000/svg"><g clip-path="url(#clip0)" fill="#3FACDC"><path d="M29.867 27.733v-7.466c-.006-5.594-4.54-10.127-10.133-10.134H14.4a.533.533 0 0 1-.533-.533V4.267c.589 0 1.067-.478 1.067-1.067V1.067c0-.59-.478-1.067-1.067-1.067H2.134c-.59 0-1.067.478-1.067 1.067V3.2c0 .59.477 1.067 1.067 1.067v7.466c.006 5.594 4.539 10.127 10.133 10.134H17.6c.295 0 .534.238.534.533v5.333c-.59 0-1.067.478-1.067 1.067v2.133c0 .59.477 1.067 1.067 1.067h11.733c.589 0 1.067-.478 1.067-1.067V28.8c0-.59-.478-1.067-1.067-1.067zM2.134 1.067h11.733V3.2H2.134V1.067zM17.6 20.8h-5.333A9.077 9.077 0 0 1 3.2 11.733V4.267h9.6V9.6a1.6 1.6 0 0 0 1.6 1.6h5.334a9.077 9.077 0 0 1 9.066 9.067v7.466h-9.6V22.4a1.6 1.6 0 0 0-1.6-1.6zm.534 10.133V28.8h11.733v2.133H18.134z"/><path d="M20.8 23.467h6.4a.533.533 0 1 0 0-1.067h-6.4a.533.533 0 0 0 0 1.067zM11.2 8.533H4.8a.533.533 0 0 0 0 1.067h6.4a.533.533 0 1 0 0-1.067zm4.802 3.734a.533.533 0 0 0-.534.533v6.4a.533.533 0 1 0 1.067 0v-6.4a.533.533 0 0 0-.533-.533z"/></g><defs><clipPath id="clip0"><path fill="#fff" d="M0 0h32v32H0z"/></clipPath></defs></svg>