<svg width="40" height="40" fill="none" xmlns="http://www.w3.org/2000/svg"><path d="M23.951 10.875H10.124a.74.74 0 0 0-.74.738.74.74 0 0 0 .74.739h13.827a.74.74 0 0 0 0-1.477zm-5.926 4.921h-7.9a.74.74 0 0 0-.742.739.74.74 0 0 0 .741.738h7.901a.74.74 0 0 0 0-1.477zm7.406 5.456a3.204 3.204 0 0 0-3.21 3.2 3.204 3.204 0 0 0 3.21 3.199 3.204 3.204 0 0 0 3.21-3.199c0-1.767-1.436-3.2-3.21-3.2zm0 4.922a1.727 1.727 0 0 1-1.728-1.723c0-.95.775-1.722 1.729-1.722.953 0 1.728.772 1.728 1.723 0 .949-.775 1.722-1.729 1.722z" fill="#3FACDC"/><path d="M38.025 1.976H1.975A1.977 1.977 0 0 0 0 3.944v26.185c0 1.083.889 1.969 1.975 1.969h17.182l-1.13 2.966v-.002a1.182 1.182 0 0 0-.08.414.96.96 0 0 0 .307.711c.21.193.472.26.69.258.074 0 .147-.007.216-.02l1.847-.33.07.02.033.018 1.162 1.47c.085.107.19.208.327.287a.955.955 0 0 0 1.114-.098 1.13 1.13 0 0 0 .315-.457l1.54-4.043 1.54 4.043c.061.158.156.32.315.457a.957.957 0 0 0 1.114.098 1.15 1.15 0 0 0 .325-.285l.001-.002 1.162-1.468.051-.028.052-.011 1.847.33c.07.012.143.02.218.02.216.001.48-.067.689-.26a.962.962 0 0 0 .306-.71 1.16 1.16 0 0 0-.078-.411v-.001l-1.131-2.967h6.046A1.978 1.978 0 0 0 40 30.13V3.944a1.977 1.977 0 0 0-1.975-1.968zM22.932 36.052l-.667-.843a1.544 1.544 0 0 0-.577-.44 1.68 1.68 0 0 0-.683-.15c-.079 0-.16.006-.245.02l-1.06.19 1.719-4.508a7.132 7.132 0 0 0 3.246 1.184l-1.733 4.547zm2.5-5.982c-3.132 0-5.679-2.539-5.679-5.66 0-3.12 2.547-5.66 5.68-5.66 3.131 0 5.678 2.54 5.678 5.66 0 3.121-2.547 5.66-5.679 5.66zm-6.93-3.896H5.925V7.39h28.148v18.785h-1.711c.145-.565.23-1.154.23-1.764 0-3.94-3.205-7.136-7.16-7.136-3.957 0-7.162 3.195-7.162 7.136 0 .61.085 1.2.23 1.764zm11.873 8.466a1.403 1.403 0 0 0-.244-.021c-.25.001-.473.057-.683.151a1.54 1.54 0 0 0-.577.44l-.667.842-1.748-4.586a7.122 7.122 0 0 0 3.2-1.302l1.779 4.666-1.06-.19zm8.144-4.51a.5.5 0 0 1-.494.491h-6.608l-.585-1.533c.381-.436.708-.918.974-1.437h3.256a.494.494 0 0 0 .494-.492V6.405a.495.495 0 0 0-.494-.493H4.938a.495.495 0 0 0-.494.493v20.753c0 .271.223.492.494.492h14.12c.31.605.704 1.158 1.166 1.648l-.505 1.323H1.976a.5.5 0 0 1-.494-.492V3.944a.5.5 0 0 1 .494-.492h36.05a.5.5 0 0 1 .494.492v26.185z" fill="#3FACDC"/></svg>