<svg width="32" height="32" fill="none" xmlns="http://www.w3.org/2000/svg"><path d="M10.6 9.336a.667.667 0 0 0-.423.211l-8.002 8.667a.667.667 0 0 0-.177.452v5.335a.667.667 0 0 0 .67.664h26.668a.667.667 0 0 0 .664-.664v-5.335a.666.666 0 0 0-.177-.452L21.82 9.547a.667.667 0 0 0-.487-.211h-10.67a.663.663 0 0 0-.064 0zm.36 1.329h10.083l7.623 8.262v4.405H3.332v-4.405l7.628-8.262z" fill="#3FACDC"/><path d="M3.268 18.002a.668.668 0 0 0 .064 1.333h7.333a.667.667 0 0 0 0-1.333H3.332a.683.683 0 0 0-.064 0zm9.332 0a.668.668 0 1 0 .069 1.334h.664a.667.667 0 1 0 0-1.334h-.664a.66.66 0 0 0-.069 0zm2.664 0a.668.668 0 1 0 .069 1.334h14.001a.666.666 0 1 0 0-1.334H15.333a.66.66 0 0 0-.069 0zm10.073 2.663a.667.667 0 1 0 0 1.333h1.333a.667.667 0 0 0 0-1.333h-1.333zm-3.34 0a.667.667 0 1 0 0 1.333h1.334a.667.667 0 0 0 0-1.333h-1.334zm-3.33 0a.667.667 0 1 0 0 1.333H20a.667.667 0 0 0 0-1.333h-1.333zM10.664 1.998a.666.666 0 0 0-.664.67V10h1.334V3.332h9.33V10h1.334V2.667a.664.664 0 0 0-.664-.669h-10.67z" fill="#3FACDC"/><path d="M13.322 3.991a.667.667 0 0 0-.654.675v3.336a.667.667 0 0 0 1.334 0V4.666a.666.666 0 0 0-.68-.675zm2.666 0a.667.667 0 0 0-.655.675v3.336a.667.667 0 1 0 1.334 0V4.666a.668.668 0 0 0-.68-.675zm2.669 0a.667.667 0 0 0-.655.675v3.336a.667.667 0 0 0 1.334 0V4.666a.666.666 0 0 0-.68-.675zM15.99 25.994a.667.667 0 0 0-.463.202l-1.333 1.333a.667.667 0 0 0 0 .94l.866.866-.866.862a.667.667 0 1 0 .944.94l1.334-1.334a.667.667 0 0 0 0-.94l-.861-.861.861-.866a.666.666 0 0 0-.482-1.142zm7.33 0a.667.667 0 0 0-.457.202l-1.334 1.333a.667.667 0 0 0 0 .94l.861.866-.861.862a.665.665 0 0 0-.039.978.667.667 0 0 0 .979-.038l1.333-1.334a.667.667 0 0 0 0-.94l-.86-.861.86-.866a.666.666 0 0 0-.482-1.142zm-14.667 0a.667.667 0 0 0-.458.202l-1.333 1.333a.667.667 0 0 0 0 .94l.86.866-.86.862a.666.666 0 1 0 .944.94l1.334-1.334a.667.667 0 0 0 0-.94l-.861-.861.861-.866a.667.667 0 0 0-.487-1.142z" fill="#3FACDC"/></svg>