<svg width="32" height="23" fill="none" xmlns="http://www.w3.org/2000/svg"><g clip-path="url(#clip0)"><path d="M20.764 20.817h-5.877L19.649 4.88h5.861l-.662 2.244h-3.713a.583.583 0 0 0-.598.582c0 .339.259.597.598.597h3.358l-.662 2.244h-3.73a.583.583 0 0 0-.58.598c0 .322.258.58.58.58h3.375l-.678 2.245h-3.714a.607.607 0 0 0-.597.597c0 .323.275.582.597.582h3.375l-.678 2.244h-3.714a.607.607 0 0 0-.597.597c0 .323.274.581.597.581h3.375l-.678 2.245zm-19.375 0L6.136 4.88H9.22v4.49c0 .323.274.597.597.597h3.552a.593.593 0 0 0 .581-.597V4.88h4.456L13.66 20.817H1.39zM10.4 1.2h2.373v7.588h-2.374V1.2zm21.57 20.053s-5.086-17.114-5.103-17.13a.984.984 0 0 0-.08-.194.605.605 0 0 0-.485-.226h-12.35V.619a.583.583 0 0 0-.582-.598H9.817A.596.596 0 0 0 9.22.62v3.084H5.7c-.275 0-.5.161-.565.42L.033 21.252a.539.539 0 0 0 .08.516.62.62 0 0 0 .485.242h20.601c.259 0 .5-.177.566-.435L26.3 6.366l4.311 14.45h-4.908a.593.593 0 0 0-.581.598c0 .323.258.597.581.597h5.7a.566.566 0 0 0 .468-.242.59.59 0 0 0 .096-.516z" fill="#3FACDC"/></g><defs><clipPath id="clip0"><path fill="#fff" d="M0 0h32v22.033H0z"/></clipPath></defs></svg>