<svg width="32" height="32" fill="none" xmlns="http://www.w3.org/2000/svg"><g clip-path="url(#clip0)" fill="#3FACDC" stroke="#3FACDC" stroke-width=".1"><path d="M26.505 0H5.495C4.598 0 3.87.729 3.87 1.624v28.752C3.87 31.27 4.6 32 5.494 32h21.011c.896 0 1.624-.729 1.624-1.624V1.624A1.626 1.626 0 0 0 26.505 0zM4.907 6.566h22.186v22.186H4.907V6.566zm22.186-4.942V5.53H12.648V1.037h13.857c.324 0 .588.263.588.587zM5.494 1.037h6.117v4.492H4.907V1.624c0-.324.263-.587.587-.587zm21.011 29.926H5.495a.588.588 0 0 1-.588-.587v-.588h22.186v.588a.588.588 0 0 1-.588.587z"/><path d="M16 8.847c-4.25 0-7.707 3.457-7.707 7.706 0 4.25 3.457 7.706 7.706 7.706 4.25 0 7.707-3.457 7.707-7.706 0-4.25-3.457-7.706-7.707-7.706zm0 14.376a6.677 6.677 0 0 1-6.67-6.67A6.677 6.677 0 0 1 16 9.883a6.677 6.677 0 0 1 6.669 6.67 6.677 6.677 0 0 1-6.67 6.67zm0-18.316a1.625 1.625 0 1 0-1.624-1.624c0 .895.729 1.624 1.624 1.624zm0-2.212a.588.588 0 1 1 0 1.177.588.588 0 0 1 0-1.177zM6.6 4.907h3.318a.518.518 0 1 0 0-1.036H6.6a.518.518 0 0 0 0 1.036zm12.717-1.106h1.659a.518.518 0 1 0 0-1.036h-1.659a.518.518 0 1 0 0 1.036zm3.87 0h1.66a.518.518 0 0 0 0-1.036h-1.66a.518.518 0 1 0 0 1.036z"/><path d="M16 11.058a5.5 5.5 0 0 0-5.495 5.495 5.5 5.5 0 0 0 5.494 5.494 5.5 5.5 0 0 0 5.495-5.494A5.5 5.5 0 0 0 16 11.058zm0 9.953c-2.459 0-4.458-2-4.458-4.458s2-4.458 4.457-4.458c2.458 0 4.458 2 4.458 4.458s-2 4.458-4.458 4.458z"/></g><defs><clipPath id="clip0"><path fill="#fff" d="M0 0h32v32H0z"/></clipPath></defs></svg>