<svg width="32" height="32" fill="none" xmlns="http://www.w3.org/2000/svg"><g clip-path="url(#clip0)" fill="#3FACDC"><path d="M29.6 32H2.4A2.4 2.4 0 0 1 0 29.6V2.4A2.4 2.4 0 0 1 2.4 0h27.2A2.4 2.4 0 0 1 32 2.4v27.2a2.4 2.4 0 0 1-2.4 2.4zM2.4 1.6a.8.8 0 0 0-.8.8v27.2a.8.8 0 0 0 .8.8h27.2a.8.8 0 0 0 .8-.8V2.4a.8.8 0 0 0-.8-.8H2.4z"/><path d="M11.2 15.2a1.6 1.6 0 1 0 0-3.2 1.6 1.6 0 0 0 0 3.2zm9.6 0a1.6 1.6 0 1 0 0-3.2 1.6 1.6 0 0 0 0 3.2zM16 22.4a1.6 1.6 0 1 0 0-3.2 1.6 1.6 0 0 0 0 3.2z"/><path d="M16 28C9.373 28 4 22.627 4 16S9.373 4 16 4s12 5.373 12 12-5.373 12-12 12zm0-22.4C10.256 5.6 5.6 10.256 5.6 16c0 5.744 4.656 10.4 10.4 10.4 5.744 0 10.4-4.656 10.4-10.4 0-5.744-4.656-10.4-10.4-10.4z"/></g><defs><clipPath id="clip0"><path fill="#fff" d="M0 0h32v32H0z"/></clipPath></defs></svg>