<svg width="32" height="32" fill="none" xmlns="http://www.w3.org/2000/svg"><g clip-path="url(#clip0)" fill="#3FACDC"><path d="M30.547 30.546H1.442v-5.992h3.54v2.863c0 .4.322.721.721.721h20.583a.73.73 0 0 0 .732-.72v-2.864h3.529v5.992zm-4.983-9.564v5.703H6.424v-5.703h19.14zm5.704 2.13h-4.25V10.629c0-.4-.333-.732-.732-.732a.73.73 0 0 0-.722.732v8.899H6.424v-8.899a.73.73 0 0 0-.72-.732.73.73 0 0 0-.722.732v12.483H.722a.72.72 0 0 0-.722.721v7.434c0 .4.322.733.721.733h30.547c.4 0 .732-.333.732-.733v-7.434a.73.73 0 0 0-.732-.721zM1.11 8.899L16 1.53 30.88 8.9c.11.055.21.078.321.078a.736.736 0 0 0 .655-.4.734.734 0 0 0-.333-.976L16.322.078a.729.729 0 0 0-.644 0L.466 7.6a.73.73 0 0 0-.322.976c.178.355.61.5.966.322z"/><path d="M17.809 15.822H14.19v-4.471h3.618v4.471zM13.47 9.897a.73.73 0 0 0-.721.732v5.914c0 .4.322.722.721.722h5.06a.72.72 0 0 0 .721-.722V10.63a.73.73 0 0 0-.721-.732h-5.06zM9.764 24.555h1.52c.41 0 .733-.322.733-.721 0-.4-.322-.721-.733-.721h-1.52a.72.72 0 0 0-.721.721c0 .4.322.721.721.721zm5.47 0h1.531a.72.72 0 0 0 .721-.721.72.72 0 0 0-.72-.721h-1.532a.72.72 0 0 0-.721.721c0 .4.322.721.72.721zm5.471 0h1.53a.72.72 0 0 0 .722-.721.72.72 0 0 0-.721-.721h-1.531a.72.72 0 0 0-.722.721c0 .4.322.721.722.721z"/></g><defs><clipPath id="clip0"><path fill="#fff" d="M0 0h32v32H0z"/></clipPath></defs></svg>