<svg width="32" height="32" fill="none" xmlns="http://www.w3.org/2000/svg"><path d="M29.024 10.144L16.352 1.696a.693.693 0 0 0-.704 0L2.976 10.144a2.373 2.373 0 0 0 .192 4.064c.352.192.736.288 1.12.288a2.8 2.8 0 0 0 .512-.064V27.2c0 1.76 1.44 3.2 3.2 3.2h16c1.76 0 3.2-1.44 3.2-3.2V14.432a2.25 2.25 0 0 0 1.632-.224 2.373 2.373 0 0 0 .192-4.064zM25.92 27.2c0 1.056-.864 1.92-1.92 1.92H8a1.926 1.926 0 0 1-1.92-1.92V13.792L16 7.168l9.92 6.624V27.2zm2.304-14.112c-.352.192-.768.16-1.12-.064L16.352 5.856a.693.693 0 0 0-.704 0L4.896 13.024c-.352.224-.768.256-1.12.064a1.08 1.08 0 0 1-.096-1.856L16 3.008l12.32 8.224c.32.192.48.544.48.896 0 .416-.224.768-.576.96zM13.76 20.16c0-.352.288-.64.64-.64.352 0 .64.288.64.64 0 .352-.288.64-.64.64a.642.642 0 0 1-.64-.64zm3.2 0c0-.352.288-.64.64-.64.352 0 .64.288.64.64 0 .352-.288.64-.64.64a.642.642 0 0 1-.64-.64zm-1.6-5.12v1.28h-1.92v-1.28a.642.642 0 0 0-.64-.64.642.642 0 0 0-.64.64v1.28h-.96a.642.642 0 0 0-.64.64v.96H9.28a.642.642 0 0 0-.64.64c0 .352.288.64.64.64h1.28v1.92H9.28a.642.642 0 0 0-.64.64c0 .352.288.64.64.64h1.28v.96c0 .352.288.64.64.64h.96v1.28c0 .352.288.64.64.64.352 0 .64-.288.64-.64V24h1.92v1.28c0 .352.288.64.64.64.352 0 .64-.288.64-.64V24h1.92v1.28c0 .352.288.64.64.64.352 0 .64-.288.64-.64V24h.96c.352 0 .64-.288.64-.64v-.96h1.28c.352 0 .64-.288.64-.64a.642.642 0 0 0-.64-.64h-1.28V19.2h1.28c.352 0 .64-.288.64-.64a.642.642 0 0 0-.64-.64h-1.28v-.96a.642.642 0 0 0-.64-.64h-.96v-1.28a.642.642 0 0 0-.64-.64.642.642 0 0 0-.64.64v1.28h-1.92v-1.28a.642.642 0 0 0-.64-.64.642.642 0 0 0-.64.64zm4.8 2.56v5.12h-8.32V17.6h8.32z" fill="#3FACDC"/></svg>