<svg width="32" height="32" fill="none" xmlns="http://www.w3.org/2000/svg"><g clip-path="url(#clip0)" fill="#3FACDC"><path d="M.625 16.614h.933c.86 0 1.558.7 1.558 1.558v2.281h4.19a2.958 2.958 0 0 1 1.976-1.141l.878-1.522-3.615-2.088a.625.625 0 0 1-.23-.854l.854-1.478-1.478-.854a.625.625 0 0 1-.23-.854l3.5-6.06a2.97 2.97 0 0 1 2.568-1.477c.516 0 1.025.136 1.472.394l18.686 10.789a.625.625 0 0 1 .23.854l-1.167 2.02a.625.625 0 0 1-.38.29l-1.729.464.714.412a.625.625 0 0 1 .229.854l-2.333 4.04a.625.625 0 0 1-.854.229l-1.479-.854-.854 1.479a.625.625 0 0 1-.853.229l-9.948-5.744-.878 1.521a2.96 2.96 0 0 1-2.728 4.1c-.958 0-1.81-.458-2.352-1.166H3.116v2.28a1.56 1.56 0 0 1-1.558 1.559H.625A.625.625 0 0 1 0 27.25V17.24c0-.346.28-.626.625-.626zm29.172.718l.724-1.254L12.376 5.602a1.717 1.717 0 0 0-2.333.625l-3.186 5.519 13.88 8.014 9.06-2.428zm-3.316 5.744l1.707-2.958-.937-.541-1.708 2.957.938.542zm-3.187.854l2.432-4.213-4.915 1.317a.628.628 0 0 1-.073.015l-.021.002a.65.65 0 0 1-.054.004h-.022a.635.635 0 0 1-.072-.005h-.001a.608.608 0 0 1-.072-.014l-.02-.006a.561.561 0 0 1-.052-.018l-.02-.007a.642.642 0 0 1-.067-.033L8.252 13.995l-.541.937 15.583 8.998zM12.18 18.956l-.937-.541-.601 1.041c.346.123.663.309.936.543l.602-1.043zM7.953 22.35l.001.024.008.081.004.025c.004.03.009.061.015.091a1.658 1.658 0 0 0 .025.11l.007.026a1.782 1.782 0 0 0 .054.16l.016.043.008.016a1.715 1.715 0 0 0 1.566 1.027 1.71 1.71 0 0 0 1.707-1.707 1.71 1.71 0 0 0-1.707-1.708c-.644 0-1.205.358-1.496.885l-.014.027-.03.056a1.72 1.72 0 0 0-.034.076l-.016.042a1.552 1.552 0 0 0-.054.161l-.007.024a1.665 1.665 0 0 0-.024.1l-.001.01-.015.092-.004.025a1.734 1.734 0 0 0-.008.081l-.001.025a1.7 1.7 0 0 0 0 .208zm-4.837.437H6.75l-.006-.035a3.079 3.079 0 0 1-.013-.084l-.008-.059-.009-.08-.005-.071-.005-.07a3.118 3.118 0 0 1-.003-.116v-.053c0-.038 0-.077.003-.116 0-.023.003-.046.005-.07l.005-.07.01-.081.007-.058.013-.085.006-.035H3.116v1.083zM1.25 26.625h.308a.312.312 0 0 0 .308-.308v-8.145a.312.312 0 0 0-.308-.308H1.25v8.76z"/><path d="M15.221 11.432a.625.625 0 0 1 .854-.229l.014.008a.625.625 0 1 1-.625 1.083l-.014-.008a.625.625 0 0 1-.229-.854zm-4.24-2.449a.625.625 0 0 1 .854-.23l2.578 1.49a.625.625 0 1 1-.625 1.082L11.21 9.836a.625.625 0 0 1-.229-.853zm-1.194 2.068a.625.625 0 0 1 .854-.229l.014.008a.625.625 0 1 1-.625 1.083l-.014-.008a.625.625 0 0 1-.229-.854zm1.677.968a.625.625 0 0 1 .854-.23l2.577 1.49a.625.625 0 1 1-.625 1.082l-2.577-1.489a.625.625 0 0 1-.23-.853z"/></g><defs><clipPath id="clip0"><path transform="matrix(-1 0 0 1 32 0)" fill="#fff" d="M0 0h32v32H0z"/></clipPath></defs></svg>