<svg width="32" height="32" fill="none" xmlns="http://www.w3.org/2000/svg"><path d="M8.934 24.771a.728.728 0 0 0 .731-.73v-2.68a.728.728 0 0 0-.73-.732.728.728 0 0 0-.732.731v2.68c0 .407.325.732.731.732zm3.492 0a.727.727 0 0 0 .731-.73v-2.68a.728.728 0 0 0-.73-.732.728.728 0 0 0-.732.731v2.68c0 .407.325.732.731.732zm3.574 0a.728.728 0 0 0 .732-.73v-2.68a.728.728 0 0 0-.732-.732.728.728 0 0 0-.73.731v2.68c0 .407.324.732.73.732zm3.574 0a.728.728 0 0 0 .73-.73v-2.68a.728.728 0 0 0-.73-.732.728.728 0 0 0-.731.731v2.68c0 .407.325.732.73.732zm3.573 0c.406 0 .73-.324.73-.73v-2.68a.728.728 0 0 0-.73-.732.728.728 0 0 0-.731.731v2.68c0 .407.325.732.731.732z" fill="#3FACDC"/><path d="M3.736 19.98v-1.625h24.528v1.625c-1.218.325-2.112 1.38-2.112 2.68 0 1.38.894 2.437 2.112 2.762v1.624H3.736v-1.624c1.218-.325 2.112-1.381 2.112-2.762 0-1.3-.894-2.355-2.112-2.68zm-.65 4.142c-.406 0-.73.325-.73.65v3.005c0 .406.324.73.73.73h25.91c.405 0 .73-.324.73-.73v-3.005c0-.325-.325-.65-.73-.65-.813 0-1.382-.65-1.382-1.462 0-.73.569-1.38 1.381-1.38a.729.729 0 0 0 .731-.732v-2.923a.728.728 0 0 0-.73-.731H3.085a.728.728 0 0 0-.73.73v2.924c0 .407.324.731.73.731.731 0 1.381.65 1.381 1.381 0 .812-.65 1.462-1.38 1.462zm28.183 6.416H.731A.728.728 0 0 0 0 31.27c0 .406.325.731.731.731h30.538a.728.728 0 0 0 .731-.73.728.728 0 0 0-.731-.732zm0-17.138H.731a.728.728 0 0 0-.731.732c0 .406.325.73.731.73h30.538a.728.728 0 0 0 .731-.73.728.728 0 0 0-.731-.731zM14.375 3.411l.894-.974v7.147c0 .406.325.73.73.73a.727.727 0 0 0 .732-.73V2.437l.893.974c.163.081.325.163.569.163.162 0 .324-.082.487-.163a.854.854 0 0 0 0-1.056L16.487.244a.61.61 0 0 0-.975 0L13.32 2.355a.854.854 0 0 0 0 1.056.854.854 0 0 0 1.056 0zM4.142 10.315a4.16 4.16 0 0 0 4.142-4.142V2.437l.975.974c.081.081.325.163.487.163.163 0 .325-.082.487-.163.325-.325.325-.73 0-1.056L8.122.244c-.325-.325-.731-.325-1.056 0L4.954 2.355c-.325.325-.325.731 0 1.056.244.244.731.244.975 0l.893-.974v3.736c0 1.462-1.137 2.68-2.68 2.68-1.462 0-2.68-1.218-2.68-2.68a.728.728 0 0 0-.731-.731.728.728 0 0 0-.731.73 4.16 4.16 0 0 0 4.142 4.143zm18.111-6.741c.244 0 .407-.082.569-.163l.893-.974v3.736a4.16 4.16 0 0 0 4.143 4.142A4.16 4.16 0 0 0 32 6.173a.728.728 0 0 0-.731-.731.728.728 0 0 0-.731.73c0 1.463-1.219 2.68-2.68 2.68-1.462 0-2.68-1.217-2.68-2.68V2.438l.893.974c.243.244.73.244 1.055 0a.854.854 0 0 0 0-1.056L24.934.244c-.244-.325-.731-.325-1.056 0l-2.112 2.111c-.325.325-.325.731 0 1.056.163.081.325.163.487.163z" fill="#3FACDC"/></svg>