<svg width="32" height="32" fill="none" xmlns="http://www.w3.org/2000/svg"><g clip-path="url(#clip0)"><path d="M31.986.611a.52.52 0 0 0-.022-.11.52.52 0 0 0-.054-.098.51.51 0 0 0-.035-.064c-.005-.006-.012-.008-.018-.014a.527.527 0 0 0-.087-.07.522.522 0 0 0-.08-.053.524.524 0 0 0-.09-.026.52.52 0 0 0-.11-.022c-.008 0-.015-.005-.023-.005a.499.499 0 0 0-.072.014.512.512 0 0 0-.109.022.514.514 0 0 0-.099.054.507.507 0 0 0-.064.035L.331 26.111l-.144.123c-.006.005-.008.012-.013.016a.528.528 0 0 0-.07.089.532.532 0 0 0-.052.079.54.54 0 0 0-.025.089.526.526 0 0 0-.023.112c0 .008-.004.013-.004.02v4.678a.533.533 0 0 0 .533.533h30.934a.534.534 0 0 0 .533-.533V.682a.522.522 0 0 0-.014-.07zm-1.053 30.173H1.067v-1.6h29.866v1.6zm0-2.667H3.753l1.271-1.067h25.91v1.067zM6.295 25.984l9.172-7.697v7.697H6.295zm10.238 0v-8.592l.786-.659.281.282v8.969h-1.067zm12.267-.788v.788h-.723l-9.938-9.939.82-.689 9.841 9.84zm-9.02-10.528L28.8 7.1v16.59l-9.02-9.02zm6.789 11.316h-7.902v-7.902l7.902 7.902zm4.364 0h-1.066V6.204l1.066-.895v20.675zm0-22.068L15.625 16.762l-.003.003-11.168 9.372-.006.005-2.354 1.975H1.067v-1.229L30.933 1.826v2.09z" fill="#3FACDC"/></g><defs><clipPath id="clip0"><path fill="#fff" d="M0 0h32v32H0z"/></clipPath></defs></svg>