<svg width="32" height="32" fill="none" xmlns="http://www.w3.org/2000/svg"><path d="M18.834 16.183a2.03 2.03 0 0 1 2.012 2.011v4.572H7.13v-4.572c0-.731-.274-1.463-.64-2.011h12.343zM31.27 0H16c-.366 0-.731.366-.731.731v11.246c0 .457.365.732.731.732.457 0 .823-.275.823-.732V1.554h13.714v28.983H16.823V26.88c0-.366-.366-.731-.823-.731-.366 0-.731.365-.731.731v3.657H1.554V18.194a2.03 2.03 0 0 1 2.012-2.011 2.03 2.03 0 0 1 2.011 2.011v5.303c0 .457.366.732.823.732h15.269a.721.721 0 0 0 .731-.732v-5.303c0-2.011-1.646-3.565-3.566-3.565H3.566C1.554 14.629 0 16.183 0 18.194V31.27a.72.72 0 0 0 .731.731H31.27c.457 0 .731-.274.731-.731V.73a.721.721 0 0 0-.732-.73zM.731 13.44a.82.82 0 0 0 .823-.823V1.554h11.063c.457 0 .732-.365.732-.823A.721.721 0 0 0 12.617 0H.731C.366 0 0 .366 0 .731v11.886c0 .457.366.823.731.823z" fill="#3FACDC"/><path d="M7.588 8.869h1.646c.365 0 .731-.366.731-.823 0-.366-.366-.732-.731-.732H7.588a.721.721 0 0 0-.732.732c0 .457.275.823.732.823zM4.663 5.486h1.554a.82.82 0 0 0 .823-.823c0-.366-.366-.731-.823-.731H4.663c-.457 0-.823.365-.823.731a.82.82 0 0 0 .823.823zm7.497-1.554h-1.645c-.366 0-.732.365-.732.731 0 .457.366.823.732.823h1.645c.366 0 .732-.366.732-.823 0-.366-.366-.731-.732-.731zm-7.497 8.32h1.554a.82.82 0 0 0 .823-.823c0-.366-.366-.732-.823-.732H4.663c-.457 0-.823.366-.823.732a.82.82 0 0 0 .823.823zm5.852 0h1.645c.366 0 .732-.366.732-.823 0-.366-.366-.732-.732-.732h-1.645c-.366 0-.732.366-.732.732 0 .457.366.823.732.823z" fill="#3FACDC"/></svg>