<svg width="32" height="29" fill="none" xmlns="http://www.w3.org/2000/svg"><path d="M26.87 17.939v-3.176l3.848-1.71v3.176l-3.848 1.71zM16 27.343L2.26 21.298l3.603-1.65 9.893 4.398c.06.06.183.06.244.06s.183 0 .244-.06l9.893-4.397 3.604 1.649L16 27.344zM1.282 13.053l3.848 1.71v3.176l-3.848-1.71v-3.176zm20.459 3.97l3.847-1.71v3.175l-3.848 1.71v-3.175zm-5.07 2.26l3.787-1.71v3.175l-3.786 1.71v-3.176zm-5.129-1.71l3.786 1.71v3.175l-3.786-1.71v-3.175zm-5.13.915v-3.175l3.847 1.71v3.175l-3.847-1.71zm9.344-3.664c.06.062.183.062.244.062s.183 0 .244-.062l9.893-4.396 3.604 1.587L16 18.122 2.26 12.015l3.603-1.588 9.893 4.397zM16 1.328l13.74 6.107L16 13.542 2.26 7.435 16 1.328zm15.634 10.138l-3.909-1.71 3.909-1.71a.672.672 0 0 0 .366-.61.672.672 0 0 0-.366-.612L16.244.046a.674.674 0 0 0-.488 0L.366 6.824A.672.672 0 0 0 0 7.435a.67.67 0 0 0 .366.61l3.909 1.71-3.909 1.71c-.244.062-.366.306-.366.55v4.642a.67.67 0 0 0 .366.61l3.909 1.71-3.909 1.71c-.244.122-.366.305-.366.61 0 .245.122.49.366.55l15.39 6.84c.06 0 .183.061.244.061s.183-.061.244-.061l15.39-6.84c.244-.06.366-.305.366-.55 0-.305-.122-.488-.366-.61l-3.909-1.71 3.909-1.71a.672.672 0 0 0 .366-.61v-4.642c0-.244-.122-.488-.366-.55z" fill="#3FACDC"/></svg>