<svg width="32" height="32" fill="none" xmlns="http://www.w3.org/2000/svg"><g clip-path="url(#clip0)" fill="#3FACDC"><path d="M1.436 30.484h2.075V1.436H1.436v29.048zm15.641 0V1.436h-2.075v29.048h2.075zM4.947 1.436v29.048h8.619V1.436H4.948zM.719 0h17.078c.399 0 .718.32.718.718v30.484c0 .479-.32.798-.718.798H.718C.32 32 0 31.68 0 31.202V.718C0 .32.32 0 .718 0z"/><path d="M11.172 5.666h-1.117a.715.715 0 0 1-.718-.718c0-.4.32-.719.718-.719h1.117c.4 0 .719.32.719.719 0 .399-.32.718-.719.718zm0 7.342h-1.117a.715.715 0 0 1-.718-.718c0-.4.32-.719.718-.719h1.117c.4 0 .719.32.719.719 0 .399-.32.718-.719.718zm0 7.341h-1.117a.715.715 0 0 1-.718-.718c0-.4.32-.718.718-.718h1.117c.4 0 .719.319.719.718 0 .399-.32.718-.719.718zm-1.117 5.985h1.117c.4 0 .719.32.719.719 0 .399-.32.718-.719.718h-1.117a.715.715 0 0 1-.718-.718c0-.4.32-.719.718-.719zM8.459 9.337H7.34a.715.715 0 0 1-.718-.718c0-.4.32-.719.718-.719h1.12c.399 0 .718.32.718.719 0 .399-.32.718-.718.718zm0 7.341H7.34a.715.715 0 0 1-.718-.718c0-.4.32-.718.718-.718h1.12c.399 0 .718.319.718.718 0 .399-.32.718-.718.718zm0 7.422H7.34c-.399 0-.718-.4-.718-.719 0-.478.32-.797.718-.797h1.12c.399 0 .718.319.718.797 0 .32-.32.719-.718.719zM23.222 4.469h6.304L28.49 3.51c-.24-.319-.24-.798 0-1.037.319-.32.798-.32 1.037 0l2.235 2.234c.16.16.239.32.239.559 0 .16-.08.319-.24.479L29.527 7.98c-.16.16-.319.24-.479.24a.724.724 0 0 1-.558-.24c-.24-.24-.24-.718 0-1.037l1.037-.958h-6.304a.715.715 0 0 1-.718-.718c0-.4.319-.798.718-.798zm0 10.773h6.304l-1.037-1.038c-.24-.24-.24-.718 0-.957.319-.32.798-.32 1.037 0l2.235 2.234c.16.16.239.32.239.479a.72.72 0 0 1-.24.558l-2.234 2.235c-.16.16-.319.24-.479.24a.724.724 0 0 1-.558-.24.839.839 0 0 1 0-1.037l1.037-1.038h-6.304a.715.715 0 0 1-.718-.718c0-.4.319-.718.718-.718zm0 10.773h6.304l-1.037-1.037c-.24-.24-.24-.719 0-1.038.319-.24.798-.24 1.037 0l2.235 2.314a.6.6 0 0 1 0 .958l-2.235 2.314c-.16.16-.319.16-.479.16-.239 0-.399 0-.558-.16-.24-.319-.24-.798 0-1.037l1.037-1.038h-6.304a.715.715 0 0 1-.718-.718c0-.399.319-.718.718-.718z"/></g><defs><clipPath id="clip0"><path transform="matrix(-1 0 0 1 32 0)" fill="#fff" d="M0 0h32v32H0z"/></clipPath></defs></svg>