<svg width="32" height="32" fill="none" xmlns="http://www.w3.org/2000/svg"><g clip-path="url(#clip0)" fill="#3FACDC"><path d="M9.156 26.562a.625.625 0 1 0 0-1.25.625.625 0 0 0 0 1.25zM3.117 6.263a.62.62 0 0 0-.62.622.62.62 0 0 0 .624.614h.004a.617.617 0 1 0-.008-1.236zm6.878.707c-.008.346.264.591.609.654h.016c.338 0 .616-.28.625-.62a.625.625 0 1 0-1.25-.033zM6.909 3.749h.007a.625.625 0 1 0-.007 0zm1.838 3.125a1.877 1.877 0 0 0-2.748-1.66S4.565 3.68 4.502 3.65a.625.625 0 0 0-.775.964l1.421 1.522a1.877 1.877 0 0 0 1.723 2.613 1.877 1.877 0 0 0 1.876-1.874zm-1.875.625a.626.626 0 0 1-.518-.975l.006-.006a.624.624 0 0 0 .09-.104.626.626 0 1 1 .422 1.085zm-2.63 1.438a.625.625 0 0 0 .004 1.25h.004a.625.625 0 1 0-.008-1.25zm5.192 1.25h.003a.625.625 0 1 0-.003 0z"/><path d="M31.823 15.183a.615.615 0 0 0-.436-.184h-.961a2.481 2.481 0 0 0 .061-2.387l.876-3.065a3 3 0 0 0 .023-.21l-.276-4.415a1.253 1.253 0 0 0-1.247-1.173h-3.214c-.659 0-1.207.516-1.248 1.173l-.276 4.414c-.001.022.022.208.023.211l.87 3.065a2.476 2.476 0 0 0-.266 1.137c0 .456.132.875.346 1.25h-.962a.637.637 0 0 0-.638.626v3.437h-2.312v-3.436a.616.616 0 0 0-.613-.626h-.762l-.312-1.25h.762a.613.613 0 0 0 .612-.624v-8.75a.616.616 0 0 0-.612-.627h-.95V1.875a.616.616 0 0 0-.613-.626h-2.5a.637.637 0 0 0-.638.626V3.75h-.925a.637.637 0 0 0-.638.626v8.75c0 .346.293.624.638.624h.762L16.085 15h-.763a.637.637 0 0 0-.638.626v3.437h-4.062v-3.436a.615.615 0 0 0-.613-.626H8.746v-1.51c2.876-.818 5.007-3.473 5.007-6.615 0-3.79-3.08-6.875-6.872-6.875S0 3.084 0 6.875c0 3.142 2.12 5.797 4.996 6.616v1.508H3.758a.637.637 0 0 0-.638.626v9.064c0 .5.202.97.556 1.325.354.354.832.548 1.332.548h1.348a.625.625 0 0 0 0-1.25H5.01a.636.636 0 0 1-.638-.623v-8.44h5v3.44a.632.632 0 0 0 .638.623h5.314a.615.615 0 0 0 .612-.624V16.25h5v3.44a.634.634 0 0 0 .639.623h3.563a.615.615 0 0 0 .612-.624V16.25h5v8.44a.615.615 0 0 1-.612.623h-7.313a1.88 1.88 0 0 0-1.333.55 1.87 1.87 0 0 0-.555 1.327v3.561h-4.989v-3.562c0-.5-.195-.972-.549-1.326a1.865 1.865 0 0 0-1.326-.55h-2.09a.626.626 0 0 0 0 1.25h2.09c.344 0 .613.283.613.627v4.187a.632.632 0 0 0 .638.624h6.25a.616.616 0 0 0 .613-.624V27.19c0-.344.293-.627.638-.627h7.313c.502 0 .966-.194 1.32-.549.354-.353.543-.823.543-1.325v-9.062a.625.625 0 0 0-.177-.443zM1.258 6.875A5.632 5.632 0 0 1 6.884 1.25a5.632 5.632 0 0 1 5.626 5.625 5.632 5.632 0 0 1-5.626 5.626 5.632 5.632 0 0 1-5.626-5.626zM7.496 15h-1.25v-1.277a6.643 6.643 0 0 0 1.25 0V15zM17.81 2.5h1.25v1.25h-1.25V2.5zm-1.562 10V5h4.375v7.5h-4.375zm1.125 2.5l.313-1.25h1.524l.313 1.25h-2.15zm10.889.002a1.251 1.251 0 0 1 0-2.5 1.25 1.25 0 0 1 0 2.5zm1.223-3.43a2.485 2.485 0 0 0-1.223-.32c-.444 0-.861.116-1.223.32L26.59 10h3.344l-.45 1.571zM26.427 8.75L26.661 5h3.202l.234 3.75h-3.67z"/><path d="M9.574 4.9a.625.625 0 1 0 0-1.25.625.625 0 0 0 0 1.25z"/></g><defs><clipPath id="clip0"><path fill="#fff" d="M0 0h32v32H0z"/></clipPath></defs></svg>