<svg width="32" height="32" fill="none" xmlns="http://www.w3.org/2000/svg"><g clip-path="url(#clip0)" fill="#3FACDC"><path d="M11.323 4.449c-.548-1.108-.98-1.983-.027-3.414a.667.667 0 0 0-1.109-.738c-1.381 2.069-.648 3.552-.058 4.742.55 1.115.949 1.92.058 3.258a.666.666 0 1 0 1.108.738c1.319-1.976.604-3.424.028-4.586zm5.312 0c-.55-1.108-.981-1.983-.028-3.414a.667.667 0 0 0-1.11-.738c-1.38 2.07-.646 3.553-.058 4.744.55 1.114.95 1.92.059 3.256a.667.667 0 0 0 1.11.738c1.318-1.976.603-3.424.027-4.586zm5.312 0c-.55-1.108-.982-1.983-.028-3.414a.667.667 0 0 0-1.11-.738c-1.38 2.07-.646 3.553-.058 4.744.55 1.114.949 1.92.058 3.256a.667.667 0 0 0 1.11.738c1.318-1.976.604-3.424.028-4.586zm5.387 6.217H4.666a3.337 3.337 0 0 0-3.333 3.333v12a3.337 3.337 0 0 0 3.333 3.334h22.668A3.337 3.337 0 0 0 30.667 26V14a3.337 3.337 0 0 0-3.333-3.334zm2 15.334c0 1.102-.898 2-2 2H4.666c-1.102 0-2-.898-2-2V14c0-1.103.898-2 2-2h22.668c1.102 0 2 .897 2 2v12z"/><path d="M6 13.333a.667.667 0 0 0-.666.667v12a.667.667 0 0 0 1.333 0V14a.667.667 0 0 0-.666-.667zm4 0a.667.667 0 0 0-.666.667v12a.667.667 0 0 0 1.333 0V14a.667.667 0 0 0-.666-.667zm4 0a.667.667 0 0 0-.666.667v12a.667.667 0 0 0 1.333 0V14a.667.667 0 0 0-.666-.667zm4 0a.667.667 0 0 0-.666.667v12a.667.667 0 0 0 1.333 0V14a.667.667 0 0 0-.666-.667zm4 0a.667.667 0 0 0-.666.667v12a.667.667 0 0 0 1.333 0V14a.667.667 0 0 0-.666-.667zm4 0a.667.667 0 0 0-.666.667v12a.667.667 0 0 0 1.333 0V14a.667.667 0 0 0-.666-.667zM7.334 28a.667.667 0 0 0-.667.667v2.666a.667.667 0 0 0 1.333 0v-2.666A.667.667 0 0 0 7.334 28zm17.333 0a.667.667 0 0 0-.667.667v2.666a.667.667 0 0 0 1.333 0v-2.666a.667.667 0 0 0-.666-.667z"/></g><defs><clipPath id="clip0"><path fill="#fff" d="M0 0h32v32H0z"/></clipPath></defs></svg>