<svg width="32" height="32" fill="none" xmlns="http://www.w3.org/2000/svg"><g clip-path="url(#clip0)" fill="#3FACDC" stroke="#3FACDC" stroke-width=".4"><path d="M16 26.666c-5.882 0-10.667-4.785-10.667-10.666 0-5.882 4.785-10.667 10.667-10.667 5.881 0 10.666 4.785 10.666 10.667 0 5.881-4.785 10.666-10.666 10.666zM16 6.4c-5.293 0-9.6 4.306-9.6 9.6 0 5.293 4.306 9.6 9.6 9.6 5.293 0 9.6-4.307 9.6-9.6 0-5.293-4.307-9.6-9.6-9.6zM16 32a.534.534 0 0 1-.533-.533v-3.2a.533.533 0 0 1 1.067 0v3.2A.534.534 0 0 1 16 32zm0-27.733a.533.533 0 0 1-.533-.534v-3.2a.534.534 0 0 1 1.067 0v3.2a.533.533 0 0 1-.534.534zM3.733 16.534h-3.2a.534.534 0 0 1 0-1.067h3.2a.533.533 0 0 1 0 1.067zm27.734 0h-3.2a.533.533 0 0 1 0-1.067h3.2a.534.534 0 0 1 0 1.067z"/><path d="M13.333 24a.53.53 0 0 1-.52-.654l1.45-6.28h-2.53a.534.534 0 0 1-.403-.882l6.933-8a.533.533 0 0 1 .923.47l-1.45 6.28h2.53a.534.534 0 0 1 .403.881l-6.933 8a.531.531 0 0 1-.403.185zm-.432-8h2.032a.533.533 0 0 1 .52.653l-1.118 4.843L19.098 16h-2.032a.534.534 0 0 1-.52-.654l1.118-4.842L12.901 16zm14.035 11.47a.533.533 0 0 1-.377-.156l-2.262-2.263a.533.533 0 1 1 .754-.754l2.263 2.262a.533.533 0 0 1-.378.91zM7.327 7.86a.532.532 0 0 1-.377-.157L4.687 5.441a.533.533 0 1 1 .754-.754l2.263 2.262a.532.532 0 0 1-.377.91zM5.064 27.47a.533.533 0 0 1-.377-.91l2.263-2.263a.533.533 0 1 1 .754.754L5.44 27.314a.533.533 0 0 1-.377.156zm19.61-19.61a.532.532 0 0 1-.377-.91l2.262-2.263a.533.533 0 1 1 .755.754L25.05 7.703a.53.53 0 0 1-.377.156z"/></g><defs><clipPath id="clip0"><path fill="#fff" d="M0 0h32v32H0z"/></clipPath></defs></svg>