<svg width="32" height="32" fill="none" xmlns="http://www.w3.org/2000/svg"><path d="M29.024 10.144L16.352 1.696a.693.693 0 0 0-.704 0L2.976 10.144a2.373 2.373 0 0 0 .192 4.064c.352.192.736.288 1.12.288a2.8 2.8 0 0 0 .512-.064V27.2c0 1.76 1.44 3.2 3.2 3.2h16c1.76 0 3.2-1.44 3.2-3.2V14.432a2.25 2.25 0 0 0 1.632-.224 2.373 2.373 0 0 0 .192-4.064zM25.92 27.2c0 1.056-.864 1.92-1.92 1.92H8a1.926 1.926 0 0 1-1.92-1.92V13.792L16 7.168l9.92 6.624V27.2zm2.304-14.112c-.352.192-.768.16-1.12-.064L16.352 5.856a.693.693 0 0 0-.704 0L4.896 13.024c-.352.224-.768.256-1.12.064a1.08 1.08 0 0 1-.096-1.856L16 3.008l12.32 8.224c.32.192.48.544.48.896 0 .416-.224.768-.576.96zM16.64 25.28c0 .352-.288.64-.64.64a.642.642 0 0 1-.64-.64c0-.352.288-.64.64-.64.352 0 .64.288.64.64zm2.08-2.72a.619.619 0 0 1 0 .896.632.632 0 0 1-.448.192.632.632 0 0 1-.448-.192 2.569 2.569 0 0 0-3.616 0c-.256.256-.672.256-.896 0a.619.619 0 0 1 0-.896c1.472-1.504 3.904-1.504 5.408 0zm2.272-2.272a.619.619 0 0 1 0 .896.632.632 0 0 1-.448.192.632.632 0 0 1-.448-.192c-2.24-2.24-5.888-2.24-8.16 0-.256.256-.672.256-.896 0a.619.619 0 0 1 0-.896c2.72-2.72 7.2-2.72 9.952 0zm2.24-2.24a.619.619 0 0 1 0 .896.632.632 0 0 1-.448.192.632.632 0 0 1-.448-.192c-3.488-3.488-9.184-3.488-12.672 0a.619.619 0 0 1-.896 0c-.256-.256-.256-.672 0-.896 3.968-4 10.496-4 14.464 0z" fill="#3FACDC"/></svg>