<svg width="32" height="32" fill="none" xmlns="http://www.w3.org/2000/svg"><g clip-path="url(#clip0)"><path d="M31.909 14.404a1.6 1.6 0 0 0-1.512-1.07H11.732a.533.533 0 0 0-.533.534v1.6h-1.067V8.002h.534a1.6 1.6 0 0 0 0-3.2h-.534v-1.6h.534a.533.533 0 0 0 .533-.533V.536a.533.533 0 0 0-.533-.534H.533A.533.533 0 0 0 0 .536v2.133c0 .294.239.533.533.533h.534v12.799c0 .294.238.533.533.533h.533c.17 3.435 1.973 4.864 3.573 6.128 2.027 1.6 3.936 3.109 2.821 8.698a.533.533 0 0 0 .539.64H26.13a.533.533 0 0 0 .459-.806c-1.526-2.538-1.526-4.602-1.526-7.727 3.275-1.067 5.637-3.802 5.866-7.023a1.6 1.6 0 0 0 .979-2.04zM10.666 5.869a.533.533 0 0 1 0 1.066h-.534V5.87h.534zm-9.6-3.733V1.069h9.066v1.067H1.068zm1.067 1.066h6.933v12.266H2.133V3.202zm7.573 27.731c.96-5.717-1.21-7.466-3.307-9.108-1.562-1.222-3.023-2.379-3.2-5.29h7.467c.24 3.199 2.591 5.866 5.834 6.932 0 3.008 0 5.04-1.376 7.466H9.706zm15.524 0h-8.863c1.183-2.357 1.232-4.448 1.232-7.167.7.153 1.415.232 2.133.234h2.133a10.173 10.173 0 0 0 2.133-.234c0 2.72.043 4.81 1.232 7.167zm-3.365-8h-2.133c-4.203 0-7.653-2.826-7.968-6.399h18.068c-.315 3.573-3.765 6.4-7.967 6.4zm8.532-7.465H12.266V14.4h18.131a.533.533 0 1 1 0 1.067z" fill="#3FACDC" stroke="#3FACDC" stroke-width=".1"/></g><defs><clipPath id="clip0"><path fill="#fff" d="M0 0h32v32H0z"/></clipPath></defs></svg>