<svg width="32" height="32" fill="none" xmlns="http://www.w3.org/2000/svg"><g clip-path="url(#clip0)" fill="#3FACDC"><path d="M32 9.022c0-.813-1.267-.815-1.267 0v9.319H22.92c-1.144 0-2.074.93-2.074 2.074v6.338c0 .813 1.267.814 1.267 0V22.63c.248.105.521.164.807.164h7.813v3.959c0 .813 1.267.814 1.267 0V9.023zM22.113 20.72c-.024-.526.172-1.111.807-1.111h7.813v1.919H22.92a.808.808 0 0 1-.807-.808zM0 26.753c0 .813 1.267.814 1.267 0v-3.96H9.08c.286 0 .56-.057.808-.163v4.123c0 .813 1.267.814 1.267 0v-6.338c0-1.144-.93-2.074-2.075-2.074H1.267V9.022c0-.813-1.267-.815-1.267 0v17.73zm9.08-5.226H1.267v-1.92H9.08c1.092 0 1.092 1.92 0 1.92z"/><path d="M19.039 27.316c.813 0 .814-1.267 0-1.267h-1.09v-13.13h7.134c.35 0 .634-.283.634-.633V9.1a.634.634 0 0 0-.634-.634h-.8l.37-1.2a.643.643 0 0 0-.605-.821h-3.231a.643.643 0 0 0-.605.82l.37 1.201h-1.296a3.147 3.147 0 0 0-2.675-2.603v-.616c0-.813-1.267-.814-1.267 0v.62a3.147 3.147 0 0 0-2.646 2.6h-1.32l.372-1.202a.643.643 0 0 0-.606-.82h-3.23a.643.643 0 0 0-.606.82l.37 1.201h-.777a.634.634 0 0 0-.633.634v3.186c0 .35.283.634.633.634h7.134v3.297c0 .814 1.267.815 1.267 0V12.92h1.38v13.129h-1.38v-4.754c0-.814-1.267-.815-1.267 0v4.754h-1.09c-.813 0-.814 1.267 0 1.267h6.094zm2.636-19.604h1.514l-.233.755h-1.048l-.233-.755zm-5.878-.61h.39c.857 0 1.582.578 1.804 1.365h-3.997A1.877 1.877 0 0 1 15.797 7.1zm-7.025.61h1.514l-.233.755H9.005l-.233-.755zm-1.237 3.94V9.735H24.45v1.919H7.535z"/><path d="M14.2 19.066a.64.64 0 0 0 .878.175.64.64 0 0 0 .175-.879.64.64 0 0 0-.879-.175.64.64 0 0 0-.174.88z"/></g><defs><clipPath id="clip0"><path fill="#fff" d="M0 0h32v32H0z"/></clipPath></defs></svg>