<svg width="64" height="64" fill="none" xmlns="http://www.w3.org/2000/svg"><path d="M26.557 45.896c-7.806 0-15.25-4.735-18.232-12.346-3.527-9.003.389-19.652 8.917-24.245 8.76-4.716 19.937-1.899 25.446 6.416 5.493 8.29 3.715 19.667-4.047 25.903a1 1 0 1 1-1.253-1.558c6.964-5.596 8.56-15.804 3.633-23.239-4.944-7.462-14.972-9.992-22.831-5.76-7.653 4.12-11.168 13.676-8.003 21.753 3.418 8.723 13.37 13.236 22.184 10.062a1 1 0 1 1 .678 1.881 19.166 19.166 0 0 1-6.492 1.133z" fill="#68CEFC"/><path d="M43.048 46.881a.997.997 0 0 1-.707-.293l-5.036-5.036a.999.999 0 1 1 1.414-1.414l5.036 5.036a.999.999 0 0 1-.707 1.707zm2.832-2.829a.997.997 0 0 1-.707-.293l-5.036-5.036a.999.999 0 1 1 1.414-1.414l5.036 5.036a.999.999 0 0 1-.707 1.707zm6.108 12.924a4.961 4.961 0 0 1-3.536-1.45.999.999 0 1 1 1.414-1.413c1.113 1.113 3.13 1.114 4.243 0 .557-.557.863-1.31.863-2.121 0-.811-.307-1.564-.863-2.121a.999.999 0 1 1 1.414-1.414 4.955 4.955 0 0 1 1.45 3.535 4.957 4.957 0 0 1-1.45 3.535 4.96 4.96 0 0 1-3.535 1.449z" fill="#68CEFC"/><path d="M54.818 50.163a.997.997 0 0 1-.707-.293l-7.525-7.525a.999.999 0 1 1 1.413-1.414l7.526 7.525a.999.999 0 0 1-.707 1.707zm-5.656 5.657a.997.997 0 0 1-.707-.294l-7.525-7.524a.999.999 0 1 1 1.414-1.414l7.525 7.524a.999.999 0 0 1-.707 1.707zM26.295 39.889h-.001a12.98 12.98 0 0 1-5.798-1.361c-4.336-2.144-7.276-6.645-7.491-11.468a13.497 13.497 0 0 1 6.332-12.036 13.44 13.44 0 0 1 7.123-2.019c2.338 0 4.629.599 6.625 1.73a13.5 13.5 0 0 1 6.829 11.718c0 3.648-1.48 7.063-4.165 9.614-2.558 2.429-6.004 3.822-9.454 3.822zm.165-24.884c-2.168 0-4.266.594-6.064 1.716a11.495 11.495 0 0 0-5.393 10.25c.183 4.106 2.686 7.938 6.378 9.764a10.999 10.999 0 0 0 4.913 1.154c2.945 0 5.888-1.192 8.078-3.271 2.285-2.17 3.542-5.069 3.542-8.164 0-4.12-2.23-7.943-5.815-9.978a11.446 11.446 0 0 0-5.64-1.471z" fill="#68CEFC"/><path d="M41.637 48.295a.999.999 0 0 1-.707-1.707l5.657-5.657a.999.999 0 1 1 1.414 1.414l-5.657 5.657a.997.997 0 0 1-.707.293z" fill="#68CEFC"/></svg>