<svg width="64" height="64" fill="none" xmlns="http://www.w3.org/2000/svg"><g clip-path="url(#clip0)" fill="#68CEFC"><path d="M40.17 7.974a18.186 18.186 0 0 0-21.102 3.385c-6.487 6.487-7.136 16.83-1.51 24.059a1.007 1.007 0 0 0 1.415.176c.44-.342.519-.975.177-1.415-5.003-6.428-4.424-15.625 1.345-21.394a16.172 16.172 0 0 1 18.765-3.01 1.008 1.008 0 1 0 .91-1.8zm8.053 8.056a1.009 1.009 0 0 0-1.8.91A16.173 16.173 0 0 1 43.41 35.7c-5.769 5.769-14.966 6.347-21.394 1.345a1.009 1.009 0 0 0-1.239 1.592 18.125 18.125 0 0 0 11.159 3.823c4.693 0 9.369-1.801 12.9-5.334a18.187 18.187 0 0 0 3.387-21.097zm-2.607-3.841a18.433 18.433 0 0 0-1.61-1.61 1.008 1.008 0 1 0-1.336 1.511 16.53 16.53 0 0 1 1.435 1.435 1.006 1.006 0 0 0 1.424.087 1.008 1.008 0 0 0 .087-1.423z"/><path d="M55.758 26.051a3.423 3.423 0 0 0 0-3.577l-1.327-2.176a1.42 1.42 0 0 1-.19-.958l.395-2.513a3.421 3.421 0 0 0-1.372-3.313l-2.057-1.495a1.42 1.42 0 0 1-.544-.814l-.599-2.475a3.422 3.422 0 0 0-2.53-2.53l-2.476-.6a1.42 1.42 0 0 1-.813-.544l-1.496-2.057a3.42 3.42 0 0 0-3.312-1.373l-2.514.396a1.42 1.42 0 0 1-.958-.19L33.788.504a3.422 3.422 0 0 0-3.577 0l-2.176 1.327a1.42 1.42 0 0 1-.958.19l-2.513-.395a3.421 3.421 0 0 0-3.313 1.373l-1.495 2.056a1.42 1.42 0 0 1-.814.544l-2.475.6a3.422 3.422 0 0 0-2.53 2.53l-.6 2.475a1.414 1.414 0 0 1-.544.813l-2.057 1.496a3.42 3.42 0 0 0-1.373 3.312l.396 2.514a1.42 1.42 0 0 1-.19.959L8.24 22.474a3.423 3.423 0 0 0 0 3.577l1.327 2.176c.175.287.243.628.19.959l-.395 2.513a3.42 3.42 0 0 0 1.373 3.312l2.056 1.496c.272.198.465.486.544.813l.6 2.475a3.422 3.422 0 0 0 2.53 2.531l1.034.25-6.995 15.602a1.008 1.008 0 0 0 1.04 1.414l5.628-.673 3.242 4.65a1.009 1.009 0 0 0 1.748-.165l7.143-15.935.905.552a3.432 3.432 0 0 0 3.577 0l.938-.572 7.152 15.955a1.008 1.008 0 0 0 1.748.164l3.242-4.649 5.627.673a1.01 1.01 0 0 0 1.04-1.414l-6.997-15.61.994-.24a3.422 3.422 0 0 0 2.531-2.532l.6-2.475c.078-.326.272-.615.544-.813l2.056-1.496a3.421 3.421 0 0 0 1.373-3.312l-.395-2.514a1.419 1.419 0 0 1 .19-.958l1.327-2.177zM21.051 60.953l-2.57-3.684a1.008 1.008 0 0 0-.946-.424l-4.46.533 6.372-14.215c.117.085.221.188.307.306l1.496 2.057c.142.196.302.373.476.53l-3.354 7.483a1.009 1.009 0 0 0 1.84.825l3.343-7.456a3.45 3.45 0 0 0 1.007-.009l2.514-.395c.15-.024.303-.022.45.003l-6.475 14.446zm29.915-3.575l-4.46-.533a1.008 1.008 0 0 0-.947.424l-2.569 3.684-6.479-14.452a1.42 1.42 0 0 1 .412.003l2.513.396a3.5 3.5 0 0 0 1.047.003l3.345 7.461a1.009 1.009 0 1 0 1.84-.825l-3.366-7.51a3.57 3.57 0 0 0 .446-.502l1.496-2.057c.094-.13.21-.24.34-.33l6.382 14.238zM54.036 25l-1.327 2.176a3.44 3.44 0 0 0-.46 2.323l.395 2.513a1.412 1.412 0 0 1-.567 1.368l-2.057 1.496a3.44 3.44 0 0 0-1.318 1.97l-.6 2.475a1.411 1.411 0 0 1-1.044 1.045l-2.475.599a3.44 3.44 0 0 0-1.97 1.318l-1.496 2.056c-.315.433-.839.65-1.367.567l-2.514-.396a3.44 3.44 0 0 0-2.322.46l-2.176 1.33a1.413 1.413 0 0 1-1.476 0l-2.177-1.327a3.44 3.44 0 0 0-2.322-.46l-2.514.395a1.412 1.412 0 0 1-1.367-.567l-1.497-2.057a3.439 3.439 0 0 0-1.97-1.318l-2.475-.6a1.413 1.413 0 0 1-1.044-1.044l-.6-2.475a3.438 3.438 0 0 0-1.318-1.97l-2.056-1.496a1.412 1.412 0 0 1-.566-1.367l.395-2.513a3.44 3.44 0 0 0-.46-2.323L9.964 25a1.413 1.413 0 0 1 0-1.477l1.327-2.176a3.439 3.439 0 0 0 .46-2.322l-.395-2.514a1.412 1.412 0 0 1 .567-1.367l2.057-1.496a3.44 3.44 0 0 0 1.318-1.97l.599-2.475a1.41 1.41 0 0 1 1.045-1.045l2.475-.6a3.438 3.438 0 0 0 1.97-1.317l1.495-2.057c.315-.433.839-.65 1.368-.567l2.513.396a3.438 3.438 0 0 0 2.322-.46l2.176-1.327a1.413 1.413 0 0 1 1.477 0l2.176 1.327c.694.423 1.52.587 2.323.46l2.514-.395a1.413 1.413 0 0 1 1.367.566l1.496 2.057a3.44 3.44 0 0 0 1.97 1.318l2.475.6c.519.125.92.525 1.045 1.044l.599 2.475c.191.792.66 1.492 1.318 1.97l2.056 1.496c.433.315.65.84.567 1.368l-.396 2.513a3.44 3.44 0 0 0 .46 2.322l1.328 2.176a1.413 1.413 0 0 1 0 1.477z"/><path d="M43.803 21.124a1.804 1.804 0 0 0-1.518-1.246l-6.07-.72-2.559-5.55a1.805 1.805 0 0 0-1.655-1.059c-.72 0-1.354.406-1.655 1.06l-2.56 5.549-6.069.72a1.804 1.804 0 0 0-1.518 1.246 1.804 1.804 0 0 0 .495 1.901l4.487 4.15-1.19 5.994c-.14.706.134 1.407.716 1.83a1.812 1.812 0 0 0 1.961.115l5.333-2.985 5.333 2.985a1.804 1.804 0 0 0 1.961-.115 1.804 1.804 0 0 0 .716-1.83l-1.19-5.994 4.486-4.15a1.804 1.804 0 0 0 .496-1.9zm-6.767 4.953a1.009 1.009 0 0 0-.304.937l1.219 6.134-5.458-3.055a1.009 1.009 0 0 0-.985 0l-5.457 3.055 1.219-6.134a1.008 1.008 0 0 0-.305-.937l-4.591-4.246 6.21-.736c.349-.042.65-.261.798-.58L32 14.837l2.62 5.678c.146.319.448.538.796.58l6.211.736-4.592 4.246z"/></g><defs><clipPath id="clip0"><path fill="#fff" d="M0 0h64v64H0z"/></clipPath></defs></svg>