<svg viewBox="0 0 844 153" fill="none" xmlns="http://www.w3.org/2000/svg"><path d="M46.64 152.15c-16.483.573-28.738-2.293-36.765-8.6C1.992 137.243-1.09 128.213.63 116.46c2.007-13.33 9.89-23.363 23.65-30.1 13.903-6.737 30.888-9.747 50.955-9.03 3.727-9.03 7.095-16.77 10.105-23.22 3.153-6.45 6.808-13.115 10.965-19.995 4.3-7.023 9.03-12.9 14.19-17.63 5.16-4.873 10.678-8.672 16.555-11.395 10.177-4.73 20.353-5.877 30.53-3.44 10.177 2.293 16.555 7.525 19.135 15.695 4.443 13.617 2.58 36.12-5.59 67.51 12.183.43 20.855-.645 26.015-3.225 2.007-.287 3.798 1.075 5.375 4.085 1.72 2.867 2.078 4.873 1.075 6.02-4.443 3.583-9.245 6.092-14.405 7.525-5.017 1.29-12.327 2.437-21.93 3.44-1.577 6.307-5.088 21.213-10.535 44.72-4.013 3.44-11.61 5.017-22.79 4.73-11.037-.143-16.842-2.007-17.415-5.59.43-2.007 1.218-5.375 2.365-10.105 1.29-4.873 2.867-10.822 4.73-17.845 1.863-7.023 3.225-12.327 4.085-15.91-6.593-.43-14.047-.645-22.36-.645-3.87 9.03-7.31 16.125-10.32 21.285-2.867 5.16-6.593 10.177-11.18 15.05-4.443 4.73-9.675 8.17-15.695 10.32-5.877 2.007-13.043 3.153-21.5 3.44zm86-70.09c6.163-20.927 9.89-37.482 11.18-49.665.287-3.153-.788-4.873-3.225-5.16-2.867-.287-5.375 1.577-7.525 5.59-7.453 14.19-14.262 30.243-20.425 48.16l19.995 1.075zm-85.785 47.085c7.883-.573 14.763-10.392 20.64-29.455-4.73-.287-9.962 1.003-15.695 3.87-5.59 2.867-9.173 6.88-10.75 12.04-1.29 3.153-1.505 6.235-.645 9.245.86 3.01 3.01 4.443 6.45 4.3z" fill="#fff"/><path d="M189.264 133.23c-.287-3.44 2.007-6.522 6.88-9.245 5.017-2.867 9.173-3.297 12.47-1.29 1.29 3.44 3.44 5.805 6.45 7.095 3.01 1.29 5.59 1.147 7.74-.43-3.01-1.72-4.157-4.73-3.44-9.03.86-4.3 2.938-7.023 6.235-8.17-2.293-20.067-4.3-32.967-6.02-38.7-7.453 6.02-18.418 21.07-32.895 45.15-1.003 1.147-2.437 1.577-4.3 1.29-1.863-.43-3.512-1.362-4.945-2.795-1.433-1.433-1.792-2.795-1.075-4.085 12.47-21.07 25.298-38.485 38.485-52.245 8.17-8.6 17.773-13.115 28.81-13.545 8.887-.287 14.692 2.293 17.415 7.74 2.15 4.587 1.218 10.177-2.795 16.77 7.453 21.5 10.105 39.99 7.955 55.47 4.443-.43 8.958-2.293 13.545-5.59 4.587-3.297 8.528-7.74 11.825-13.33.573-.86 1.72-.86 3.44 0 1.863.717 3.44 1.792 4.73 3.225 1.433 1.29 2.007 2.222 1.72 2.795-5.447 9.603-11.538 16.268-18.275 19.995-6.737 3.727-14.62 5.805-23.65 6.235-7.597 7.74-18.705 11.61-33.325 11.61-8.6 0-16.555-1.577-23.865-4.73-7.31-3.153-11.682-7.883-13.115-14.19z" fill="#fff"/><path d="M361.578 59.915c2.293-2.437 8.743-3.368 19.35-2.795 10.607.573 17.343 2.938 20.21 7.095-.86 4.157-2.15 9.46-3.87 15.91a1769.7 1769.7 0 0 1-4.73 17.415 341.482 341.482 0 0 0-3.87 15.265c-1.003 4.873-1.505 8.743-1.505 11.61.143 2.723 1.003 4.085 2.58 4.085 3.44.143 7.31-1.577 11.61-5.16 4.443-3.727 8.528-8.743 12.255-15.05 1.003-1.147 3.01-.645 6.02 1.505 3.01 2.007 4.3 3.512 3.87 4.515-5.733 10.32-13.258 19.207-22.575 26.66-9.317 7.453-19.708 11.18-31.175 11.18-6.163 0-10.678-2.078-13.545-6.235-2.723-4.3-3.153-10.965-1.29-19.995-11.037 17.343-25.083 26.087-42.14 26.23-5.16 0-9.532-.717-13.115-2.15-3.44-1.577-6.02-3.512-7.74-5.805-1.577-2.437-2.652-5.303-3.225-8.6-.573-3.44-.717-6.665-.43-9.675.287-3.153.788-6.45 1.505-9.89 3.153-13.903 8.027-32.608 14.62-56.115 3.01-2.723 9.818-3.583 20.425-2.58 10.75 1.003 17.2 3.512 19.35 7.525-9.317 33.253-14.262 52.173-14.835 56.76-.287 4.587.573 6.88 2.58 6.88 3.153-.143 6.665-3.44 10.535-9.89 3.87-6.45 6.737-12.9 8.6-19.35 3.297-10.607 6.808-23.722 10.535-39.345z" fill="#fff"/><path d="M444.005 152.15c-24.796-.143-34.901-15.265-30.315-45.365 1.004-6.88 3.655-18.347 7.955-34.4h-6.88c-2.006-.86-2.58-4.3-1.72-10.32.86-6.163 3.01-9.818 6.45-10.965h7.74a6780.69 6780.69 0 0 0 4.3-16.77c1.72-6.737 3.154-12.542 4.3-17.415 1.29-4.873 2.437-8.815 3.44-11.825 1.72-1.72 5.662-2.723 11.825-3.01a60.323 60.323 0 0 1 18.275 1.505c6.02 1.433 9.46 3.583 10.32 6.45-1.29 5.447-4.873 19.135-10.75 41.065h11.825c2.724 1.577 3.727 5.232 3.01 10.965-.573 5.733-2.365 9.173-5.375 10.32h-14.62c-1.146 3.87-2.651 9.46-4.515 16.77-1.863 7.167-2.866 10.965-3.01 11.395a1107.672 1107.672 0 0 0-2.795 11.395 58.898 58.898 0 0 0-1.075 8.6c-.143 2.723.144 4.802.86 6.235.86 1.29 2.15 2.007 3.87 2.15 1.577.143 3.369.072 5.375-.215 2.15-.287 4.802-1.003 7.955-2.15 3.297-1.147 6.665-3.297 10.105-6.45 3.44-3.153 6.522-7.095 9.245-11.825.86-1.147 2.795-.717 5.805 1.29 3.154 2.007 4.515 3.512 4.085 4.515-7.023 12.613-14.978 22.145-23.865 28.595-8.886 6.45-19.493 9.603-31.82 9.46z" fill="#fff"/><path d="M549.251 57.98c10.75-1.29 21.787-.788 33.11 1.505 11.324 2.293 20.139 6.737 26.445 13.33.86 3.44-.716 7.453-4.73 12.04-4.013 4.587-7.238 6.737-9.675 6.45-8.17-6.737-18.991-9.962-32.465-9.675-6.593 0-12.613 2.437-18.06 7.31-5.446 4.873-9.316 11.108-11.61 18.705-4.3 14.477-3.44 21.428 2.58 20.855 3.87-.43 7.955-4.515 12.255-12.255 4.444-7.74 8.17-15.695 11.18-23.865 4.014-2.007 9.962-2.078 17.845-.215 8.027 1.863 13.044 4.157 15.05 6.88-1.146 3.153-2.58 7.382-4.3 12.685-3.01 11.18-1.648 16.77 4.085 16.77 4.73-.143 9.46-2.078 14.19-5.805 4.874-3.727 8.959-8.457 12.255-14.19.86-.86 2.079-.932 3.655-.215 1.72.573 3.297 1.577 4.73 3.01 1.434 1.433 2.007 2.437 1.72 3.01-15.193 25.8-34.471 38.413-57.835 37.84-13.903-.43-19.135-8.887-15.695-25.37-2.436 4.73-4.945 8.743-7.525 12.04-2.436 3.297-6.235 6.378-11.395 9.245-5.016 2.723-10.75 4.085-17.2 4.085-22.073 0-32.106-11.467-30.1-34.4 1.004-11.61 5.017-21.93 12.04-30.96 7.167-9.173 15.05-15.982 23.65-20.425 8.6-4.443 17.2-7.238 25.8-8.385z" fill="#fff"/><path d="M683.188.145c11.18-.143 19.637 3.655 25.37 11.395 5.733 7.74 7.74 18.132 6.02 31.175-1.72 13.33-8.242 25.513-19.565 36.55-11.323 11.037-25.657 18.562-43 22.575-1.147 9.173-.072 16.627 3.225 22.36 3.44 5.59 9.173 8.457 17.2 8.6 7.31.143 14.62-1.863 21.93-6.02 7.453-4.3 13.617-10.463 18.49-18.49.86-1.29 2.795-.86 5.805 1.29 3.153 2.007 4.515 3.583 4.085 4.73-14.763 25.657-36.407 38.27-64.93 37.84-9.46-.143-17.415-2.293-23.865-6.45-6.307-4.157-10.75-9.675-13.33-16.555-2.58-6.88-4.3-14.692-5.16-23.435-.717-8.887-.215-18.06 1.505-27.52 1.147-7.74 2.795-15.122 4.945-22.145 2.15-7.167 5.088-14.118 8.815-20.855 3.727-6.88 7.955-12.828 12.685-17.845 4.873-5.16 10.678-9.245 17.415-12.255 6.88-3.153 14.333-4.802 22.36-4.945zM681.253 25.3c-4.443.143-9.46 7.525-15.05 22.145-2.723 7.023-6.02 17.702-9.89 32.035 4.587-1.29 9.173-4.802 13.76-10.535 4.73-5.877 8.385-12.112 10.965-18.705a51.603 51.603 0 0 0 2.15-6.665c.717-2.437 1.147-4.73 1.29-6.88.287-2.15.358-4.085.215-5.805 0-1.72-.287-3.082-.86-4.085-.573-1.003-1.433-1.505-2.58-1.505z" fill="#fff"/><path d="M774.37 57.12c9.173.287 16.985 2.58 23.435 6.88 6.593 4.157 11.251 9.532 13.975 16.125 2.723 6.45 3.511 13.903 2.365 22.36-1.004 8.313-4.014 16.555-9.03 24.725 9.89 1.147 19.278-5.16 28.165-18.92.86-1.29 2.866-.86 6.02 1.29 3.153 2.15 4.443 3.727 3.87 4.73-3.727 6.737-7.884 12.183-12.47 16.34-4.587 4.013-8.959 6.593-13.115 7.74a93.225 93.225 0 0 1-12.9 2.15c-4.444.287-8.457.143-12.04-.43-10.894 8.027-24.367 12.04-40.42 12.04-14.19 0-25.155-4.228-32.895-12.685-7.74-8.6-9.675-21.142-5.805-37.625 3.726-15.48 11.108-26.875 22.145-34.185 11.18-7.453 24.08-10.965 38.7-10.535zm-4.945 23.22c-2.58 0-5.447 1.792-8.6 5.375-3.154 3.44-5.59 8.385-7.31 14.835-2.007 6.163-2.58 12.542-1.72 19.135.86 6.45 3.153 9.675 6.88 9.675 2.723 0 5.016-.932 6.88-2.795-2.437-1.863-2.795-4.873-1.075-9.03 1.72-4.157 4.443-6.307 8.17-6.45 2.15-8.027 3.01-15.122 2.58-21.285-.43-6.163-2.365-9.317-5.805-9.46z" fill="#fff"/></svg>