<svg width="40" height="40" fill="none" xmlns="http://www.w3.org/2000/svg"><path d="M38.66 28.683h-.042v-3.5c0-8.732-6.1-16.3-14.573-18.176a2.01 2.01 0 0 0-.56-1.204c-.386-.4-.904-.62-1.46-.62h-4.05c-.556 0-1.074.22-1.46.62a2.011 2.011 0 0 0-.56 1.204C7.483 8.883 1.382 16.451 1.382 25.184v3.498H1.34c-.738 0-1.339.601-1.339 1.34v.88c0 .584.369 1.096.918 1.275C6.122 33.88 12.9 34.817 20 34.817s13.877-.938 19.082-2.64c.55-.179.918-.691.918-1.274v-.881c0-.739-.6-1.34-1.34-1.34zM17.448 6.703a.729.729 0 0 1 .528-.224h4.05c.2 0 .388.08.528.225.14.144.213.334.206.535l-.596 17.279a.732.732 0 0 1-.734.709h-2.858a.732.732 0 0 1-.734-.71L17.241 7.24a.728.728 0 0 1 .206-.535zm21.257 24.2c0 .017-.007.037-.024.043C33.6 32.606 26.967 33.52 20 33.52c-6.967 0-13.601-.914-18.68-2.574-.016-.006-.024-.026-.024-.043v-.881c0-.024.02-.044.043-.044H26.22a.648.648 0 0 0 0-1.296H2.678v-3.498c0-6.512 3.647-12.329 9.153-15.28l1.406 9.843a.648.648 0 0 0 1.283-.184L13.055 9.31a17.18 17.18 0 0 1 2.927-.978l.56 16.232a2.023 2.023 0 0 0 2.029 1.96h2.858c1.1 0 1.991-.861 2.03-1.96l.559-16.232c1.016.24 1.994.57 2.927.978L25.48 19.564a.648.648 0 0 0 1.283.183l1.406-9.842c5.506 2.95 9.153 8.766 9.153 15.279v3.498h-4.19a.648.648 0 0 0 0 1.296h5.53c.023 0 .042.02.042.044v.88z" fill="#3FACDC"/><path d="M30.366 28.683h-1.383a.648.648 0 0 0 0 1.296h1.383a.648.648 0 0 0 0-1.296zM15.11 23.71l-.197-1.383a.648.648 0 1 0-1.283.183l.198 1.383a.648.648 0 0 0 1.283-.183zm10.707-1.933a.648.648 0 0 0-.733.55l-.198 1.383a.648.648 0 0 0 1.283.183l.198-1.383a.648.648 0 0 0-.55-.733z" fill="#3FACDC"/></svg>