<svg width="36" height="36" fill="none" xmlns="http://www.w3.org/2000/svg"><path d="M26.627 2.793a3.109 3.109 0 0 0-3.04-2.482.62.62 0 1 0 0 1.24c1.026 0 1.861.836 1.861 1.863a1.864 1.864 0 0 1-1.862 1.862.62.62 0 1 0 0 1.241 3.11 3.11 0 0 0 3.041-2.482h8.132V8.38H1.24V4.035h10.552a.62.62 0 1 0 0-1.242h-1.127a1.859 1.859 0 0 1 1.748-1.241c1.026 0 1.862.835 1.862 1.862a1.864 1.864 0 0 1-1.862 1.862.62.62 0 1 0 0 1.241 3.107 3.107 0 0 0 3.103-3.103A3.107 3.107 0 0 0 12.414.311a3.11 3.11 0 0 0-3.041 2.482H0V35.69h36V2.793h-9.373zm-8.006 6.828h7.448v7.448h-7.448V9.621zm7.448 16.138h-7.448V18.31h7.448v7.448zM9.931 18.31h7.448v7.448H9.931V18.31zm0-8.69h7.448v7.448H9.931V9.621zm-8.69.62v-.62H8.69v7.448H1.24v-6.827zm0 8.07H8.69v7.448H1.24V18.31zm0 16.138V27H8.69v7.449H1.24zm8.69 0V27h7.448v7.449H9.931zm8.69 0V27h7.448v7.449h-7.448zm16.138 0H27.31V27h7.449v7.449zm0-8.69H27.31V18.31h7.449v7.448zm-7.449-8.69V9.621h7.449v7.448H27.31z" fill="#3FACDC"/><path d="M16.138 1.552c1.027 0 1.862.835 1.862 1.862a1.864 1.864 0 0 1-1.862 1.862.62.62 0 1 0 0 1.241 3.107 3.107 0 0 0 3.103-3.103A3.107 3.107 0 0 0 16.138.311a.62.62 0 1 0 0 1.24z" fill="#3FACDC"/><path d="M19.862 1.552c1.027 0 1.862.835 1.862 1.862a1.864 1.864 0 0 1-1.862 1.862.62.62 0 1 0 0 1.241 3.107 3.107 0 0 0 3.104-3.103A3.107 3.107 0 0 0 19.862.311a.62.62 0 1 0 0 1.24zm-.439 23.404a.619.619 0 0 0 .878 0l2.044-2.044 2.044 2.044a.62.62 0 0 0 .878 0 .62.62 0 0 0 0-.878l-2.044-2.044 2.044-2.044a.62.62 0 1 0-.878-.877l-2.044 2.044-2.044-2.044a.62.62 0 1 0-.878.877l2.044 2.044-2.044 2.044a.62.62 0 0 0 0 .878z" fill="#3FACDC"/></svg>