<svg width="40" height="40" fill="none" xmlns="http://www.w3.org/2000/svg"><path d="M22.5 24.375A9.362 9.362 0 0 1 13.123 15 9.362 9.362 0 0 1 22.5 5.625c1.188 0 2.313.25 3.438.625a.6.6 0 0 0 .812-.375.6.6 0 0 0-.375-.813c-1.25-.437-2.5-.687-3.875-.687A10.616 10.616 0 0 0 11.874 15c0 1.313.25 2.563.688 3.75l-1.125 1.125a.567.567 0 0 0-.188.438v1.75c0 .375.25.625.625.625s.625-.25.625-.625v-1.5l.625-.625c.625 1.125 1.375 2.125 2.313 2.937L1.937 36.5v-1.75l.687-.688a.567.567 0 0 0 .188-.437V32.5h1.125a.567.567 0 0 0 .437-.188l.875-.874A.567.567 0 0 0 5.437 31v-1.125h1.125c.375 0 .625-.25.625-.625v-1.125h1.125c.375 0 .625-.25.625-.625V26l1.562-1.563a.604.604 0 0 0 0-.875.604.604 0 0 0-.875 0l-1.75 1.75a.567.567 0 0 0-.187.438v1.125H6.562c-.375 0-.625.25-.625.625v1.125H4.812c-.375 0-.625.25-.625.625v1.375l-.5.5h-1.5c-.375 0-.625.25-.625.625v1.5l-.688.688a.567.567 0 0 0-.187.437v3.563c0 .437.437.562.437.562l2.625.938c.063 0 .375.062.625-.126l3.875-3.874a.604.604 0 0 0 0-.876.604.604 0 0 0-.875 0L3.75 38.126l-1.312-.438 14-14c.687.5 1.5.875 2.312 1.188l-.937.938h-1.5a.567.567 0 0 0-.438.187l-6.187 6.188c-.25.25-.25.687 0 .874.375.313.75.126.875 0l6-6h1.5a.567.567 0 0 0 .437-.187l1.563-1.563c.75.188 1.562.25 2.375.25.375 0 .625-.25.625-.625s-.188-.562-.563-.562zm7.001-16.563a.67.67 0 0 0-.063.875c1.563 1.75 2.438 3.938 2.438 6.25 0 4.25-2.875 8-7 9.063-.313.062-.563.437-.438.75.188.562.688.437.75.437 4.688-1.125 7.938-5.375 7.938-10.187 0-2.625-1-5.188-2.75-7.125-.188-.25-.625-.25-.875-.063z" fill="#3FACDC"/><path d="M29.187 11.438c0-.438-.062-.876-.25-1.25-.125-.313-.5-.438-.812-.313-.313.125-.438.5-.313.813.125.25.188.5.188.75a1.842 1.842 0 0 1-1.875 1.874 1.842 1.842 0 0 1-1.875-1.874c0-.688.312-1.25.875-1.626.312-.187.375-.562.187-.874-.187-.313-.562-.376-.875-.188-.937.563-1.5 1.563-1.5 2.688a3.095 3.095 0 0 0 3.125 3.124 3.095 3.095 0 0 0 3.125-3.124z" fill="#3FACDC"/><path d="M38.688 1.25c-1.75-1.75-5.812-.375-9.312 3.125-2.438 2.437-3.938 5.312-3.875 7.375 0 .312.312.625.625.625a.626.626 0 0 0 .625-.625c-.063-1.688 1.312-4.313 3.5-6.438 3.125-3.125 6.5-4.125 7.5-3.125 1.062 1.063 0 4.375-3.063 7.5-.375.375-.75.688-1.125 1.063-.25.25-.312.625-.062.875s.625.312.875.062c.437-.312.812-.687 1.187-1.125 3.5-3.5 4.875-7.625 3.125-9.312zM16 12.687c.812-2.375 2.874-4.062 5.312-4.5.312-.062.562-.375.5-.687a.648.648 0 0 0-.75-.5c-2.938.5-5.313 2.5-6.313 5.312-.125.313.063.688.375.813.375.062.813-.188.875-.438zm-1 1.688c-.375 0-.625.25-.625.625 0 .438.063.875.125 1.375.063.313.313.5.625.5.438 0 .688-.375.625-.75-.063-.375-.125-.75-.125-1.125s-.25-.625-.625-.625z" fill="#3FACDC"/></svg>