<svg width="40" height="40" fill="none" xmlns="http://www.w3.org/2000/svg"><g clip-path="url(#clip0)" fill="#3FACDC"><path d="M.781 37.188H39.22a.781.781 0 0 0 0-1.563H32.5v-5.469h5.396a.781.781 0 0 0 .66-1.2l-3.696-5.831h1.746a.781.781 0 0 0 .66-1.2l-3.696-5.831h1.747a.781.781 0 0 0 .66-1.2l-1.09-1.72a.781.781 0 1 0-1.32.837l.33.52H32.15a.781.781 0 0 0-.66 1.2l3.696 5.832H33.44a.781.781 0 0 0-.66 1.199l3.696 5.832h-6.04l-4.951-7.813h1.746a.781.781 0 0 0 .66-1.2l-3.696-5.831h1.747a.781.781 0 0 0 .66-1.2l-.247-.389 3.02-4.764.429.677a.781.781 0 0 0 1.32-.837l-1.09-1.718a.78.78 0 0 0-1.319 0l-3.285 5.183-4.77-7.527a.78.78 0 0 0-1.32 0l-4.77 7.527-3.285-5.183a.78.78 0 0 0-1.32 0l-5.942 9.375a.781.781 0 0 0 .66 1.2H6.43l-3.696 5.831a.781.781 0 0 0 .66 1.2H5.14l-3.696 5.832a.781.781 0 0 0 .66 1.2H7.5v5.468H.781a.781.781 0 0 0 0 1.563zm16.096-7.032l-.002 5.469H13.75v-5.469h3.127zm1.56 0h3.125v5.469h-3.126l.002-5.469zm7.813 5.469h-3.125v-5.469h3.125v5.469zm4.688 0h-3.125v-5.469h3.125v5.469zM20 5.053l4.522 7.135h-1.747a.781.781 0 0 0-.66 1.199l3.696 5.832h-1.746a.781.781 0 0 0-.66 1.2l5.181 8.175H11.414l4.95-7.813H20a.781.781 0 1 0 0-1.562h-5.811l3.696-5.832a.781.781 0 0 0-.66-1.2h-1.747L20 5.053zM7.22 22.762a.781.781 0 0 0-.66-1.2H4.814l3.696-5.831a.781.781 0 0 0-.66-1.2H6.103l4.522-7.134 3.02 4.764-.247.39a.782.782 0 0 0 .66 1.199h1.747l-3.696 5.832a.781.781 0 0 0 .66 1.2h1.746l-4.951 7.812h-6.04l3.696-5.832zm4.968 7.394v5.469H9.062v-5.469h3.126z"/><path d="M32.344 11.406a.781.781 0 1 0 0-1.562.781.781 0 0 0 0 1.562z"/></g><defs><clipPath id="clip0"><path fill="#fff" d="M0 0h40v40H0z"/></clipPath></defs></svg>