<svg width="40" height="40" fill="none" xmlns="http://www.w3.org/2000/svg"><path d="M37.794 12.448h-5.045a.73.73 0 0 0-.201.028L20.341 15.98a.73.73 0 0 0 .403 1.404l12.108-3.475h4.942c.411 0 .746.335.746.746v2.076h-5.79a.73.73 0 0 0-.367.1l-20.607 12.01v-8.886l6.557-1.882a.73.73 0 0 0-.402-1.403l-6.155 1.767V14.3l9.817-5.158a2.402 2.402 0 0 0 1.14-2.92 2.4 2.4 0 0 0-2.744-1.536c-3.591.756-12.424 2.6-16.886 3.37A3.732 3.732 0 0 0 0 11.743v4.5a.73.73 0 0 0 1.46 0V14.59h8.856v19.317H1.46V18.774a.73.73 0 1 0-1.46 0v15.862c0 .403.327.73.73.73h10.316a.73.73 0 0 0 .73-.73V30.53l21.17-12.341h.339v1.606c0 .403.327.73.73.73h4.38a.73.73 0 0 0 .73-.73V18.19h.145a.73.73 0 0 0 .73-.73v-2.806c0-1.216-.99-2.206-2.206-2.206zm-26.928.681H1.46v-1.386c0-1.114.795-2.059 1.891-2.248 4.486-.774 13.34-2.622 16.939-3.38a.934.934 0 0 1 1.068.597.936.936 0 0 1-.444 1.138l-10.048 5.28zm26.798 5.937h-2.92v-.876h2.92v.876zm.941 5.592l-1.884-1.884a.73.73 0 0 0-1.032 0l-1.884 1.884a3.398 3.398 0 0 0 0 4.8 3.384 3.384 0 0 0 2.4.993 3.38 3.38 0 0 0 2.4-.993 3.398 3.398 0 0 0 0-4.8zm-1.032 3.768a1.937 1.937 0 0 1-2.736 0 1.936 1.936 0 0 1 0-2.736l1.368-1.367 1.368 1.367a1.937 1.937 0 0 1 0 2.736z" fill="#3FACDC"/></svg>