<svg width="40" height="40" fill="none" xmlns="http://www.w3.org/2000/svg"><g clip-path="url(#clip0)"><path d="M25.703 17.792l-.174-2.352a.653.653 0 0 0-.608-.6l-2.387-.17-1.81-1.542a.665.665 0 0 0-.86 0l-1.81 1.542-2.387.17a.653.653 0 0 0-.608.6l-.174 2.352-1.564 1.784a.641.641 0 0 0 0 .848l1.564 1.784.174 2.352a.653.653 0 0 0 .608.6l2.387.17 1.81 1.543a.662.662 0 0 0 .86 0l1.81-1.542 2.386-.172a.653.653 0 0 0 .609-.6l.173-2.351 1.565-1.784a.641.641 0 0 0 0-.848l-1.564-1.784zm-1.139 3.73a.643.643 0 0 0-.158.377l-.148 2.008-2.037.146a.665.665 0 0 0-.383.156l-1.544 1.316-1.545-1.316a.664.664 0 0 0-.382-.156l-2.037-.146-.148-2.008a.644.644 0 0 0-.159-.377L14.688 20l1.335-1.522a.643.643 0 0 0 .159-.377l.148-2.008 2.037-.146a.665.665 0 0 0 .382-.156l1.545-1.316 1.544 1.316a.664.664 0 0 0 .383.156l2.037.146.148 2.008c.01.139.066.271.158.377L25.9 20l-1.336 1.522zM8.891 31.238a.642.642 0 0 1 0 .917l-2.017 1.987a.661.661 0 0 1-.93 0 .642.642 0 0 1 0-.917l2.017-1.987a.665.665 0 0 1 .93 0zM31.696 8.762a.642.642 0 0 1 0-.917l2.017-1.987a.665.665 0 0 1 .93 0 .642.642 0 0 1 0 .917l-2.016 1.987a.66.66 0 0 1-.93 0zM3.51 20.65H.658A.653.653 0 0 1 0 20c0-.358.294-.648.658-.648H3.51c.363 0 .658.29.658.648a.653.653 0 0 1-.658.649zM40 20c0 .349-.286.63-.64.63h-2.773a.635.635 0 0 1-.64-.63c0-.348.286-.63.64-.63h2.773c.354 0 .64.282.64.63zm-5.106 0l3.307-3.26a.642.642 0 0 0 0-.917.665.665 0 0 0-.93 0l-3.46 3.411-3.41-3.36v-4.752h4.894c.364 0 .658-.29.658-.648a.653.653 0 0 0-.658-.648h-4.677v-4.61a.653.653 0 0 0-.658-.649.653.653 0 0 0-.658.649v4.823H24.48l-3.409-3.36 3.46-3.41a.642.642 0 0 0 0-.917.665.665 0 0 0-.93 0l-3.307 3.26-3.308-3.26a.665.665 0 0 0-.93 0 .642.642 0 0 0 0 .917l3.46 3.41-3.409 3.36h-4.821V5.216a.653.653 0 0 0-.658-.649.653.653 0 0 0-.658.649v4.61H5.292a.653.653 0 0 0-.658.648c0 .358.295.648.658.648h4.894v4.752l-3.409 3.36-3.46-3.41a.665.665 0 0 0-.931 0 .642.642 0 0 0 0 .916L5.694 20l-3.308 3.26a.642.642 0 0 0 0 .917.661.661 0 0 0 .93 0l3.461-3.41 3.41 3.359v4.752H5.291a.653.653 0 0 0-.658.648c0 .358.295.648.658.648H9.97v4.61c0 .359.294.649.658.649.363 0 .658-.29.658-.649v-4.823h4.821l3.41 3.36-3.461 3.41a.642.642 0 0 0 0 .917.665.665 0 0 0 .93 0l3.308-3.26 3.307 3.26a.661.661 0 0 0 .93 0 .642.642 0 0 0 0-.917l-3.46-3.41 3.41-3.36h4.82v4.823c0 .359.295.649.659.649.363 0 .658-.29.658-.649v-4.61h4.677c.364 0 .658-.29.658-.648a.653.653 0 0 0-.658-.648h-4.894v-4.752l3.41-3.36 3.46 3.41a.661.661 0 0 0 .93 0 .642.642 0 0 0 0-.916L34.894 20zm-5.475 3.26a.637.637 0 0 0-.186.39.637.637 0 0 0-.148.404v4.61h-4.677a.658.658 0 0 0-.411.146.655.655 0 0 0-.396.184l-3.307 3.26-3.308-3.26a.656.656 0 0 0-.395-.184.657.657 0 0 0-.411-.146h-4.678v-4.61a.637.637 0 0 0-.148-.405.639.639 0 0 0-.186-.39L7.861 20l3.307-3.26a.638.638 0 0 0 .186-.39.637.637 0 0 0 .148-.404v-4.61h4.678a.658.658 0 0 0 .411-.146.656.656 0 0 0 .395-.183l3.308-3.26 3.307 3.26a.655.655 0 0 0 .396.183c.112.09.254.146.41.146h4.678v4.61c0 .154.057.294.148.405.015.142.075.28.186.389L32.727 20l-3.308 3.26zM5.944 6.775a.642.642 0 0 1 0-.917.665.665 0 0 1 .93 0l2.017 1.987a.642.642 0 0 1 0 .917.661.661 0 0 1-.93 0L5.944 6.775zm28.7 26.45a.642.642 0 0 1 0 .917.661.661 0 0 1-.931 0l-2.017-1.987a.642.642 0 0 1 0-.917.665.665 0 0 1 .93 0l2.017 1.987zM19.635 3.46V.65c0-.359.294-.649.658-.649.363 0 .658.29.658.648V3.46a.653.653 0 0 1-.658.649.653.653 0 0 1-.658-.649zm1.316 33.082v2.81a.653.653 0 0 1-.658.649.653.653 0 0 1-.658-.648V36.54c0-.358.294-.648.658-.648.363 0 .658.29.658.648z" fill="#3FACDC"/></g><defs><clipPath id="clip0"><path fill="#fff" d="M0 0h40v40H0z"/></clipPath></defs></svg>