<svg width="40" height="40" fill="none" xmlns="http://www.w3.org/2000/svg"><path d="M17.768 39.995zm-.006.001l-.007.001h.007zm.521-4.269V10.094a.586.586 0 1 0-1.172 0v6.8c-1.326-6.958-1.814-13.698-1.938-15.722h1.938V7.75a.586.586 0 1 0 1.172 0V.586A.586.586 0 0 0 17.697 0H5.733a.586.586 0 0 0-.586.586v27.363a.586.586 0 1 0 1.172 0V9.199c1.173 4.187 2.649 13.216.915 29.629h-.915v-8.535a.586.586 0 1 0-1.172 0v9.12c0 .325.262.587.586.587h4.33l7.707-.005a.501.501 0 0 0 .063-.012l.026-.006.03-.01.011-.004.009-.003a.55.55 0 0 0 .035-.015l.02-.01a.69.69 0 0 0 .03-.016l.022-.014.023-.016a.503.503 0 0 0 .067-.056l.016-.017.022-.024.016-.02.018-.023.016-.026.013-.02.016-.03.01-.02.012-.033.008-.02a.487.487 0 0 0 .009-.032c.002-.008.005-.016.006-.025a.453.453 0 0 0 .013-.083.533.533 0 0 0 .002-.036v-3.697zm-8.726 3.1H8.412c.757-7.227 1.323-17.342-.053-25.75-.743-4.54-1.749-6.726-2.04-7.29V1.172h.577c.682.906 1.976 3.39 2.885 7.623.724 3.373 1.114 7.332 1.157 11.769.053 5.414-.412 11.556-1.381 18.264zm4.29 0c-.465-2.229-.86-5.598-.278-6.968.295.364.919 1.335 2.031 3.907a86.254 86.254 0 0 1 1.248 3.062h-3.002zm3.264-2.497a70.465 70.465 0 0 0-.53-1.248c-1.781-4.075-2.474-4.497-2.984-4.573a.818.818 0 0 0-.788.333c-1.25 1.649-.52 6.163-.158 7.986h-1.91c.97-6.763 1.43-12.958 1.368-18.424-.053-4.532-.463-8.58-1.22-12.029-.834-3.807-1.91-6.054-2.598-7.203h3.139c.212 1.742.944 7.657 1.884 14.179 1.487 10.32 2.765 17.207 3.797 20.474v.505zm0-5.386c-1.973-9.474-4.07-26.256-4.5-29.772h1.388c.148 2.447.868 12.478 3.112 21.11v8.662zM17.696 40a.602.602 0 0 0 .057-.003l-.059.003h.002zM34.27 0H22.304a.586.586 0 0 0-.586.586v38.828c0 .324.262.586.586.586H34.27a.586.586 0 0 0 .586-.586v-8.328a.586.586 0 1 0-1.172 0v7.742h-1.725c-.078-6.742.097-16.207 1.307-24.14.14-.915.28-1.73.418-2.45v16.504a.586.586 0 1 0 1.172 0V.586A.586.586 0 0 0 34.27 0zm-8.056 11.684a.76.76 0 0 0 .611-.316c.201-.268.62-.828.241-6-.123-1.684-.293-3.32-.389-4.196h1.102c.283 2.103 1.228 10.393-.78 14.684-.323.691-.567.823-.636.815-.037-.005-.91-.155-2.265-4.522a57.49 57.49 0 0 1-1.207-4.652v-1.6c.14.362.286.736.436 1.11 1.676 4.173 2.266 4.589 2.769 4.667a.68.68 0 0 0 .118.01zM22.89 1.171h2.607c.09.81.264 2.46.392 4.176.199 2.677.177 4.022.115 4.692-.705-1.197-1.959-4.21-3.114-7.54V1.172zm2.04 37.656h-2.04v-19.01c1.044 4.344 2.379 11.551 2.04 19.01zm1.173 0c.274-6.194-.586-12.151-1.372-16.112-.804-4.056-1.668-6.808-1.84-7.34v-3.163l.084.276c.744 2.398 1.786 5.174 3.25 5.346.052.006.104.009.155.009.652 0 1.217-.5 1.68-1.491 1.036-2.214 1.485-5.563 1.334-9.953a55.519 55.519 0 0 0-.433-5.228h2.783a287.094 287.094 0 0 0-2.236 13.268c-1.014 7.024-2.138 16.868-1.835 24.388h-1.57zm7.58-31.378c-.181.488-.888 2.574-1.564 6.968-1.233 8.021-1.412 17.59-1.334 24.41h-1.94c-.546-13.287 3.43-34.261 4.095-37.655h.744V7.45z" fill="#3FACDC"/></svg>