<svg width="44" height="32" fill="none" xmlns="http://www.w3.org/2000/svg"><path d="M3.66 0c-.303-.013-.554.124-.688.356-.981 1.67-1.926 3.35-2.879 5.037a.719.719 0 0 0-.072.528l2.106 8.423-2.09 6.269A.715.715 0 0 0 0 20.84c0 1.92.003 3.831.003 5.75a.719.719 0 0 0 .716.722h3.65c.353 2.43 2.453 4.308 4.978 4.308s4.619-1.878 4.97-4.308h12.279c.958 0 .958-1.438 0-1.438H14.319c-.35-2.432-2.446-4.314-4.972-4.314a5.022 5.022 0 0 0-3.515 1.439H1.438v-2.041l2.12-6.358a.719.719 0 0 0 .015-.401L1.486 5.85l.497-.88 3.658 9.54.11 6.342a.72.72 0 0 0 .718.706h13.753a.719.719 0 0 0 .625-.362l2.485-4.348 1.106.773v5.376h-8.662c-.994.05-.92 1.488.038 1.438h13.43a4.98 4.98 0 0 0-.495 2.153 5.04 5.04 0 0 0 5.03 5.03c2.525 0 4.623-1.878 4.976-4.308h3.652a.719.719 0 0 0 .721-.722v-2.875a.719.719 0 0 0-.721-.716h-.716v-7.906a.72.72 0 0 0-.033-.207l-2.14-7.142c-.364-1.214-1.011-1.995-2.141-1.995H29.47a2.169 2.169 0 0 0-2.159 2.155v12.934c0 .96 1.438.96 1.438 0V7.903c0-.41.31-.716.722-.716h7.906c.477 0 .621.5.748.922l2.127 7.09v7.799h-2.958a5.021 5.021 0 0 0-3.515-1.439 5.01 5.01 0 0 0-3.511 1.439h-4.393v-5.752a.719.719 0 0 0-.307-.59l-2.06-1.437a.719.719 0 0 0-1.034.234l-1.665 2.913-6.764-1.195 6.159-10.672 4.4 5.266-.693 1.196c-.48.83.767 1.55 1.246.719l.942-1.632a.719.719 0 0 0-.07-.82l-5.381-6.437a.721.721 0 0 0-.191-.163l-4.981-2.875a.72.72 0 0 0-.257-.089L3.66.001zm.313 1.496l9.991 1.44-5.11 8.85c-.479.83.766 1.549 1.245.719l5.281-9.146 3.737 2.156-6.471 11.203-2.985-1.723a.698.698 0 0 0-.967.244c-.185.317-.16.764.232.99l3.624 2.093c.072.042.151.07.233.085l7.268 1.285-.246.43H7.175l-.098-5.763a.712.712 0 0 0-.048-.244L2.901 3.353l1.072-1.857zM30.91 8.619a.719.719 0 0 0-.723.716v4.32a.719.719 0 0 0 .723.715h1.856l1.226 1.231a.72.72 0 0 0 .51.207h3.464a.719.719 0 0 0 .685-.922l-1.72-5.752a.719.719 0 0 0-.689-.515H30.91zm.716 1.437h4.08L37 14.37h-2.201l-1.226-1.225a.719.719 0 0 0-.51-.212h-1.437v-2.877zm-.716 7.19c-.959 0-.959 1.438 0 1.438h1.438c.96 0 .96-1.439 0-1.439H30.91zM9.347 22.997a3.578 3.578 0 0 1 3.59 3.591 3.584 3.584 0 0 1-3.59 3.598 3.59 3.59 0 0 1-3.598-3.598 3.584 3.584 0 0 1 3.598-3.591zm24.432 0a3.584 3.584 0 0 1 3.598 3.591 3.59 3.59 0 0 1-3.598 3.598 3.585 3.585 0 0 1-3.593-3.598 3.58 3.58 0 0 1 3.593-3.591zM1.435 24.436h3.37c-.214.447-.364.93-.437 1.437H1.435v-1.437zm7.912 0c-1.182 0-2.16.97-2.16 2.153 0 1.182.978 2.16 2.16 2.16a2.168 2.168 0 0 0 2.153-2.16 2.162 2.162 0 0 0-2.153-2.153zm24.432 0a2.162 2.162 0 0 0-2.154 2.153c0 1.182.971 2.16 2.154 2.16 1.182 0 2.16-.978 2.16-2.16a2.169 2.169 0 0 0-2.16-2.153zm4.541 0h3.37v1.437h-2.933a4.97 4.97 0 0 0-.437-1.437zM9.347 25.873c.405 0 .716.31.716.716 0 .405-.31.722-.716.722a.714.714 0 0 1-.723-.722.71.71 0 0 1 .723-.716zm24.432 0c.405 0 .721.31.721.716a.713.713 0 0 1-.721.722.708.708 0 0 1-.716-.722c0-.405.31-.716.716-.716z" fill="#3FACDC"/></svg>