<?xml version="1.0" encoding="utf-8"?><svg viewBox="0 0 64 64" xmlns="http://www.w3.org/2000/svg" xmlns:xlink="http://www.w3.org/1999/xlink"><style>:root>svg{display:none}:root>svg:target{display:block}</style><svg fill="none" viewBox="0 0 32 32" id="address" xmlns="http://www.w3.org/2000/svg"><path d="M16.104 7.013a4.096 4.096 0 0 0-4.09 4.09 4.096 4.096 0 0 0 4.09 4.091 4.096 4.096 0 0 0 4.091-4.09 4.096 4.096 0 0 0-4.09-4.091zm0 7.012a2.925 2.925 0 0 1-2.922-2.921 2.925 2.925 0 0 1 2.922-2.922 2.925 2.925 0 0 1 2.922 2.921 2.925 2.925 0 0 1-2.922 2.922z" fill="#3FACDC"/><path d="M23.925 3.283A11.134 11.134 0 0 0 16 0a11.133 11.133 0 0 0-7.924 3.283c-3.917 3.916-4.404 11.286-1.054 15.75L16 32l8.966-12.949C28.329 14.57 27.842 7.2 23.925 3.283zm.093 15.085L16 29.946 7.97 18.35C4.932 14.3 5.367 7.644 8.903 4.11A9.972 9.972 0 0 1 16 1.169a9.974 9.974 0 0 1 7.098 2.94c3.536 3.535 3.971 10.19.92 14.26z" fill="#3FACDC"/></svg><svg fill="none" viewBox="0 0 32 32" id="arrow-down_white" xmlns="http://www.w3.org/2000/svg"><path d="M26.472 20.862a.666.666 0 0 0-.942 0l-8.862 8.862V.667a.666.666 0 1 0-1.334 0v29.057l-8.862-8.862a.666.666 0 1 0-.942.943l10 10a.664.664 0 0 0 .942 0l10-10a.667.667 0 0 0 0-.943z" fill="#fff"/></svg><svg fill="none" viewBox="0 0 18 31" id="arrow-prev_black" xmlns="http://www.w3.org/2000/svg"><path d="M16.5 1L2 15.5 16.5 30" stroke="#000" stroke-width="2"/></svg><svg fill="none" viewBox="0 0 18 31" id="arrow-prev_blue" xmlns="http://www.w3.org/2000/svg"><path d="M16.5 1L2 15.5 16.5 30" stroke="#116893" stroke-width="2"/></svg><svg fill="none" viewBox="0 0 18 31" id="arrow-prev_gray" xmlns="http://www.w3.org/2000/svg"><path d="M16.5 1L2 15.5 16.5 30" stroke="#C4C4C4" stroke-width="2"/></svg><svg fill="none" viewBox="0 0 18 31" id="arrow-prev_white" xmlns="http://www.w3.org/2000/svg"><path d="M16.5 1L2 15.5 16.5 30" stroke="#fff" stroke-width="2"/></svg><svg fill="none" viewBox="0 0 36 36" id="calendar" xmlns="http://www.w3.org/2000/svg"><path d="M26.627 2.793a3.109 3.109 0 0 0-3.04-2.482.62.62 0 1 0 0 1.24c1.026 0 1.861.836 1.861 1.863a1.864 1.864 0 0 1-1.862 1.862.62.62 0 1 0 0 1.241 3.11 3.11 0 0 0 3.041-2.482h8.132V8.38H1.24V4.035h10.552a.62.62 0 1 0 0-1.242h-1.127a1.859 1.859 0 0 1 1.748-1.241c1.026 0 1.862.835 1.862 1.862a1.864 1.864 0 0 1-1.862 1.862.62.62 0 1 0 0 1.241 3.107 3.107 0 0 0 3.103-3.103A3.107 3.107 0 0 0 12.414.311a3.11 3.11 0 0 0-3.041 2.482H0V35.69h36V2.793h-9.373zm-8.006 6.828h7.448v7.448h-7.448V9.621zm7.448 16.138h-7.448V18.31h7.448v7.448zM9.931 18.31h7.448v7.448H9.931V18.31zm0-8.69h7.448v7.448H9.931V9.621zm-8.69.62v-.62H8.69v7.448H1.24v-6.827zm0 8.07H8.69v7.448H1.24V18.31zm0 16.138V27H8.69v7.449H1.24zm8.69 0V27h7.448v7.449H9.931zm8.69 0V27h7.448v7.449h-7.448zm16.138 0H27.31V27h7.449v7.449zm0-8.69H27.31V18.31h7.449v7.448zm-7.449-8.69V9.621h7.449v7.448H27.31z" fill="#3FACDC"/><path d="M16.138 1.552c1.027 0 1.862.835 1.862 1.862a1.864 1.864 0 0 1-1.862 1.862.62.62 0 1 0 0 1.241 3.107 3.107 0 0 0 3.103-3.103A3.107 3.107 0 0 0 16.138.311a.62.62 0 1 0 0 1.24z" fill="#3FACDC"/><path d="M19.862 1.552c1.027 0 1.863.835 1.863 1.862a1.864 1.864 0 0 1-1.863 1.862.62.62 0 1 0 0 1.241 3.107 3.107 0 0 0 3.104-3.103A3.107 3.107 0 0 0 19.862.311a.62.62 0 1 0 0 1.24zM19.424 24.956a.619.619 0 0 0 .877 0l2.044-2.044 2.044 2.044a.619.619 0 0 0 .878 0 .62.62 0 0 0 0-.877l-2.044-2.044 2.044-2.044a.62.62 0 1 0-.878-.878l-2.044 2.044-2.044-2.044a.62.62 0 1 0-.877.878l2.043 2.044-2.043 2.044a.62.62 0 0 0 0 .877z" fill="#3FACDC"/></svg><svg fill="none" viewBox="0 0 40 40" id="file" xmlns="http://www.w3.org/2000/svg"><path d="M34.519 8.96c-.004-.004-.004-.007-.007-.009l-.1-.099c-.012-.007-.017-.022-.027-.03L25.815.257a.84.84 0 0 0-.394-.21.821.821 0 0 0-.11-.023C25.273.017 25.238 0 25.201 0H6.07a.87.87 0 0 0-.87.87v38.26c0 .48.39.87.87.87h27.826c.48 0 .87-.39.87-.87V9.734c.012-.056.034-.11.034-.169 0-.245-.12-.447-.281-.605zm-8.45-5.991l5.728 5.727H26.07V2.969zm6.957 35.292H6.94V1.739h17.392v7.826c0 .48.39.87.87.87h7.825V38.26z" fill="#3FACDC"/><path d="M20.853 14.783a.87.87 0 0 0-1.74 0v11.813l-5.47-5.47a.87.87 0 0 0-1.23 1.229l6.954 6.955a.876.876 0 0 0 .948.19.827.827 0 0 0 .284-.19l6.954-6.955a.87.87 0 0 0-1.23-1.232l-5.47 5.473V14.783zM26.94 31.304H13.027a.87.87 0 0 0 0 1.74H26.94a.87.87 0 0 0 0-1.74z" fill="#3FACDC"/></svg><svg fill="none" viewBox="0 0 16 16" id="home" xmlns="http://www.w3.org/2000/svg"><path d="M8.933 0H7.1L0 6.367V16h6.667v-4.667h2.666V16H16V6.367L8.933 0zm5.734 14.667h-4V10H5.333v4.667h-4v-7.7L7.6 1.333h.833l6.234 5.634v7.7z" fill="#036590"/></svg><svg fill="none" viewBox="0 0 16 16" id="home_hover" xmlns="http://www.w3.org/2000/svg"><path d="M8.933 0H7.1L0 6.367V16h6.667v-4.667h2.666V16H16V6.367L8.933 0zm5.734 14.667h-4V10H5.333v4.667h-4v-7.7L7.6 1.333h.833l6.234 5.634v7.7z" fill="#fff"/></svg><svg fill="none" viewBox="0 0 16 16" id="inst_blue" xmlns="http://www.w3.org/2000/svg"><path d="M8.004 3.89a4.105 4.105 0 1 0-.001 8.21 4.105 4.105 0 0 0 0-8.21zm0 6.77a2.664 2.664 0 1 1 0-5.329 2.664 2.664 0 1 1 0 5.33z" fill="#0D6992"/><path d="M11.299.05C9.827-.018 6.18-.015 4.707.05 3.413.11 2.271.424 1.35 1.344-.189 2.883.008 4.956.008 7.997c0 3.112-.173 5.137 1.342 6.653 1.545 1.544 3.648 1.342 6.653 1.342 3.082 0 4.146.002 5.236-.42 1.482-.576 2.601-1.9 2.71-4.28.07-1.472.066-5.118 0-6.591C15.819 1.892 14.31.189 11.3.05zm2.33 13.582c-1.009 1.008-2.408.918-5.646.918-3.333 0-4.67.05-5.645-.928-1.123-1.118-.92-2.914-.92-5.636 0-3.683-.378-6.336 3.319-6.525.85-.03 1.1-.04 3.237-.04l.03.02c3.553 0 6.34-.372 6.508 3.324.037.843.046 1.097.046 3.231 0 3.295.062 4.64-.93 5.636z" fill="#0D6992"/><path d="M12.272 4.688a.96.96 0 1 0 0-1.918.96.96 0 0 0 0 1.918z" fill="#0D6992"/></svg><svg fill="none" viewBox="0 0 16 16" id="inst_white" xmlns="http://www.w3.org/2000/svg"><path d="M8.004 3.89a4.105 4.105 0 1 0-.001 8.21 4.105 4.105 0 0 0 0-8.21zm0 6.77a2.664 2.664 0 1 1 0-5.329 2.664 2.664 0 1 1 0 5.33z" fill="#fff"/><path d="M11.299.05C9.827-.018 6.18-.015 4.707.05 3.413.11 2.271.424 1.35 1.344-.189 2.883.008 4.956.008 7.997c0 3.112-.173 5.137 1.342 6.653 1.545 1.544 3.648 1.342 6.653 1.342 3.082 0 4.146.002 5.236-.42 1.482-.576 2.601-1.9 2.71-4.28.07-1.472.066-5.118 0-6.591C15.819 1.892 14.31.189 11.3.05zm2.33 13.582c-1.009 1.008-2.408.918-5.646.918-3.333 0-4.67.05-5.645-.928-1.123-1.118-.92-2.914-.92-5.636 0-3.683-.378-6.336 3.319-6.525.85-.03 1.1-.04 3.237-.04l.03.02c3.553 0 6.34-.372 6.508 3.324.037.843.046 1.097.046 3.231 0 3.295.062 4.64-.93 5.636z" fill="#fff"/><path d="M12.272 4.688a.96.96 0 1 0 0-1.918.96.96 0 0 0 0 1.918z" fill="#fff"/></svg><svg fill="none" viewBox="0 0 32 34" id="mail" xmlns="http://www.w3.org/2000/svg"><path d="M27.666 26.727a5.85 5.85 0 0 1-3 .828c-3.308 0-6-2.78-6-6.2 0-3.418 2.692-6.2 6-6.2 3.31 0 6 2.782 6 6.2v.69c0 .759-.598 1.377-1.333 1.377S28 22.804 28 22.044V19.29a.678.678 0 0 0-.667-.689c-.179 0-.34.075-.46.194a3.248 3.248 0 0 0-2.206-.883c-1.838 0-3.334 1.545-3.334 3.444 0 1.9 1.496 3.445 3.334 3.445.975 0 1.844-.444 2.454-1.137l-.008-.01.042-.029.038.033-.009.01a2.634 2.634 0 0 0 2.15 1.133c1.47 0 2.666-1.236 2.666-2.756v-.689c0-3.945-2.935-7.193-6.667-7.542l2.333 12.914zm0 0a.653.653 0 0 1 .91.25.7.7 0 0 1-.242.942l-.668-1.192zm-2.383-12.914v.045l.046.004c3.705.348 6.621 3.572 6.621 7.493v.69c0 1.493-1.175 2.705-2.617 2.705-.883 0-1.662-.457-2.137-1.154l-.037-.054-.042.05c-.603.705-1.473 1.158-2.45 1.158-1.81 0-3.284-1.521-3.284-3.395 0-1.873 1.475-3.394 3.284-3.394.835 0 1.591.335 2.172.87l.036.032.033-.034c.112-.11.26-.179.425-.179.34 0 .617.284.617.639v2.755c0 .786.62 1.428 1.383 1.428.765 0 1.384-.642 1.384-1.428v-.689c0-3.444-2.713-6.25-6.05-6.25-3.338 0-6.05 2.806-6.05 6.25 0 3.445 2.712 6.25 6.05 6.25a5.9 5.9 0 0 0 3.025-.835h0a.603.603 0 0 1 .841.232h0a.651.651 0 0 1-.225.874 7.098 7.098 0 0 1-3.641 1.007c-3.326 0-6.133-2.318-7.001-5.474l-.01-.037H2.667C1.225 23.372.05 22.16.05 20.667V6.889c0-1.494 1.175-2.706 2.617-2.706h20c1.441 0 2.616 1.212 2.616 2.706v6.924zm-2.506-8.247l.095-.08-.124-.008a.128.128 0 0 1-.027-.007h0c-.013-.004-.032-.01-.054-.01h-20a.179.179 0 0 0-.054.01h0a.124.124 0 0 1-.027.006l-.124.008.095.08 9.574 8.119h0l.006.004c.12.076.308.124.507.126.2.001.418-.044.598-.161h0l.005-.004 9.53-8.083zm-5.41 16.529h.055l-.005-.055a7.802 7.802 0 0 1-.034-.684c0-3.92 2.915-7.145 6.62-7.493h.047V6.889c0-.202-.043-.393-.117-.567l-.026-.063-.052.044-9.868 8.37h0a.594.594 0 0 1-.099.069h0l-.003.001c-.37.238-.79.363-1.218.363-.445 0-.881-.135-1.26-.39L1.479 6.303l-.052-.044-.027.063a1.452 1.452 0 0 0-.117.567v13.778c0 .785.62 1.427 1.384 1.427h14.7zm5.25-.74c0 1.166.918 2.117 2.05 2.117 1.132 0 2.05-.95 2.05-2.117 0-1.165-.918-2.116-2.05-2.116-1.132 0-2.05.95-2.05 2.116z" fill="#3FACDC" stroke="#fff" stroke-width=".1"/></svg><svg fill="none" viewBox="0 0 32 32" id="phone" xmlns="http://www.w3.org/2000/svg"><g clip-path="url(#nclip0)" fill="#3FACDC"><path d="M31.99 26.337a1.929 1.929 0 0 0-.743-1.324l-6.167-4.767a3.232 3.232 0 0 0-3.606-.243l-1.135.655a1.954 1.954 0 0 1-2.178-.143 37.79 37.79 0 0 1-3.594-3.132 37.346 37.346 0 0 1-3.085-3.54 1.954 1.954 0 0 1-.138-2.175l.655-1.136a3.233 3.233 0 0 0-.242-3.609L6.99.757A1.924 1.924 0 0 0 5.667.013a1.916 1.916 0 0 0-1.452.434c-1.047.864-2.392 1.993-2.86 2.461C.408 3.855.004 5.096.004 7.06c0 2.29 4.203 10.807 9.265 15.658C14.137 27.798 22.654 32 24.946 32c1.962 0 3.202-.404 4.147-1.352.506-.504 1.76-2.009 2.461-2.859.34-.41.493-.924.436-1.452zm-1.421.637c-1.171 1.42-2.038 2.429-2.38 2.77-.505.508-1.249.976-3.244.976-1.758 0-10.013-3.94-14.772-8.908-4.947-4.742-8.89-12.996-8.89-14.753 0-1.995.47-2.739.977-3.246.338-.338 1.321-1.182 2.77-2.38a.655.655 0 0 1 .495-.148c.181.02.341.11.452.255l4.768 6.165c.489.634.547 1.492.146 2.187l-.655 1.136a3.23 3.23 0 0 0 .231 3.594 38.387 38.387 0 0 0 3.195 3.666 39.146 39.146 0 0 0 3.718 3.24 3.227 3.227 0 0 0 3.6.24v-.001l1.133-.655a1.96 1.96 0 0 1 2.185.148l6.166 4.765a.664.664 0 0 1 .105.949zM22.208 2.522a12.16 12.16 0 0 1 7.272 7.272.64.64 0 1 0 1.201-.439 13.426 13.426 0 0 0-8.035-8.035.64.64 0 0 0-.438 1.202zM20.455 7.335a7.08 7.08 0 0 1 4.21 4.211.642.642 0 0 0 1.206-.434 8.383 8.383 0 0 0-4.98-4.98.64.64 0 1 0-.436 1.203zM18.703 12.148c.537.192.956.612 1.148 1.15a.641.641 0 0 0 1.206-.432 3.164 3.164 0 0 0-1.924-1.922.64.64 0 0 0-.43 1.204z"/></g><defs><clipPath id="nclip0"><path fill="#fff" d="M0 0h32v32H0z"/></clipPath></defs></svg><svg fill="none" viewBox="0 0 8 8" id="phone_white" xmlns="http://www.w3.org/2000/svg"><path d="M7.652 5.805L6.572 4.73c-.385-.385-1.04-.231-1.194.269-.115.346-.5.538-.847.461-.77-.192-1.811-1.192-2.004-2-.115-.345.116-.73.462-.845.501-.154.655-.808.27-1.192L2.18.345c-.308-.269-.77-.269-1.04 0l-.732.73c-.732.77.077 2.808 1.888 4.615 1.81 1.807 3.853 2.653 4.623 1.884l.733-.73c.27-.308.27-.77 0-1.039z" fill="#fff"/></svg><svg fill="none" viewBox="0 0 42 42" id="pin" xmlns="http://www.w3.org/2000/svg"><circle r="9" transform="matrix(-1 0 0 1 21 21)" fill="#3FACDC"/><circle r="16" transform="matrix(-1 0 0 1 21 21)" stroke="#036590" stroke-width=".4"/><circle r="20" transform="matrix(-1 0 0 1 21 21)" stroke="#036590" stroke-opacity=".6" stroke-width=".4"/></svg><svg fill="none" viewBox="0 0 64 64" id="special-offer" xmlns="http://www.w3.org/2000/svg"><g clip-path="url(#qclip0)" fill="#3FACDC"><path d="M63.61 31.182l-5.937-5.937 2.173-8.109a1.334 1.334 0 0 0-.942-1.633l-8.11-2.173-2.173-8.11a1.334 1.334 0 0 0-1.632-.942l-8.11 2.173L32.943.515a1.333 1.333 0 0 0-1.885 0L25.12 6.45l-8.11-2.173a1.336 1.336 0 0 0-1.632.943l-2.173 8.109-8.108 2.173c-.71.19-1.133.922-.943 1.633l2.172 8.11L.39 31.181a1.332 1.332 0 0 0 0 1.885l5.936 5.936-2.172 8.11c-.19.71.232 1.442.943 1.632l8.108 2.172 2.173 8.11a1.33 1.33 0 0 0 1.633.942l8.11-2.172 5.936 5.936c.26.261.601.391.942.391.342 0 .683-.13.943-.39l5.936-5.937 8.11 2.172a1.326 1.326 0 0 0 1.632-.942l2.174-8.11 8.109-2.172a1.334 1.334 0 0 0 .942-1.633l-2.173-8.109 5.937-5.936c.52-.521.52-1.365 0-1.885zm-8.366 6.48a1.333 1.333 0 0 0-.346 1.288l2.028 7.565-7.565 2.026c-.46.124-.82.483-.943.942L46.39 57.05l-7.566-2.026a1.32 1.32 0 0 0-1.287.345L32 60.906l-5.537-5.538a1.33 1.33 0 0 0-1.288-.345l-7.566 2.026-2.027-7.566a1.336 1.336 0 0 0-.943-.942l-7.563-2.026 2.026-7.565c.123-.46-.008-.95-.346-1.288L3.22 32.124l5.537-5.538a1.33 1.33 0 0 0 .346-1.287l-2.026-7.565 7.563-2.028c.46-.123.82-.483.943-.942l2.027-7.566 7.566 2.028c.463.126.951-.008 1.288-.345L32 3.343l5.538 5.538c.336.337.824.47 1.287.345l7.566-2.028 2.027 7.566c.124.46.483.819.943.942l7.565 2.028-2.028 7.565c-.123.46.008.95.346 1.287l5.537 5.538-5.537 5.538z"/><path d="M29.333 24.125a6.674 6.674 0 0 0-6.666-6.667A6.674 6.674 0 0 0 16 24.125a6.674 6.674 0 0 0 6.667 6.666 6.674 6.674 0 0 0 6.666-6.666zm-10.666 0c0-2.206 1.794-4 4-4 2.205 0 4 1.794 4 4s-1.795 4-4 4c-2.206 0-4-1.794-4-4zM40 34.791a6.675 6.675 0 0 0-6.667 6.667A6.675 6.675 0 0 0 40 48.124a6.674 6.674 0 0 0 6.666-6.666A6.675 6.675 0 0 0 40 34.79zm0 10.667c-2.206 0-4-1.794-4-4s1.794-4 4-4 4 1.794 4 4-1.794 4-4 4zM42.108 17.707c-.6-.429-1.43-.29-1.86.31l-20 28a1.333 1.333 0 1 0 2.17 1.55l20-28c.428-.6.289-1.434-.31-1.86z"/></g><defs><clipPath id="qclip0"><path fill="#fff" d="M0 0h64v64H0z"/></clipPath></defs></svg><svg fill="none" viewBox="0 0 12 18" id="step-slider-arrow" xmlns="http://www.w3.org/2000/svg"><path d="M11 1L1 9l10 8" stroke="#68CEFC"/></svg><svg fill="none" viewBox="0 0 16 12" id="youtube_blue" xmlns="http://www.w3.org/2000/svg"><path d="M15.777 1.855c-.084-.7-.744-1.373-1.435-1.463a51.431 51.431 0 0 0-12.683 0C.967.483.307 1.155.223 1.856a32.685 32.685 0 0 0 0 7.624c.084.7.744 1.373 1.436 1.462a51.46 51.46 0 0 0 12.683 0c.69-.09 1.351-.762 1.435-1.462a32.683 32.683 0 0 0 0-7.624zm-1.324 7.47c-.015.093-.187.273-.285.294C12.136 9.871 10.058 10 8 10c-2.057 0-4.135-.129-6.177-.382-.09-.02-.26-.2-.276-.299a31.328 31.328 0 0 1 .001-7.31c.014-.094.186-.273.285-.295a50.243 50.243 0 0 1 12.345.002c.088.02.26.199.275.299a31.388 31.388 0 0 1 0 7.31z" fill="#0D6992"/><path d="M6.668 3v5.334l4-2.667-4-2.667z" fill="#0D6992"/></svg><svg fill="none" viewBox="0 0 16 12" id="youtube_white" xmlns="http://www.w3.org/2000/svg"><path d="M15.777 1.855c-.084-.7-.744-1.373-1.435-1.463a51.431 51.431 0 0 0-12.683 0C.967.483.307 1.155.223 1.856a32.685 32.685 0 0 0 0 7.624c.084.7.744 1.373 1.436 1.462a51.46 51.46 0 0 0 12.683 0c.69-.09 1.351-.762 1.435-1.462a32.683 32.683 0 0 0 0-7.624zm-1.324 7.47c-.015.093-.187.273-.285.294C12.136 9.871 10.058 10 8 10c-2.057 0-4.135-.129-6.177-.382-.09-.02-.26-.2-.276-.299a31.328 31.328 0 0 1 .001-7.31c.014-.094.186-.273.285-.295a50.243 50.243 0 0 1 12.345.002c.088.02.26.199.275.299a31.388 31.388 0 0 1 0 7.31z" fill="#fff"/><path d="M6.668 3v5.334l4-2.667-4-2.667z" fill="#fff"/></svg></svg>