<svg width="40" height="40" fill="none" xmlns="http://www.w3.org/2000/svg"><path d="M39.219 11.094h-4.844V7.656a4.536 4.536 0 0 0-4.531-4.531H22.89a.781.781 0 0 0 0 1.563h6.172v3.437H8.905a.781.781 0 0 0 0 1.563h20.157v3.437H8.905a.781.781 0 0 0 0 1.563h20.157v3.437H8.905a.781.781 0 0 0 0 1.563h20.157v3.437H10.78c-5.083 0-9.219-4.136-9.219-9.219 0-5.083 4.136-9.219 9.22-9.219h5.077a.781.781 0 0 0 0-1.562H10.78C4.836 3.125 0 7.961 0 13.906c0 4.266 2.49 7.961 6.094 9.708v6.855H2.812a.781.781 0 0 0-.78.781v4.844c0 .431.35.781.78.781h28.75c.432 0 .782-.35.782-.781V31.25a.781.781 0 0 0-.782-.781h-3.28v-5.782h1.562a4.536 4.536 0 0 0 4.531-4.53v-3.438h4.844c.431 0 .781-.35.781-.782v-4.062a.781.781 0 0 0-.781-.781zM30.78 35.312H3.594v-3.28H30.78v3.28zm-4.06-4.842H7.656v-6.244c.99.3 2.039.462 3.125.462H26.72v5.782zm6.093-10.313a2.974 2.974 0 0 1-2.187 2.865V4.79a2.974 2.974 0 0 1 2.188 2.865v12.5zm5.626-5h-4.063v-2.5h4.063v2.5z" fill="#3FACDC"/><path d="M19.375 4.688a.787.787 0 0 0 .552-.23.787.787 0 0 0 .23-.552.787.787 0 0 0-.23-.552.787.787 0 0 0-.552-.229.787.787 0 0 0-.552.229.787.787 0 0 0-.23.552.787.787 0 0 0 .781.781z" fill="#3FACDC"/></svg>