<svg width="40" height="40" fill="none" xmlns="http://www.w3.org/2000/svg"><path d="M33.132 0H6.868c-1.12 0-2.03.91-2.03 2.03v35.94c0 1.12.91 2.03 2.03 2.03h26.264c1.12 0 2.03-.91 2.03-2.03V2.03c0-1.12-.91-2.03-2.03-2.03zM6.134 8.207h27.732V35.94H6.134V8.207zM33.866 2.03v4.881H15.81V1.296h17.322c.405 0 .734.33.734.734zM6.868 1.296h7.646V6.91h-8.38V2.03c0-.406.33-.735.734-.735zm26.264 37.408H6.868a.735.735 0 0 1-.734-.734v-.735h27.732v.735c0 .405-.33.734-.734.734z" fill="#3FACDC"/><path d="M20 11.059c-5.312 0-9.633 4.32-9.633 9.632 0 5.312 4.321 9.633 9.633 9.633 5.311 0 9.633-4.321 9.633-9.633 0-5.311-4.322-9.632-9.633-9.632zm0 17.97c-4.597 0-8.337-3.74-8.337-8.338 0-4.597 3.74-8.336 8.337-8.336 4.597 0 8.337 3.74 8.337 8.336 0 4.597-3.74 8.337-8.337 8.337zm0-22.895c1.12 0 2.03-.911 2.03-2.03 0-1.12-.91-2.03-2.03-2.03-1.12 0-2.03.91-2.03 2.03 0 1.119.91 2.03 2.03 2.03zm0-2.765a.735.735 0 1 1 0 1.471.735.735 0 0 1 0-1.47zM8.25 6.134h4.148a.648.648 0 0 0 0-1.296H8.25a.648.648 0 0 0 0 1.296zm15.897-1.382h2.073a.648.648 0 0 0 0-1.296h-2.073a.648.648 0 1 0 0 1.296zm4.838 0h2.073a.648.648 0 1 0 0-1.296h-2.073a.648.648 0 0 0 0 1.296z" fill="#3FACDC"/><path d="M20 13.823a6.876 6.876 0 0 0-6.868 6.869A6.876 6.876 0 0 0 20 27.56a6.876 6.876 0 0 0 6.868-6.868A6.876 6.876 0 0 0 20 13.823zm0 12.44a5.579 5.579 0 0 1-5.572-5.572c0-3.072 2.5-5.572 5.572-5.572 3.073 0 5.572 2.5 5.572 5.573 0 3.072-2.5 5.572-5.572 5.572z" fill="#3FACDC"/></svg>