<svg width="40" height="40" fill="none" xmlns="http://www.w3.org/2000/svg"><g clip-path="url(#clip0)" fill="#3FACDC"><path d="M35.734 36.65v-9.647a.781.781 0 1 0-1.563 0v6.262h-12.81l12.81-21.928v8.697a.781.781 0 0 0 1.563 0V.782a.79.79 0 0 0-.57-.752.79.79 0 0 0-.878.345L20 23.818 5.716.375a.79.79 0 0 0-.86-.35.789.789 0 0 0-.589.757v35.867c-1.057.344-1.826 1.366-1.826 2.57a.781.781 0 1 0 1.563 0c0-.623.469-1.131 1.045-1.131s1.044.508 1.044 1.131a.781.781 0 1 0 1.563 0c0-1.204-.769-2.226-1.826-2.57v-1.822h5.913v1.822c-1.057.344-1.826 1.366-1.826 2.57a.781.781 0 1 0 1.563 0c0-.623.469-1.131 1.045-1.131s1.044.508 1.044 1.131a.781.781 0 0 0 1.563 0c0-1.204-.769-2.226-1.826-2.57v-1.822h5.913v1.822c-1.057.344-1.826 1.366-1.826 2.57a.781.781 0 1 0 1.563 0c0-.623.468-1.131 1.045-1.131.576 0 1.044.508 1.044 1.131a.781.781 0 0 0 1.563 0c0-1.204-.769-2.226-1.826-2.57v-1.822h5.913v1.822c-1.057.344-1.826 1.366-1.826 2.57a.781.781 0 1 0 1.563 0c0-.623.469-1.131 1.045-1.131s1.044.508 1.044 1.131a.781.781 0 0 0 1.563 0c0-1.204-.769-2.226-1.826-2.57v-1.822h5.913v1.822c-1.057.344-1.826 1.366-1.826 2.57a.781.781 0 1 0 1.563 0c0-.623.468-1.131 1.045-1.131.576 0 1.044.508 1.044 1.131a.781.781 0 1 0 1.563 0c0-1.204-.769-2.226-1.826-2.57zM5.83 33.264V11.337l12.81 21.928H5.83zM20 26.1a.781.781 0 0 0 .668-.375L34.17 3.566v4.673L20 32.497 5.83 8.24V3.565l13.504 22.161a.781.781 0 0 0 .667.375z"/><path d="M35.675 23.188c-.269-.644-1.222-.624-1.457.036-.24.672.51 1.293 1.126.94a.789.789 0 0 0 .33-.976zM19.44 11.953a.781.781 0 0 0 .662.365h.002c.269 0 .519-.14.661-.369l6.693-10.755A.781.781 0 0 0 26.132.37l-6.034 9.695-6.1-9.699a.781.781 0 1 0-1.323.832l6.765 10.755z"/></g><defs><clipPath id="clip0"><path fill="#fff" d="M0 0h40v40H0z"/></clipPath></defs></svg>