<svg width="40" height="40" fill="none" xmlns="http://www.w3.org/2000/svg"><g clip-path="url(#clip0)" fill="#3FACDC"><path d="M14.844 20.781a.781.781 0 1 0 0-1.562.781.781 0 0 0 0 1.562zm-4.688-2.343a.781.781 0 1 0 0-1.563.781.781 0 0 0 0 1.563zm0 4.687a.781.781 0 1 0 0-1.563.781.781 0 0 0 0 1.563zm-4.687-7.031a.781.781 0 1 0 0-1.563.781.781 0 0 0 0 1.563zm0 4.687a.781.781 0 1 0 0-1.562.781.781 0 0 0 0 1.562zm0 4.688a.781.781 0 1 0 0-1.563.781.781 0 0 0 0 1.563zM.781 20.781a.781.781 0 1 0 0-1.562.781.781 0 0 0 0 1.562z"/><path d="M.573 37.16a.781.781 0 0 0 .878-.352c4.197-6.994 11.871-11.34 20.028-11.34h.084v10.157H20a.781.781 0 1 0 0 1.563h4.688a.781.781 0 0 0 0-1.563h-1.563V25.469h5.938v3.906a.781.781 0 0 0 1.333.552l9.375-9.375a.781.781 0 0 0 0-1.104l-9.375-9.375a.781.781 0 0 0-1.334.552v3.906h-5.937V4.375h1.563a.781.781 0 1 0 0-1.562H20a.781.781 0 1 0 0 1.562h1.563v10.156h-.084c-8.157 0-15.83-4.345-20.028-11.34A.781.781 0 0 0 0 3.595v12.89a.781.781 0 1 0 1.563 0V6.15a24.923 24.923 0 0 0 19.916 9.944h.084v7.812h-.084A24.923 24.923 0 0 0 1.563 33.85V23.516a.781.781 0 1 0-1.563 0v12.89c0 .351.234.66.573.753zm22.552-21.066h6.719c.431 0 .781-.35.781-.782v-2.8L38.114 20l-7.489 7.489v-2.802a.781.781 0 0 0-.781-.78h-6.719v-7.813z"/></g><defs><clipPath id="clip0"><path fill="#fff" d="M0 0h40v40H0z"/></clipPath></defs></svg>