<svg width="45" height="45" fill="none" xmlns="http://www.w3.org/2000/svg"><path d="M22.5 37.5c-8.271 0-15-6.729-15-15 0-8.27 6.729-15 15-15 8.27 0 15 6.73 15 15 0 8.271-6.73 15-15 15zm0-28.5C15.056 9 9 15.056 9 22.5S15.056 36 22.5 36 36 29.944 36 22.5 29.944 9 22.5 9zm0 36a.75.75 0 0 1-.75-.75v-4.5a.75.75 0 0 1 1.5 0v4.5a.75.75 0 0 1-.75.75zm0-39a.75.75 0 0 1-.75-.75V.75a.75.75 0 0 1 1.5 0v4.5a.75.75 0 0 1-.75.75zM5.25 23.25H.75a.75.75 0 0 1 0-1.5h4.5a.75.75 0 0 1 0 1.5zm39 0h-4.5a.75.75 0 0 1 0-1.5h4.5a.75.75 0 0 1 0 1.5z" fill="#3FACDC"/><path d="M18.75 33.75a.75.75 0 0 1-.73-.919L20.057 24H16.5a.75.75 0 0 1-.567-1.24l9.75-11.25a.75.75 0 0 1 1.297.66L24.943 21H28.5a.75.75 0 0 1 .567 1.24l-9.75 11.25a.747.747 0 0 1-.567.26zm-.608-11.25H21a.749.749 0 0 1 .73.918l-1.57 6.81 6.697-7.728H24a.752.752 0 0 1-.731-.92l1.572-6.81-6.699 7.73zM37.88 38.63a.749.749 0 0 1-.53-.22l-3.182-3.181a.75.75 0 1 1 1.06-1.06l3.182 3.18a.75.75 0 0 1-.53 1.281zM10.303 11.052a.748.748 0 0 1-.53-.22L6.59 7.651A.75.75 0 1 1 7.65 6.59l3.183 3.182a.749.749 0 0 1-.53 1.28zM7.12 38.63a.75.75 0 0 1-.53-1.28l3.182-3.182a.75.75 0 1 1 1.06 1.06l-3.18 3.182a.75.75 0 0 1-.53.22zm27.578-27.578a.75.75 0 0 1-.53-1.28l3.181-3.182a.75.75 0 1 1 1.061 1.06l-3.182 3.182a.746.746 0 0 1-.53.22z" fill="#3FACDC"/></svg>