<svg width="44" height="44" fill="none" xmlns="http://www.w3.org/2000/svg"><g clip-path="url(#clip0)" fill="#3FACDC"><path d="M7.7 41.265c0 .489.396.885.885.885H10v.997c0 1.137 1.77 1.138 1.77 0v-.997h20.456v.997c0 1.137 1.77 1.138 1.77 0v-.997h1.417a.885.885 0 0 0 .885-.885V.885A.885.885 0 0 0 35.414 0H8.585a.885.885 0 0 0-.886.885v40.38zM34.527 30.23v4.182H9.47V30.23h25.06zm0-1.77H22.886V13.195c0-1.137-1.771-1.139-1.771 0V28.46H9.47V1.77h11.644v4.192c0 1.137 1.77 1.138 1.77 0V1.77h11.644v26.69zm0 11.919H9.47v-4.197h25.06v4.197z"/><path d="M22.817 31.983a.892.892 0 0 0-1.157-.479.894.894 0 0 0-.479 1.157.893.893 0 0 0 1.157.478.892.892 0 0 0 .479-1.156zm-1.635 6.637a.893.893 0 0 0 .883.544c.377-.03.7-.3.793-.667.194-.765-.679-1.38-1.337-.959a.892.892 0 0 0-.339 1.082zm4.39-19.238a.885.885 0 0 0 .885-.885v-2.423c0-1.137-1.77-1.139-1.77 0v2.423c0 .488.396.885.885.885zm-7.214-4.194a.885.885 0 0 0-.885.886v2.422c0 1.137 1.77 1.139 1.77 0v-2.422a.885.885 0 0 0-.885-.886zm2.824-5.316a.894.894 0 0 0 1.156.478.892.892 0 0 0 .48-1.156.893.893 0 0 0-1.157-.478.894.894 0 0 0-.479 1.156z"/></g><defs><clipPath id="clip0"><path fill="#fff" d="M0 0h44v44H0z"/></clipPath></defs></svg>