<svg width="40" height="40" fill="none" xmlns="http://www.w3.org/2000/svg"><g clip-path="url(#clip0)"><path d="M39.886 18.004a2 2 0 0 0-1.89-1.336h-23.33a.667.667 0 0 0-.667.667v2h-1.334v-9.333h.667a2 2 0 0 0 0-4h-.667v-2h.667A.667.667 0 0 0 14 3.337V.67a.667.667 0 0 0-.667-.667H.667A.667.667 0 0 0 0 .67v2.666c0 .368.298.667.667.667h.666V20c0 .368.299.667.667.667h.666c.214 4.293 2.467 6.08 4.467 7.659 2.533 2 4.92 3.886 3.526 10.872a.667.667 0 0 0 .673.8h21.332a.666.666 0 0 0 .573-1.006c-1.907-3.173-1.907-5.753-1.907-9.66 4.093-1.333 7.047-4.752 7.333-8.779a2 2 0 0 0 1.223-2.55zM13.332 7.336a.667.667 0 1 1 0 1.333h-.666V7.336h.666zM1.333 2.669V1.336h11.333V2.67H1.333zm1.333 1.334h8.666v15.332H2.666V4.003zm9.466 34.663c1.2-7.146-1.513-9.332-4.133-11.385-1.953-1.527-3.78-2.974-4-6.613h9.333c.3 4 3.24 7.332 7.293 8.666 0 3.76 0 6.3-1.72 9.332h-6.773zm19.405 0H20.458c1.48-2.946 1.54-5.56 1.54-8.959.876.191 1.77.29 2.666.293h2.667c.896-.003 1.79-.102 2.666-.293 0 3.4.054 6.013 1.54 8.96zm-4.206-9.999h-2.666c-5.253 0-9.566-3.533-9.96-8H37.29c-.393 4.467-4.706 8-9.959 8zm10.666-9.333H15.332v-1.333h22.665a.667.667 0 0 1 0 1.333z" fill="#3FACDC"/></g><defs><clipPath id="clip0"><path fill="#fff" d="M0 0h40v40H0z"/></clipPath></defs></svg>