<svg width="40" height="40" fill="none" xmlns="http://www.w3.org/2000/svg"><g clip-path="url(#clip0)" fill="#3FACDC"><path d="M14.154 5.56c-.685-1.384-1.225-2.478-.033-4.266a.834.834 0 0 0-1.387-.923c-1.726 2.586-.81 4.44-.073 5.928.688 1.394 1.187 2.4.073 4.072a.832.832 0 1 0 1.385.923c1.649-2.47.755-4.28.035-5.733zm6.64 0c-.686-1.384-1.226-2.478-.035-4.266a.834.834 0 0 0-1.386-.923c-1.725 2.588-.809 4.442-.074 5.93.689 1.393 1.187 2.4.074 4.07a.834.834 0 0 0 1.386.923c1.649-2.47.756-4.28.035-5.733zm6.639 0c-.686-1.384-1.227-2.478-.035-4.266a.834.834 0 0 0-1.386-.923c-1.726 2.588-.809 4.442-.074 5.93.689 1.393 1.187 2.4.074 4.07a.834.834 0 0 0 1.386.923c1.649-2.47.755-4.28.035-5.733zm6.734 7.773H5.833A4.171 4.171 0 0 0 1.666 17.5v15a4.171 4.171 0 0 0 4.167 4.167h28.334a4.171 4.171 0 0 0 4.167-4.167v-15a4.171 4.171 0 0 0-4.167-4.167zm2.5 19.167c0 1.379-1.122 2.5-2.5 2.5H5.833a2.503 2.503 0 0 1-2.5-2.5v-15c0-1.379 1.121-2.5 2.5-2.5h28.334c1.378 0 2.5 1.121 2.5 2.5v15z"/><path d="M7.5 16.666a.834.834 0 0 0-.833.833v15a.834.834 0 0 0 1.667 0v-15a.834.834 0 0 0-.834-.833zm5 0a.834.834 0 0 0-.833.833v15a.834.834 0 0 0 1.667 0v-15a.834.834 0 0 0-.833-.833zm5 0a.834.834 0 0 0-.833.833v15a.834.834 0 0 0 1.667 0v-15a.834.834 0 0 0-.833-.833zm5 0a.834.834 0 0 0-.833.833v15a.834.834 0 0 0 1.667 0v-15a.834.834 0 0 0-.833-.833zm5 0a.834.834 0 0 0-.832.833v15a.834.834 0 0 0 1.666 0v-15a.834.834 0 0 0-.833-.833zm5.001 0a.834.834 0 0 0-.833.833v15a.834.834 0 0 0 1.666 0v-15a.834.834 0 0 0-.833-.833zM9.167 35a.834.834 0 0 0-.833.833v3.334a.834.834 0 0 0 1.667 0v-3.334A.834.834 0 0 0 9.167 35zm21.666 0a.834.834 0 0 0-.833.833v3.334a.834.834 0 0 0 1.667 0v-3.334a.834.834 0 0 0-.834-.833z"/></g><defs><clipPath id="clip0"><path fill="#fff" d="M0 0h40v40H0z"/></clipPath></defs></svg>