<svg width="40" height="40" fill="none" xmlns="http://www.w3.org/2000/svg"><g clip-path="url(#clip0)" fill="#3FACDC"><path d="M32.247 0H7.755a.587.587 0 0 0-.588.587v22.615a.587.587 0 0 0 1.175 0V1.174H31.66v37.652h-1.325v-7.937a.587.587 0 1 0-1.175 0v7.937H10.84V3.673h18.32v24.868a.587.587 0 1 0 1.175 0V3.086a.587.587 0 0 0-.587-.587H10.254a.587.587 0 0 0-.588.587v35.74H8.342V25.55a.587.587 0 0 0-1.175 0v13.863c0 .324.263.587.587.587h24.492a.587.587 0 0 0 .588-.587V.587A.587.587 0 0 0 32.247 0z"/><path d="M13.515 13.094a.587.587 0 0 0-.587.587v5.616c0 .325.263.587.587.587h12.97a.587.587 0 0 0 .587-.587V6.271a.587.587 0 0 0-.588-.587h-12.97a.587.587 0 0 0-.586.587v5.061a.587.587 0 0 0 1.174 0V6.858h11.795V18.71H14.102v-5.03a.587.587 0 0 0-.587-.586zm-.587 23.134c0 .324.263.587.587.587h12.97a.587.587 0 0 0 .587-.587V23.201a.587.587 0 0 0-.588-.587h-12.97a.587.587 0 0 0-.586.587v13.027zm1.174-12.44h11.795v11.853H14.102V23.789z"/><path d="M28.618 21.25a1.108 1.108 0 1 0-2.047-.587h-1.4a.587.587 0 1 0 0 1.174h1.4a1.108 1.108 0 0 0 2.047-.587z"/></g><defs><clipPath id="clip0"><path fill="#fff" d="M0 0h40v40H0z"/></clipPath></defs></svg>