<svg width="44" height="44" fill="none" xmlns="http://www.w3.org/2000/svg"><g clip-path="url(#clip0)" fill="#3FACDC"><path d="M18.342 15.395a.733.733 0 0 0 1.466 0 2.2 2.2 0 0 1 4.399 0 .733.733 0 0 0 1.466 0 3.666 3.666 0 0 0-2.933-3.592v-1.642a2.933 2.933 0 0 0 0-5.66V.733a.733.733 0 0 0-1.466 0v3.768a2.932 2.932 0 0 0 0 5.66v1.642a3.665 3.665 0 0 0-2.932 3.592zm2.2-8.064a1.466 1.466 0 1 1 2.932 0 1.466 1.466 0 0 1-2.933 0z"/><path d="M41.801 13.929h-1.466v-.865a2.199 2.199 0 0 0 1.466-2.067c0-.85-.689-3.666-2.2-3.666-1.51 0-2.198 2.815-2.198 3.666.002.93.59 1.757 1.466 2.067v.865h-1.466a.733.733 0 0 0-.734.733v.733a2.932 2.932 0 0 0 2.2 2.83v.836a8.064 8.064 0 0 1-7.544 8.064c.145-.475.216-.97.213-1.466v-.807a3.665 3.665 0 0 0 2.932-3.592v-1.466a.733.733 0 0 0-.733-.733h-2.2v-1.57a2.932 2.932 0 0 0 2.2-2.829c0-1.056-.91-5.132-2.932-5.132-2.024 0-2.933 4.077-2.933 5.132a2.932 2.932 0 0 0 2.2 2.83v1.569h-2.2a.733.733 0 0 0-.733.733v1.466a3.665 3.665 0 0 0 2.932 3.592v.807a3.667 3.667 0 0 1-.278 1.393 8.064 8.064 0 0 1-7.053-7.991v-3.666a.733.733 0 0 0-1.466 0v3.666a8.064 8.064 0 0 1-7.052 7.99 3.66 3.66 0 0 1-.279-1.392v-.807a3.665 3.665 0 0 0 2.932-3.592v-1.466a.733.733 0 0 0-.733-.733h-2.199v-2.2a.733.733 0 0 0-.733-.733c-.81 0-1.466-.656-1.466-1.466 0-1.217.946-3.577 1.466-3.665.528.088 1.466 2.448 1.466 3.665a.733.733 0 1 0 1.466 0c0-1.056-.909-5.132-2.932-5.132-2.024 0-2.933 4.077-2.933 5.132a2.932 2.932 0 0 0 2.2 2.83v1.569h-2.2a.733.733 0 0 0-.733.733v1.466a3.665 3.665 0 0 0 2.933 3.592v.807c-.004.497.068.991.213 1.466a8.064 8.064 0 0 1-7.544-8.064v-.836a2.932 2.932 0 0 0 2.2-2.83v-.733a.733.733 0 0 0-.734-.733H5.146v-.865a2.199 2.199 0 0 0 1.466-2.067c0-.85-.69-3.666-2.2-3.666-1.51 0-2.199 2.815-2.199 3.666a2.2 2.2 0 0 0 1.467 2.067v.865H2.213a.733.733 0 0 0-.733.733v.733a2.932 2.932 0 0 0 2.2 2.83v.836a9.53 9.53 0 0 0 9.53 9.53h.183a5.132 5.132 0 0 0 7.881.66v2.383a2.933 2.933 0 0 0 0 5.66v2.433a2.2 2.2 0 1 0 1.466 0v-3.072a.733.733 0 0 0-.733-.733 1.466 1.466 0 1 1 1.466-1.466.733.733 0 0 0 1.467 0 2.932 2.932 0 0 0-2.2-2.83v-2.382a5.13 5.13 0 0 0 7.881-.653h.184a9.53 9.53 0 0 0 9.53-9.53v-1.466a.733.733 0 0 0-.733-.733c-.81 0-1.466-.657-1.466-1.467H41.8a.733.733 0 0 0 0-1.466zm-2.2-5.073c.422.64.674 1.377.734 2.14a.733.733 0 0 1-1.466 0c.06-.763.312-1.5.733-2.14zm-10.263 5.806c0-1.217.946-3.577 1.467-3.665.527.088 1.466 2.448 1.466 3.665a1.466 1.466 0 0 1-2.933 0zM4.413 8.856c.421.64.673 1.377.733 2.14a.733.733 0 0 1-1.466 0c.06-.763.311-1.5.733-2.14zm-1.467 6.54H5.88a1.466 1.466 0 0 1-2.933 0zM22.007 42.52a.733.733 0 1 1 0-1.466.733.733 0 0 1 0 1.466zm6.598-21.26v-.733h4.399v.733a2.2 2.2 0 0 1-4.399 0zm-17.594 0v-.733h4.398v.733a2.2 2.2 0 0 1-4.398 0zm6.598 8.064a3.614 3.614 0 0 1-2.427-.938 9.533 9.533 0 0 0 6.092-4.267v1.54a3.666 3.666 0 0 1-3.665 3.665zm8.797 0a3.665 3.665 0 0 1-3.666-3.665v-1.54a9.532 9.532 0 0 0 6.093 4.267 3.614 3.614 0 0 1-2.427.938z"/></g><defs><clipPath id="clip0"><path fill="#fff" d="M0 0h44v44H0z"/></clipPath></defs></svg>