<svg width="118" height="28" fill="none" xmlns="http://www.w3.org/2000/svg"><path d="M11.496 23.157l2.877-7.69h6.922v2.444h-5.303l-.06.164-3.376 9.163H9.97L.354.25h2.408c1.354 3.8 2.728 7.586 4.103 11.37l.019.053c1.388 3.822 2.776 7.643 4.142 11.48l.23.646.24-.642zm20.566-.002L40.327.25h2.407L33.12 27.238h-2.586L21.77 2.89l-.234-.65-.236.65-3.434 9.47-2.283-.83L19.76.25h3.567l8.265 22.905.235.651.235-.651z" fill="#fff" stroke="#10638C" stroke-width=".5"/><path d="M57.31 4.527l2.318 6.298h1.253l1.778-4.792 1.779 4.792h1.266l2.318-6.298H66.85L65.07 9.32l-1.75-4.793h-1.24L60.315 9.32 58.55 4.527h-1.24zm14.902 5.381c-1.078 0-1.9-.767-2.049-1.794h5c.04-.178.026-.37.026-.52 0-1.807-1.28-3.245-3.045-3.245-1.873 0-3.18 1.424-3.18 3.314 0 1.944 1.375 3.34 3.248 3.34 1.36 0 2.465-.726 2.896-1.944h-1.253c-.323.561-.903.849-1.644.849zm-.068-4.463c1.024 0 1.684.657 1.832 1.643h-3.799c.148-.986.89-1.643 1.967-1.643zm4.79-3.779v9.159h1.159v-.684c.471.533 1.213.862 2.088.862 2.048 0 3.14-1.588 3.14-3.327 0-1.739-1.092-3.327-3.14-3.327-.875 0-1.617.329-2.088.863V1.666h-1.159zm1.118 6.01c0-1.492 1.011-2.231 2.089-2.231 1.2 0 2.02 1.026 2.02 2.231 0 1.205-.82 2.232-2.02 2.232-1.078 0-2.089-.74-2.089-2.232zM60.337 18.942c-1.419 0-2.676.714-3.027 2.018h1.284c.256-.604.986-.92 1.743-.92 1.027 0 1.811.384 1.811 1.427h-1.96c-1.446 0-2.73.508-2.73 2.045 0 1.413 1.068 2.1 2.528 2.1.973 0 1.676-.33 2.162-.865v.686h1.163v-4.02c0-1.579-1.203-2.47-2.974-2.47zm1.811 3.966c0 .947-.784 1.606-2.04 1.606-.906 0-1.487-.302-1.487-1.002s.58-1.015 1.554-1.015h1.973v.411zm7.985-3.788v2.608h-3.636v-2.607h-1.163v6.312h1.163v-2.662h3.636v2.662h1.162v-6.312h-1.162zm5.807-.178c-1.42 0-2.677.714-3.029 2.018h1.284c.257-.604.987-.92 1.744-.92 1.027 0 1.811.384 1.811 1.427h-1.96c-1.446 0-2.73.508-2.73 2.045 0 1.413 1.068 2.1 2.528 2.1.973 0 1.676-.33 2.162-.865v.686h1.163v-4.02c0-1.579-1.203-2.47-2.974-2.47zm1.81 3.966c0 .947-.784 1.606-2.04 1.606-.906 0-1.487-.302-1.487-1.002s.58-1.015 1.554-1.015h1.973v.411zm2.296-2.744h2.406v5.27h1.162v-5.27h2.406V19.12h-5.974v1.043zm10.078-1.222c-1.879 0-3.257 1.428-3.257 3.335s1.378 3.335 3.257 3.335c1.865 0 3.257-1.427 3.257-3.335 0-1.907-1.392-3.335-3.257-3.335zm0 5.572c-1.23 0-2.095-1.002-2.095-2.237 0-1.262.865-2.237 2.095-2.237 1.23 0 2.095.975 2.095 2.237 0 1.235-.865 2.237-2.095 2.237zm11.381-3.252v4.171h1.162v-6.312h-1.297l-2.46 5.077-2.447-5.077H95.14v6.312h1.16v-4.171l2.014 4.171h1.176l2.014-4.171zm4.485 4.171l3.636-4.597v4.597h1.162v-6.312h-1.162l-3.636 4.597V19.12h-1.163v6.312h1.163zm10.848-2.086v2.086H118v-6.312h-3.19c-1.608 0-2.338.974-2.338 2.113 0 .92.46 1.715 1.487 2.004l-1.852 2.195h1.527l1.757-2.086h1.447zm0-3.183v2.14h-1.987c-.757 0-1.217-.37-1.217-1.07 0-.7.46-1.07 1.217-1.07h1.987z" fill="#fff"/></svg>