<svg xmlns="http://www.w3.org/2000/svg" width="70" height="81"><path fill="#00a6f1" d="M36.179 77.244V41.692a1.174 1.174 0 0 0 1.475-.498c.211-.365.203-.797.018-1.143l29.97-17.304V57.18a1.158 1.158 0 0 0-.207-.153l-1.633-.943a1.178 1.178 0 1 0-1.18 2.042l1.634.943a1.173 1.173 0 0 0 1.387-.155v.164zm0-39.053v-.415a1.178 1.178 0 1 0-2.358 0v.415L3.536 20.706 33.821 3.22v1.556a1.179 1.179 0 0 0 2.358 0V3.22l30.285 17.486zM69.41 19.685L35.589.158a1.179 1.179 0 0 0-1.178 0L.589 19.685c-.364.21-.589.6-.589 1.02V59.76c0 .421.225.81.59 1.021L21.319 72.75a1.18 1.18 0 0 0 1.178-2.042l-20.14-11.63v-.164a1.18 1.18 0 0 0 1.387.155l1.633-.943a1.178 1.178 0 1 0-1.179-2.042l-1.633.943a1.14 1.14 0 0 0-.208.154V22.747l29.97 17.304a1.176 1.176 0 0 0 1.494 1.64v35.553l-7.194-4.153a1.179 1.179 0 1 0-1.179 2.041l8.963 5.174a1.174 1.174 0 0 0 1.178 0L69.411 60.78c.364-.211.589-.6.589-1.02V20.705c0-.421-.225-.81-.59-1.021z"/><path fill="#00a6f1" d="M53.291 48.657l-3.87-2.234a1.41 1.41 0 0 0-1.41 2.442l3.87 2.235a1.41 1.41 0 0 0 1.41-2.443zm-7.818-4.542l-3.87-2.235a1.41 1.41 0 1 0-1.41 2.443l3.87 2.235a1.41 1.41 0 0 0 1.41-2.443zm13.86 9.084l-3.87-2.235a1.41 1.41 0 0 0-1.41 2.443l3.87 2.235a1.41 1.41 0 0 0 1.41-2.443zm-33.396-6.641l3.87-2.235a1.41 1.41 0 0 0-1.41-2.443l-3.87 2.235a1.41 1.41 0 0 0 1.41 2.443zm-11.4 4.407l-3.87 2.235a1.41 1.41 0 1 0 1.41 2.442l3.87-2.235a1.41 1.41 0 0 0-1.41-2.442zm6.042-4.542l-3.87 2.234a1.41 1.41 0 0 0 1.41 2.443l3.87-2.235a1.41 1.41 0 0 0-1.41-2.442zM35 26.973c-.778 0-1.41.63-1.41 1.41v4.469a1.41 1.41 0 0 0 2.82 0v-4.47a1.41 1.41 0 0 0-1.41-1.41zm0-16.153a1.41 1.41 0 0 0-1.41 1.41v4.47a1.41 1.41 0 1 0 2.82 0v-4.47A1.41 1.41 0 0 0 35 10.82z"/><path fill="#00a6f1" d="M35 17.936a1.41 1.41 0 0 0-1.41 1.41v4.469a1.41 1.41 0 1 0 2.82 0v-4.469a1.41 1.41 0 0 0-1.41-1.41z"/></svg>