<svg xmlns="http://www.w3.org/2000/svg" width="69" height="65"><path fill="#00a6f1" d="M55.172 60.511v-8.864h9.294v8.864zM4.4 28.565h21.987V60.51H4.4zm8.5-16.23v6.235a1.7 1.7 0 1 0 3.4 0v-6.236h36.266v6.236a1.7 1.7 0 1 0 3.4 0v-6.236h8.5v12.83H4.4v-12.83zm42.272 27.771h9.294v8.141h-9.294zM42.48 48.247v-8.14h9.293v8.14zm0 3.4h9.293v8.864H42.48zm-12.693 0h9.293v8.864h-9.293zm0-11.54h9.293v8.14h-9.293zm12.693-3.4v-8.142h9.293v8.142zm21.987 0h-9.294v-8.142h9.294zM39.08 28.565v8.142h-9.293v-8.142zm16.886-19.63V2.7a1.7 1.7 0 1 0-3.4 0v6.234H16.3V2.7a1.7 1.7 0 1 0-3.4 0v6.234H2.7a1.7 1.7 0 0 0-1.7 1.7v51.577c0 .939.76 1.7 1.7 1.7h63.466a1.7 1.7 0 0 0 1.7-1.7V10.634a1.7 1.7 0 0 0-1.7-1.7z"/><path fill="none" stroke="#1a2941" stroke-miterlimit="50" d="M55.172 60.511v-8.864h9.294v8.864zM4.4 28.565h21.987V60.51H4.4zm8.5-16.23v6.235a1.7 1.7 0 1 0 3.4 0v-6.236h36.266v6.236a1.7 1.7 0 1 0 3.4 0v-6.236h8.5v12.83H4.4v-12.83zm42.272 27.771h9.294v8.141h-9.294zM42.48 48.247v-8.14h9.293v8.14zm0 3.4h9.293v8.864H42.48zm-12.693 0h9.293v8.864h-9.293zm0-11.54h9.293v8.14h-9.293zm12.693-3.4v-8.142h9.293v8.142zm21.987 0h-9.294v-8.142h9.294zM39.08 28.565v8.142h-9.293v-8.142zm16.886-19.63V2.7a1.7 1.7 0 1 0-3.4 0v6.234H16.3V2.7a1.7 1.7 0 1 0-3.4 0v6.234H2.7a1.7 1.7 0 0 0-1.7 1.7v51.577c0 .939.76 1.7 1.7 1.7h63.466a1.7 1.7 0 0 0 1.7-1.7V10.634a1.7 1.7 0 0 0-1.7-1.7z"/></svg>