<svg xmlns="http://www.w3.org/2000/svg" width="72" height="72"><path fill="#00a6f1" d="M36 39.5a3.5 3.5 0 1 1 0-7 3.5 3.5 0 0 1 0 7zm35-28V2.167C71 1.523 70.479 1 69.835 1H60.5v2.333h6.517L39.212 31.138a5.793 5.793 0 0 0-2.045-.853V4.983l5.008 5.009 1.65-1.65-7-7a1.166 1.166 0 0 0-1.65 0l-7 7 1.65 1.65 5.008-5.009v25.302c-.73.15-1.424.44-2.045.854L4.983 3.333H11.5V1H2.167C1.523 1 1 1.521 1 2.165V11.5h2.333V4.983l27.805 27.805a5.793 5.793 0 0 0-.853 2.045H4.983l5.009-5.008-1.65-1.65-7 7a1.166 1.166 0 0 0 0 1.65l7 7 1.65-1.65-5.009-5.008h25.302c.15.73.44 1.424.854 2.045L3.333 67.017V60.5H1v9.333C1 70.477 1.521 71 2.165 71H11.5v-2.333H4.983L32.788 40.86c.62.414 1.315.704 2.045.854v25.302l-5.008-5.009-1.65 1.65 7 7a1.166 1.166 0 0 0 1.65 0l7-7-1.65-1.65-5.008 5.009V41.715c.73-.15 1.424-.44 2.045-.853l27.805 27.805H60.5V71h9.333c.644 0 1.167-.521 1.167-1.165V60.5h-2.333v6.517L40.86 39.212c.414-.62.704-1.315.854-2.045h25.302l-5.009 5.008 1.65 1.65 7-7a1.166 1.166 0 0 0 0-1.65l-7-7-1.65 1.65 5.009 5.008H41.715a5.795 5.795 0 0 0-.854-2.045L68.667 4.983V11.5z"/><path fill="none" stroke="#00a6f1" stroke-miterlimit="50" stroke-width=".5" d="M36 39.5a3.5 3.5 0 1 1 0-7 3.5 3.5 0 0 1 0 7zm35-28V2.167C71 1.523 70.479 1 69.835 1H60.5v2.333h6.517L39.212 31.138a5.793 5.793 0 0 0-2.045-.853V4.983l5.008 5.009 1.65-1.65-7-7a1.166 1.166 0 0 0-1.65 0s0 0 0 0l-7 7 1.65 1.65 5.008-5.009v25.302c-.73.15-1.424.44-2.045.854L4.983 3.333H11.5V1H2.167C1.523 1 1 1.521 1 2.165V11.5h2.333V4.983l27.805 27.805a5.793 5.793 0 0 0-.853 2.045H4.983l5.009-5.008-1.65-1.65-7 7a1.166 1.166 0 0 0 0 1.65s0 0 0 0l7 7 1.65-1.65-5.009-5.008h25.302c.15.73.44 1.424.854 2.045L3.333 67.017V60.5H1v9.333C1 70.477 1.521 71 2.165 71H11.5v-2.333H4.983L32.788 40.86c.62.414 1.315.704 2.045.854v25.302l-5.008-5.009-1.65 1.65 7 7a1.166 1.166 0 0 0 1.65 0s0 0 0 0l7-7-1.65-1.65-5.008 5.009V41.715c.73-.15 1.424-.44 2.045-.853l27.805 27.805H60.5V71h9.333c.644 0 1.167-.521 1.167-1.165V60.5h-2.333v6.517L40.86 39.212c.414-.62.704-1.315.854-2.045h25.302l-5.009 5.008 1.65 1.65 7-7a1.166 1.166 0 0 0 0-1.65s0 0 0 0l-7-7-1.65 1.65 5.009 5.008H41.715a5.795 5.795 0 0 0-.854-2.045L68.667 4.983V11.5z"/></svg>