<svg xmlns="http://www.w3.org/2000/svg" width="78" height="70"><path fill="#00a6f1" d="M75.354 18.206H63.897V8.28c0-3.142 2.614-5.769 5.756-5.769h.034a5.724 5.724 0 0 1 5.667 5.751zM61.386 59.33c0 4.467-3.573 8.159-8.042 8.159h-.025a8.158 8.158 0 0 1-8.1-8.178v-6.054a1.3 1.3 0 0 0-1.255-1.306H13.851l.323-44.14c0-2.92 2.413-5.3 5.38-5.3H63.76c-1.43 1.57-2.375 3.555-2.375 5.772zm-50.469 8.16c-4.466 0-8.074-3.692-8.074-8.157v-4.87H42.71v4.849a10.627 10.627 0 0 0 3.102 7.54c.212.214.434.324.66.638zM69.69 0H19.553c-4.35 0-7.89 3.507-7.89 7.803l-.324 44.148H1.555c-.694 0-1.223.613-1.223 1.306v6.076c0 5.687 4.551 10.339 10.045 10.594V70h42.22v-.082c.313.013.503.082.72.082h.03c5.858-.034 10.58-4.81 10.55-10.668V20.718h12.745c.694 0 1.223-.628 1.223-1.321V8.249A8.235 8.235 0 0 0 69.69 0z"/><path fill="#00a6f1" d="M28.37 15.392l8.616-4.25 8.615 4.262v8.231c0 1.905-1.249 4.328-2.824 5.402l-5.806 3.97-5.783-3.97c-1.575-1.074-2.817-3.497-2.817-5.402zm1.4 15.735l6.52 4.457c.426.293.989.293 1.414 0l6.5-4.456c2.258-1.54 3.926-4.762 3.926-7.493v-9.018a1.236 1.236 0 0 0-.674-1.136l-9.927-4.883a1.242 1.242 0 0 0-1.106 0l-9.908 4.87a1.234 1.234 0 0 0-.673 1.135v9.032c0 2.731 1.671 5.952 3.929 7.491z"/><path fill="#00a6f1" d="M34.843 25.399c.236.24.558.377.896.379h.003c.336-.001.657-.136.894-.374l5.03-5.033a1.265 1.265 0 1 0-1.788-1.79l-4.132 4.132-1.652-1.668a1.265 1.265 0 1 0-1.797 1.782zm17.869 13.514h-30.35a1.265 1.265 0 0 0 0 2.53h30.35a1.265 1.265 0 0 0 0-2.53zm0 5.807h-30.35a1.265 1.265 0 0 0 0 2.528h30.35a1.265 1.265 0 0 0 0-2.529z"/></svg>