<svg xmlns="http://www.w3.org/2000/svg" width="102" height="87"><path fill="#00a6f1" d="M2.686 32.263V13.61l65.65 37.846v18.652zm2.508 7.482v-4.09l17.16 9.893v4.117l-1.247-.731a7.719 7.719 0 0 0-.897-2.345c-1.537-2.662-4.17-3.921-5.997-2.867a2.762 2.762 0 0 0-.834.747l-.213-.123a7.766 7.766 0 0 0-.866-2.214c-1.536-2.661-4.17-3.92-5.997-2.866a2.752 2.752 0 0 0-.772.673l-.336-.194zm1.952.981c.85-.49 2.576.313 3.694 2.25.533.923.82 1.948.787 2.813-.016.425-.126 1.187-.686 1.51-.56.323-1.274.038-1.65-.16-.766-.404-1.51-1.166-2.044-2.09-1.118-1.936-.95-3.832-.1-4.323zm7.91 4.456c.85-.49 2.576.313 3.694 2.25.533.923.82 1.949.787 2.814-.016.425-.126 1.186-.686 1.51-.56.322-1.274.037-1.65-.161-.766-.404-1.51-1.165-2.044-2.089-1.118-1.937-.95-3.833-.1-4.324zm8.985 4.51V46.52l2.749 1.585zm11.323 7.414v-4.06l22.324 12.87v4.075l-6.415-3.703a7.706 7.706 0 0 0-.894-2.339c-.698-1.209-1.662-2.18-2.716-2.737-1.181-.623-2.346-.67-3.281-.13-.33.19-.606.444-.834.748l-.21-.122a7.748 7.748 0 0 0-.869-2.215c-.698-1.209-1.662-2.18-2.716-2.737-1.181-.624-2.346-.67-3.281-.13a2.766 2.766 0 0 0-.773.673l-.336-.193zm2.052 5.305c-.533-.924-.82-1.95-.787-2.814.016-.425.127-1.187.686-1.51.183-.105.383-.146.581-.146.41 0 .816.173 1.07.306.765.404 1.51 1.166 2.043 2.09 1.118 1.936.95 3.832.1 4.323-.849.49-2.575-.313-3.693-2.25zm7.91 4.456c-.533-.924-.82-1.95-.787-2.814.016-.425.127-1.187.686-1.51.183-.105.383-.146.581-.146.41 0 .816.173 1.07.307.765.403 1.51 1.165 2.043 2.088 1.118 1.937.95 3.833.1 4.324-.849.49-2.575-.313-3.693-2.25zm21.026 8.127l-6.978-4.029V66.89l8.962 5.166v1.92a2.78 2.78 0 0 0-1.227.365c-.294.17-.543.393-.757.654zm1.701 5.13c-.533-.923-.82-1.949-.787-2.814.016-.425.126-1.186.686-1.51.56-.322 1.274-.037 1.65.161.766.404 1.51 1.165 2.044 2.089 1.118 1.937.95 3.833.1 4.324-.848.49-2.574-.313-3.693-2.25zm5.053-2.917c-.697-1.209-1.662-2.181-2.716-2.737a5.022 5.022 0 0 0-.368-.174V58.453l5.582 3.18v10.188c0 .301.16.58.422.73l5.445 3.144v7.954l-7.504-4.262a7.765 7.765 0 0 0-.86-2.18zm10.051 6.431v-1.526l2.789-1.677v1.594zm16.157-9.327l-2.789 1.61v-1.636l2.789-1.677zm-18.203-.77l-3.82-2.207v-8.74l2.279 1.298zm17.07-15.336l1.039 6.264-16.343 9.435-1.004-6.284zM81.263 63.8l16.286-9.402.337 2.03-16.298 9.41zm5.104 12.886a.844.844 0 0 0-.421.73v1.05l-2.789 1.678V75.69l16.157-9.328v4.278l-2.789 1.677v-.035a.843.843 0 0 0-1.265-.73l-8.893 5.134zm1.265 1.217l7.207-4.16v3.151l-7.207 4.161zm8.855-24.839l-16.15 9.324-9.46-5.389 16.15-9.325zm-10.309-6.847l-16.156 9.329v-4.09l16.156-9.327zm-.844-5.548L69.18 49.996 3.53 12.151l16.157-9.328zM1 12.152V32.75c0 .301.161.58.422.73l2.087 1.203v5.549c0 .301.16.58.421.73l.92.53c-.24 1.289.062 2.885.937 4.4.698 1.21 1.663 2.181 2.716 2.738.635.335 1.266.503 1.858.503.51 0 .99-.124 1.423-.374a2.8 2.8 0 0 0 .977-.961c.137.83.446 1.703.936 2.551.698 1.209 1.662 2.18 2.716 2.737.635.335 1.265.504 1.858.504.51 0 .99-.124 1.423-.374.786-.455 1.291-1.26 1.463-2.298l1.614.946a.842.842 0 0 0 .846.004l4.86-2.79 5.2 2.997v5.518c0 .301.16.58.421.73l.923.533c-.039.217-.069.44-.078.677-.045 1.19.314 2.512 1.012 3.72 1.17 2.026 2.975 3.24 4.575 3.24.503 0 .986-.12 1.423-.373a2.8 2.8 0 0 0 .98-.97c.14.854.455 1.733.932 2.56 1.17 2.025 2.974 3.238 4.575 3.238.503 0 .986-.12 1.423-.372.807-.466 1.3-1.296 1.469-2.306l14.332 8.273a4.72 4.72 0 0 0-.084.704c-.045 1.19.315 2.512 1.013 3.72 1.169 2.025 2.974 3.239 4.574 3.239.504 0 .986-.12 1.423-.372.844-.487 1.342-1.373 1.486-2.446l7.816 4.44a.843.843 0 0 0 .844 0l17.842-10.3a.843.843 0 0 0 .422-.73v-9.896a.841.841 0 0 0-.041-.256l-1.947-11.725a.842.842 0 0 0-.413-.594L87.865 46.21v-5.541a.844.844 0 0 0-.422-.73L20.108 1.118a.843.843 0 0 0-.842 0L1.422 11.422a.843.843 0 0 0-.422.73z"/><path fill="none" stroke="#00a6f1" stroke-miterlimit="50" stroke-width=".5" d="M2.686 32.263V13.61l65.65 37.846v18.652zm2.508 7.482v-4.09l17.16 9.893v4.117l-1.247-.731a7.719 7.719 0 0 0-.897-2.345c-1.537-2.662-4.17-3.921-5.997-2.867a2.762 2.762 0 0 0-.834.747l-.213-.123a7.766 7.766 0 0 0-.866-2.214c-1.536-2.661-4.17-3.92-5.997-2.866a2.752 2.752 0 0 0-.772.673l-.336-.194zm1.952.981c.85-.49 2.576.313 3.694 2.25.533.923.82 1.948.787 2.813-.016.425-.126 1.187-.686 1.51-.56.323-1.274.038-1.65-.16-.766-.404-1.51-1.166-2.044-2.09-1.118-1.936-.95-3.832-.1-4.323zm7.91 4.456c.85-.49 2.576.313 3.694 2.25.533.923.82 1.949.787 2.814-.016.425-.126 1.186-.686 1.51-.56.322-1.274.037-1.65-.161-.766-.404-1.51-1.165-2.044-2.089-1.118-1.937-.95-3.833-.1-4.324zm8.985 4.51V46.52l2.749 1.585zm11.323 7.414v-4.06l22.324 12.87v4.075l-6.415-3.703a7.706 7.706 0 0 0-.894-2.339c-.698-1.209-1.662-2.18-2.716-2.737-1.181-.623-2.346-.67-3.281-.13-.33.19-.606.444-.834.748l-.21-.122a7.748 7.748 0 0 0-.869-2.215c-.698-1.209-1.662-2.18-2.716-2.737-1.181-.624-2.346-.67-3.281-.13a2.766 2.766 0 0 0-.773.673l-.336-.193zm2.052 5.305c-.533-.924-.82-1.95-.787-2.814.016-.425.127-1.187.686-1.51.183-.105.383-.146.581-.146.41 0 .816.173 1.07.306.765.404 1.51 1.166 2.043 2.09 1.118 1.936.95 3.832.1 4.323-.849.49-2.575-.313-3.693-2.25zm7.91 4.456c-.533-.924-.82-1.95-.787-2.814.016-.425.127-1.187.686-1.51.183-.105.383-.146.581-.146.41 0 .816.173 1.07.307.765.403 1.51 1.165 2.043 2.088 1.118 1.937.95 3.833.1 4.324-.849.49-2.575-.313-3.693-2.25zm21.026 8.127l-6.978-4.029V66.89l8.962 5.166v1.92a2.78 2.78 0 0 0-1.227.365c-.294.17-.543.393-.757.654zm1.701 5.13c-.533-.923-.82-1.949-.787-2.814.016-.425.126-1.186.686-1.51.56-.322 1.274-.037 1.65.161.766.404 1.51 1.165 2.044 2.089 1.118 1.937.95 3.833.1 4.324-.848.49-2.574-.313-3.693-2.25zm5.053-2.917c-.697-1.209-1.662-2.181-2.716-2.737a5.022 5.022 0 0 0-.368-.174V58.453l5.582 3.18v10.188c0 .301.16.58.422.73l5.445 3.144v7.954l-7.504-4.262a7.765 7.765 0 0 0-.86-2.18s0 0 0 0zm10.051 6.431v-1.526l2.789-1.677v1.594zm16.157-9.327l-2.789 1.61v-1.636l2.789-1.677zm-18.203-.77l-3.82-2.207v-8.74l2.279 1.298zm17.07-15.336l1.039 6.264-16.343 9.435-1.004-6.284zM81.263 63.8l16.286-9.402.337 2.03-16.298 9.41zm5.104 12.886a.844.844 0 0 0-.421.73v1.05l-2.789 1.678V75.69l16.157-9.328v4.278l-2.789 1.677v-.035a.843.843 0 0 0-1.265-.73l-8.893 5.134zm1.265 1.217l7.207-4.16v3.151l-7.207 4.161zm8.855-24.839l-16.15 9.324-9.46-5.389 16.15-9.325zm-10.309-6.847l-16.156 9.329v-4.09l16.156-9.327zm-.844-5.548L69.18 49.996 3.53 12.151l16.157-9.328zM1 12.152V32.75c0 .301.161.58.422.73l2.087 1.203v5.549c0 .301.16.58.421.73l.92.53c-.24 1.289.062 2.885.937 4.4.698 1.21 1.663 2.181 2.716 2.738.635.335 1.266.503 1.858.503.51 0 .99-.124 1.423-.374a2.8 2.8 0 0 0 .977-.961c.137.83.446 1.703.936 2.551.698 1.209 1.662 2.18 2.716 2.737.635.335 1.265.504 1.858.504.51 0 .99-.124 1.423-.374.786-.455 1.291-1.26 1.463-2.298l1.614.946a.842.842 0 0 0 .846.004l4.86-2.79 5.2 2.997v5.518c0 .301.16.58.421.73l.923.533c-.039.217-.069.44-.078.677-.045 1.19.314 2.512 1.012 3.72 1.17 2.026 2.975 3.24 4.575 3.24.503 0 .986-.12 1.423-.373a2.8 2.8 0 0 0 .98-.97c.14.854.455 1.733.932 2.56 1.17 2.025 2.974 3.238 4.575 3.238.503 0 .986-.12 1.423-.372.807-.466 1.3-1.296 1.469-2.306l14.332 8.273a4.72 4.72 0 0 0-.084.704c-.045 1.19.315 2.512 1.013 3.72 1.169 2.025 2.974 3.239 4.574 3.239.504 0 .986-.12 1.423-.372.844-.487 1.342-1.373 1.486-2.446l7.816 4.44a.843.843 0 0 0 .844 0l17.842-10.3a.843.843 0 0 0 .422-.73v-9.896a.841.841 0 0 0-.041-.256l-1.947-11.725a.842.842 0 0 0-.413-.594L87.865 46.21v-5.541a.844.844 0 0 0-.422-.73L20.108 1.118a.843.843 0 0 0-.842 0L1.422 11.422a.843.843 0 0 0-.422.73z"/></svg>