<svg xmlns="http://www.w3.org/2000/svg" width="56" height="70"><path fill="#00a6f1" d="M3.2 67.625V2.29h33.834v16.334h16.333v49zM39.367 3.94l12.35 12.35h-12.35zm-.684-3.983H.867v70H55.7V16.975z"/><path fill="#00a6f1" d="M43.137 24.42H23.64a1.218 1.218 0 1 0 0 2.437h19.496a1.218 1.218 0 1 0 0-2.437zm-22.894-3.299l-5.24 4.193-1.667-1.666a1.217 1.217 0 1 0-1.722 1.723l2.436 2.437a1.216 1.216 0 0 0 1.622.09l6.093-4.874a1.218 1.218 0 0 0-1.522-1.903zm22.894 16.113H23.64a1.218 1.218 0 1 0 0 2.437h19.496a1.218 1.218 0 1 0 0-2.437zm-22.894-3.343l-5.24 4.193-1.667-1.666a1.217 1.217 0 1 0-1.722 1.723l2.436 2.437a1.216 1.216 0 0 0 1.622.09l6.093-4.874a1.218 1.218 0 0 0-1.522-1.903zm22.894 16.157H23.64a1.218 1.218 0 1 0 0 2.437h19.496a1.218 1.218 0 1 0 0-2.437zm-22.894-3.387l-5.24 4.193-1.667-1.666a1.217 1.217 0 1 0-1.722 1.723l2.436 2.437a1.216 1.216 0 0 0 1.622.09l6.093-4.874a1.218 1.218 0 0 0-1.522-1.903z"/></svg>