<?xml version="1.0" encoding="utf-8"?><svg viewBox="0 0 62 62" xmlns="http://www.w3.org/2000/svg" xmlns:xlink="http://www.w3.org/1999/xlink"><style>:root>svg{display:none}:root>svg:target{display:block}</style><svg fill="none" viewBox="0 0 20 20" id="fb" xmlns="http://www.w3.org/2000/svg"><path d="M10 0C4.477 0 0 4.477 0 10s4.477 10 10 10 10-4.477 10-10S15.523 0 10 0zm2.938 5.732h-1.429c-.3-.02-.61.21-.666.51-.006.521-.003 1.042-.003 1.562.698.003 1.397 0 2.095.003a28.946 28.946 0 0 1-.255 2.247c-.618.007-1.235 0-1.853.004-.006 2.22.003 4.438-.003 6.66-.918.003-1.833-.004-2.751.003-.017-2.221 0-4.442-.01-6.663-.446-.004-.896.003-1.342-.004.004-.747 0-1.493 0-2.237.446-.006.896 0 1.342-.003.013-.724-.013-1.452.013-2.176.048-.579.265-1.157.695-1.555.52-.494 1.258-.663 1.956-.682.737-.006 1.474-.003 2.211-.003.003.779.003 1.555 0 2.334z" fill="#3F81A3"/></svg><svg fill="none" viewBox="0 0 20 20" id="inst" xmlns="http://www.w3.org/2000/svg"><path d="M12.606 4.962H7.345A2.39 2.39 0 0 0 4.957 7.35v5.31a2.39 2.39 0 0 0 2.388 2.387h5.26a2.39 2.39 0 0 0 2.388-2.388V7.35a2.39 2.39 0 0 0-2.387-2.388zm-2.62 8.222c-1.785 0-3.237-1.437-3.237-3.202 0-1.766 1.452-3.202 3.236-3.202 1.785 0 3.237 1.436 3.237 3.202 0 1.765-1.452 3.202-3.237 3.202zm3.293-5.774a.761.761 0 1 1 0-1.522.761.761 0 0 1 0 1.522z" fill="#3F81A3"/><path d="M10 0C4.477 0 0 4.477 0 10s4.477 10 10 10 10-4.477 10-10S15.523 0 10 0zm6.174 12.66a3.573 3.573 0 0 1-3.568 3.568H7.345a3.573 3.573 0 0 1-3.569-3.569V7.35a3.573 3.573 0 0 1 3.569-3.568h5.26a3.573 3.573 0 0 1 3.57 3.569v5.31z" fill="#3F81A3"/><path d="M9.985 7.959c-1.134 0-2.057.907-2.057 2.023 0 1.115.923 2.023 2.057 2.023 1.135 0 2.058-.908 2.058-2.023 0-1.116-.923-2.023-2.058-2.023z" fill="#3F81A3"/></svg><svg fill="none" viewBox="0 0 62 62" id="inst_white" xmlns="http://www.w3.org/2000/svg"><path d="M30.62 14.786c-8.8 0-15.96 7.083-15.96 15.79 0 8.706 7.16 15.789 15.96 15.789 8.799 0 15.959-7.083 15.959-15.79 0-8.706-7.16-15.79-15.96-15.79zm0 25.766c-5.595 0-10.146-4.476-10.146-9.976 0-5.501 4.55-9.976 10.146-9.976 5.594 0 10.146 4.475 10.146 9.976 0 5.5-4.551 9.976-10.146 9.976z" fill="#fff"/><path d="M43.541 0H17.598C7.895 0 0 7.894 0 17.598v26.181c0 9.703 7.894 17.598 17.598 17.598h25.943c9.704 0 17.598-7.895 17.598-17.598V17.598C61.139 7.895 53.245 0 43.541 0zm11.774 43.779c0 6.492-5.282 11.774-11.774 11.774H17.598c-6.492 0-11.774-5.282-11.774-11.774V17.598c0-6.492 5.282-11.774 11.774-11.774h25.943c6.492 0 11.774 5.282 11.774 11.774v26.181z" fill="#fff"/><path d="M46.863 17.896a3.755 3.755 0 1 0 0-7.51 3.755 3.755 0 0 0 0 7.51z" fill="#fff"/></svg><svg fill="none" viewBox="0 0 20 20" id="vk" xmlns="http://www.w3.org/2000/svg"><path d="M10 0C4.477 0 0 4.477 0 10s4.477 10 10 10 10-4.477 10-10S15.523 0 10 0zm4.336 11.322c.08.097.266.287.562.569h.007l.007.007.007.007.014.014c.652.605 1.094 1.117 1.325 1.533a.906.906 0 0 1 .046.087.86.86 0 0 1 .048.184.543.543 0 0 1-.003.236c-.019.069-.077.133-.174.19-.097.058-.233.087-.41.087l-1.776.028a.78.78 0 0 1-.388-.035 1.696 1.696 0 0 1-.36-.152l-.14-.084a3.24 3.24 0 0 1-.485-.444 12.297 12.297 0 0 1-.476-.538 2.306 2.306 0 0 0-.423-.402c-.15-.109-.281-.145-.392-.108a.545.545 0 0 0-.056.025.89.89 0 0 0-.267.305 1.42 1.42 0 0 0-.118.36c-.035.16-.05.34-.045.539 0 .069-.008.133-.024.19a.468.468 0 0 1-.053.129l-.027.034c-.084.089-.206.14-.368.153H9.57a3.147 3.147 0 0 1-1.013-.114 3.88 3.88 0 0 1-.912-.368 8.22 8.22 0 0 1-.715-.458 4.146 4.146 0 0 1-.489-.399l-.173-.166a4.398 4.398 0 0 1-.191-.209 15.35 15.35 0 0 1-.496-.631 17.26 17.26 0 0 1-.736-1.048c-.24-.37-.524-.858-.85-1.464a22.876 22.876 0 0 1-.905-1.887.552.552 0 0 1-.042-.187c0-.051.007-.088.02-.111l.029-.042c.069-.088.2-.132.395-.132l1.901-.014a.742.742 0 0 1 .27.104l.036.021a.46.46 0 0 1 .166.222c.093.232.199.471.32.718.12.248.214.436.284.566l.11.201c.135.278.264.518.39.722.124.203.236.362.336.475.1.113.195.203.288.267.092.065.171.098.236.098a.519.519 0 0 0 .187-.035.122.122 0 0 0 .035-.035 1.124 1.124 0 0 0 .177-.479c.02-.134.043-.321.066-.562.023-.24.023-.53 0-.867a3.25 3.25 0 0 0-.063-.506 1.342 1.342 0 0 0-.097-.32l-.041-.083c-.116-.157-.313-.257-.59-.298-.06-.01-.049-.065.035-.167A.938.938 0 0 1 7.8 6.84c.245-.12.798-.175 1.659-.167.379.005.691.035.936.09.093.024.17.055.233.094.062.04.11.095.142.167a1.1 1.1 0 0 1 .073.222c.016.076.024.182.024.315 0 .135-.002.262-.007.382l-.017.49c-.007.205-.01.396-.01.572 0 .05-.003.148-.007.291a5.469 5.469 0 0 0-.004.333c.002.079.01.173.024.281.014.109.04.2.08.27.04.072.091.13.156.17.037.01.076.02.118.029.042.009.102-.016.18-.077.08-.06.167-.14.264-.24.097-.098.218-.253.361-.464.143-.21.3-.459.472-.746.277-.48.525-1.001.742-1.561a.471.471 0 0 1 .07-.122.307.307 0 0 1 .076-.073l.027-.02.035-.018a.569.569 0 0 1 .23-.024l1.998-.014c.18-.023.328-.017.444.017.115.035.187.073.215.115l.041.07c.107.295-.24.975-1.04 2.039-.111.148-.262.345-.451.59-.361.463-.57.766-.624.91-.08.189-.047.376.096.56z" fill="#3F81A3"/></svg></svg>