<svg xmlns="http://www.w3.org/2000/svg" width="124" height="124"><defs><mask id="b" width="2" height="2" x="-1" y="-1"><path fill="#fff" d="M28 26h70v70H28z"/><path d="M63 26c19.33 0 35 15.67 35 35S82.33 96 63 96 28 80.33 28 61s15.67-35 35-35z"/></mask><filter id="a" width="122" height="127" x="2" y="0" filterUnits="userSpaceOnUse"><feOffset dy="5" in="SourceGraphic" result="FeOffset1023Out"/><feGaussianBlur in="FeOffset1023Out" result="FeGaussianBlur1024Out" stdDeviation="6.4 6.4"/></filter><clipPath id="c"><path fill="#fff" d="M62 0c34.242 0 62 27.758 62 62 0 34.242-27.758 62-62 62-34.242 0-62-27.758-62-62C0 27.758 27.758 0 62 0z"/></clipPath><clipPath id="d"><path fill="#fff" d="M55 50v23l22-11.5z"/></clipPath></defs><g filter="url(#a)"><path fill="none" d="M63 26c19.33 0 35 15.67 35 35S82.33 96 63 96 28 80.33 28 61s15.67-35 35-35z" mask="url(&quot;#b&quot;)"/><path fill="#f2c54a" fill-opacity=".64" d="M63 26c19.33 0 35 15.67 35 35S82.33 96 63 96 28 80.33 28 61s15.67-35 35-35z"/></g><path fill="#f2c54a" d="M63 26c19.33 0 35 15.67 35 35S82.33 96 63 96 28 80.33 28 61s15.67-35 35-35z"/><path fill="none" stroke="#f2c54a" stroke-dasharray="0 2" stroke-linecap="round" stroke-miterlimit="50" stroke-width="2" d="M62 0c34.242 0 62 27.758 62 62 0 34.242-27.758 62-62 62-34.242 0-62-27.758-62-62C0 27.758 27.758 0 62 0z" clip-path="url(&quot;#c&quot;)" opacity=".29"/><path fill="none" stroke="#040404" stroke-miterlimit="50" stroke-width="8" d="M55 50v23l22-11.5v0z" clip-path="url(&quot;#d&quot;)"/></svg>