<svg xmlns="http://www.w3.org/2000/svg" xmlns:xlink="http://www.w3.org/1999/xlink" width="26" height="26" viewBox="0 0 26 26"><defs><path id="599ia" d="M1473 36a1 1 0 0 1 1-1h3.75a1 1 0 0 1 1 1v.72a.999.999 0 0 1-.42.814c.035.03.067.062.098.096h19.542a1 1 0 0 1 1 1v.59a.999.999 0 0 1-.411.808c.324.265.507.687.447 1.131l-1.504 9.318c-.01.065-.023.129-.041.19a1 1 0 0 1-.935.861 1.25 1.25 0 0 1-.429.017l-.108-.015h-15.242l.384 2.53h13.709a1 1 0 0 1 1 1v.5a1 1 0 0 1-1 1h-14.641l-.064.01c-.162.026-.321.02-.472-.014a1 1 0 0 1-.878-.732 1.247 1.247 0 0 1-.082-.285l-2.56-16.857a1.24 1.24 0 0 1 .247-.962H1474a1 1 0 0 1-1-1zm6.03 4.22l.611 4.03h4.579v-4.03zm1.3 8.56h3.89v-3.5h-4.422zm14.664 0l.565-3.5h-5.059v3.5zm1.289-7.987c.029-.215.111-.41.232-.573h-6.015v4.03h5.225zm-11.063-.573v4.03h4.28v-4.03zm0 8.56h4.28v-3.5h-4.28zm-3.158 9.407c1.07 0 1.938.63 1.938 1.407 0 .776-.868 1.406-1.938 1.406-1.07 0-1.937-.63-1.937-1.406 0-.777.867-1.407 1.937-1.407zm11.97 0c1.07 0 1.937.63 1.937 1.407 0 .776-.868 1.406-1.938 1.406-1.07 0-1.937-.63-1.937-1.406 0-.777.867-1.407 1.937-1.407z"/></defs><g><g transform="translate(-1473 -35)"><use fill="#fff" xlink:href="#599ia"/></g></g></svg>