<svg xmlns="http://www.w3.org/2000/svg" xmlns:xlink="http://www.w3.org/1999/xlink" width="58" height="58" viewBox="0 0 58 58"><defs><path id="p63ma" d="M1839 471c0-5.523 4.477-10 10-10h38c5.523 0 10 4.477 10 10v38c0 5.523-4.477 10-10 10h-38c-5.523 0-10-4.477-10-10zm22.02 25.05c-1.318 1.363-1.318 3.571 0 4.933a3.295 3.295 0 0 0 4.77 0l8.24-8.52c1.317-1.362 1.317-3.57 0-4.933l-8.24-8.52a3.295 3.295 0 0 0-4.77 0c-1.318 1.362-1.318 3.57 0 4.933l5.854 6.053z"/><clipPath id="p63mb"><use fill="#fff" xlink:href="#p63ma"/></clipPath></defs><g><g transform="translate(-1839 -461)"><use fill="#fff" fill-opacity="0" stroke="#535353" stroke-miterlimit="50" stroke-width="4" clip-path="url(&quot;#p63mb&quot;)" xlink:href="#p63ma"/></g></g></svg>